<?xml version="1.0" encoding="utf-8"?>
<!-- Generator: Adobe Illustrator 25.4.1, SVG Export Plug-In . SVG Version: 6.00 Build 0)  -->
<svg version="1.1" id="レイヤー_1" xmlns="http://www.w3.org/2000/svg" xmlns:xlink="http://www.w3.org/1999/xlink" x="0px"
	 y="0px" viewBox="0 0 1200 556" style="enable-background:new 0 0 1200 556;" xml:space="preserve">
<style type="text/css">
	.st0{fill:#C16265;}
	.st1{fill:#323B3C;}
</style>
<g>
	<path class="st0" d="M378.3,519.1c7.5,11.8,21.5,17.2,40.2,17.9c18.9,0.7,56.7,0.2,78-1.2c-1.9,3.7-4.4,11.2-5.3,16.2
		c-19.2,0.9-53.5,1.2-72.9,0.3c-21.6-0.9-36.3-6.5-47-19.6c-8,7-16.2,13.8-25,21.1l-8.2-16.4c7.7-4.8,16.7-11.1,24.7-17.5v-40H341
		v-14.6h37.3V519.1z M370.5,439.6c-5.5-8-17.7-19.4-28.4-26.9l11.8-9.5c10.7,7.3,23.3,17.9,29.1,26.1L370.5,439.6z M450.9,478.9
		c7.2,18.9,21.5,32.4,43.1,38c-3.6,3.1-8,9.4-10.2,13.3c-20.6-7-34.4-20.3-42.9-39.3c-6.1,14-18.6,27.9-43.1,38.8
		c-1.9-3.2-6.8-8.7-10.4-11.4c27.9-10.9,37.8-25.7,41-39.4h-41.7v-14.1h43.4v-2v-18.2h-37.8v-14.3h19.4c-2.4-7.3-8-17.4-13.8-25
		l13.5-5.6c6.5,8,12.9,19.1,15.2,26.6l-9.4,4.1h42.1l-9.7-3.4c5.3-7.5,11.8-19.3,15-27.8l16.2,5.1c-5.6,9.4-11.9,19.3-17.2,26.1
		h24.7v14.3h-42.1v18.4v1.9h47.4v14.1H450.9z"/>
	<path class="st0" d="M551.8,472.4c5.1,5.5,21.5,26.2,25,31.3l-10,12.4c-2.9-6.1-9.4-16.9-15-25.9v65.1H537v-65.2
		c-5.8,17-13.6,34.4-21.6,45.1c-1.4-4.6-5.1-11.6-7.7-15.8c9.2-11.2,18.9-31.5,24.5-48.9h-21.6v-14.8H537v-55.7h14.8v55.7h26.6v14.8
		h-26.6V472.4z M519.7,451.2c-0.7-10.4-4.3-26.4-8.5-38.5l11.4-2.9c4.6,11.9,8.2,27.6,9.4,38L519.7,451.2z M579.6,412.2
		c-4.3,13.3-9.5,29.1-13.8,39l-10.2-3.2c3.7-10.4,8.2-27.2,10.4-38.8L579.6,412.2z M645.7,508.6v47h-14.8v-44.3l-50.4,9.2l-2.6-14.6
		l53-9.5v-96.9h14.8v94.2l18.9-3.2l2.2,14.5L645.7,508.6z M609.1,484c-6-6.3-18-15.2-28.1-20.6l7.5-11.4
		c9.9,5.3,22.5,13.3,28.4,19.3L609.1,484z M615.9,442.8c-5.3-6.6-16.9-15.8-26.6-22l8-10.7c9.5,5.8,21.3,14.3,26.9,20.6L615.9,442.8
		z"/>
	<path class="st0" d="M705.6,439.9c-4.3,4.6-8.7,8.7-12.9,12.3c-2.9-2.9-9.2-7.8-13.1-10.4c14.5-10,27.9-26.2,35.8-42.6l15.5,4.4
		c-2.4,4.9-5.1,9.7-8.2,14.3h104.8v14h-16.7v25.5h23v14.3h-23v25.6h20.6v14.3H685v-14.3h20.6v-25.6h-23.2v-14.3h23.2V439.9z
		 M680.9,549.4c8.3-7,16-19.9,20.1-32.2l15.3,3.7c-4.3,12.8-11.6,26.2-20.4,34.7L680.9,549.4z M719.9,457.5h15.8v-25.5h-15.8V457.5z
		 M719.9,497.3h15.8v-25.6h-15.8V497.3z M745.5,520.7c2.2,10,4.1,23.2,4.3,31l-15.5,2.2c0-8-1.4-21.5-3.4-31.7L745.5,520.7z
		 M765.6,457.5v-25.5h-16.5v25.5H765.6z M749.1,471.8v25.6h16.5v-25.6H749.1z M779.7,520c4.4,9.7,8.9,22.8,10.4,31l-15.7,3.1
		c-1.4-8.2-5.3-21.5-9.5-31.7L779.7,520z M795.9,431.9H779v25.5h16.9V431.9z M795.9,471.8H779v25.6h16.9V471.8z M813.8,516.6
		c8.2,10.2,18.1,24.4,22.5,33.6l-16,5.6c-4.1-9-13.3-23.7-21.5-34.4L813.8,516.6z"/>
	<path class="st0" d="M892.5,472.4c5.1,5.5,21.5,26.2,25,31.3l-10.1,12.4c-2.9-6.1-9.4-16.9-15-25.9v65.1h-14.8v-65.2
		c-5.8,17-13.6,34.4-21.6,45.1c-1.4-4.6-5.1-11.6-7.7-15.8c9.2-11.2,18.9-31.5,24.5-48.9h-21.6v-14.8h26.4v-55.7h14.8v55.7H919v14.8
		h-26.6V472.4z M860.3,451.2c-0.7-10.4-4.3-26.4-8.5-38.5l11.4-2.9c4.6,11.9,8.2,27.6,9.4,38L860.3,451.2z M920.2,412.2
		c-4.3,13.3-9.5,29.1-13.8,39l-10.2-3.2c3.7-10.4,8.2-27.2,10.4-38.8L920.2,412.2z M986.3,508.6v47h-14.8v-44.3l-50.4,9.2l-2.6-14.6
		l53-9.5v-96.9h14.8v94.2l18.9-3.2l2.2,14.5L986.3,508.6z M949.7,484c-6-6.3-18.1-15.2-28.1-20.6l7.5-11.4
		c9.9,5.3,22.5,13.3,28.5,19.3L949.7,484z M956.5,442.8c-5.3-6.6-16.9-15.8-26.6-22l8-10.7c9.5,5.8,21.3,14.3,26.9,20.6L956.5,442.8
		z"/>
</g>
<g>
	<path class="st0" d="M69.3,356.2c-14.6,0-27.8-2.7-39.5-8S8.1,335.2,0,325l24.4-24.4c4.4,6.7,10.5,12,18.4,15.9
		c7.9,4,16.6,5.9,25.9,5.9c9,0,16.7-1.7,23.1-5c6.5-3.3,11.5-8,15.2-14.1c3.6-6,5.5-13,5.5-20.9c0-8.3-1.8-15.4-5.5-21.2
		c-3.7-5.8-8.9-10.4-15.6-13.6c-6.8-3.2-14.9-4.8-24.5-4.8c-3.7,0-7.6,0.3-11.6,0.8c-4,0.5-7.5,1.3-10.6,2.3l15.9-20.6
		c4.4-1.7,9-3.1,13.9-4.2c4.9-1.1,9.6-1.7,14.2-1.7c11.2,0,21.4,2.7,30.5,8.1c9.1,5.4,16.2,13,21.6,22.6s8,21.1,8,34.2
		c0,14.2-3.3,26.7-10,37.5c-6.7,10.8-15.9,19.3-27.8,25.3S85.2,356.2,69.3,356.2z M10.9,166.6v-32.2h135.2v21.2l-30.9,10.9H10.9z
		 M44.7,246v-21.2l58.4-68.1l43.1-0.9l-60.9,70L44.7,246z"/>
	<path class="st0" d="M271.7,356.2c-16.5,0-31.5-4.6-45.1-13.9c-13.6-9.3-24.5-22.3-32.6-39.2c-8.1-16.9-12.2-36.7-12.2-59.7
		c0-22.9,4-42.7,12-59.5c8-16.8,18.8-29.7,32.3-38.9c13.5-9.2,28.5-13.7,45-13.7c16.7,0,31.8,4.6,45.3,13.7
		c13.5,9.2,24.3,22.1,32.3,38.9c8,16.8,12,36.7,12,59.8c0,22.9-4,42.8-12,59.7c-8,16.9-18.7,29.9-32.2,39
		C303.1,351.6,288.2,356.2,271.7,356.2z M271.1,322.5c10.8,0,20.2-2.9,28.1-8.7c7.9-5.8,14.1-14.6,18.6-26.2
		c4.5-11.7,6.7-26.3,6.7-44c0-17.5-2.2-32.1-6.7-43.7c-4.5-11.7-10.7-20.4-18.7-26.1c-8-5.7-17.3-8.6-28-8.6s-19.9,2.9-28,8.6
		c-8,5.7-14.2,14.4-18.6,25.9c-4.4,11.6-6.6,26.2-6.6,43.9c0,17.7,2.2,32.4,6.6,44c4.4,11.7,10.6,20.4,18.6,26.2
		C251.2,319.6,260.5,322.5,271.1,322.5z"/>
	<path class="st0" d="M438.2,219.7c-8.1,0-15.6-2-22.3-5.9c-6.8-4-12.1-9.3-16.1-15.9c-4-6.7-5.9-14.2-5.9-22.5
		c0-8.3,2-15.8,5.9-22.3c4-6.6,9.3-11.8,15.9-15.8c6.7-4,14.2-5.9,22.5-5.9c8.3,0,15.9,2,22.6,5.9c6.8,4,12.1,9.2,16.1,15.8
		c4,6.6,5.9,14,5.9,22.3c0,8.3-2,15.8-5.9,22.5c-4,6.7-9.3,12-15.9,15.9C454.3,217.8,446.7,219.7,438.2,219.7z M397,353.1
		l140.2-218.6h34L431,353.1H397z M438.2,193.2c5.2,0,9.4-1.7,12.5-5c3.1-3.3,4.7-7.6,4.7-12.8c0-5.2-1.6-9.4-4.8-12.6
		c-3.2-3.2-7.3-4.8-12.3-4.8c-5,0-9.1,1.6-12.2,4.8c-3.1,3.2-4.7,7.4-4.7,12.6c0,5.2,1.6,9.5,4.7,12.8
		C429.1,191.5,433.2,193.2,438.2,193.2z M529.7,356.2c-8.1,0-15.6-2-22.3-5.9c-6.8-4-12.1-9.3-16.1-15.9c-4-6.7-5.9-14.2-5.9-22.5
		c0-8.3,2-15.8,5.9-22.3c4-6.6,9.3-11.8,15.9-15.8c6.7-4,14.2-5.9,22.5-5.9c8.3,0,15.9,2,22.6,5.9c6.8,4,12.1,9.2,16.1,15.8
		c4,6.6,5.9,14,5.9,22.3c0,8.3-2,15.8-5.9,22.5c-4,6.7-9.3,12-15.9,15.9C545.9,354.2,538.3,356.2,529.7,356.2z M529.7,329.7
		c5.2,0,9.4-1.7,12.6-5c3.2-3.3,4.8-7.6,4.8-12.8c0-5-1.7-9.2-5-12.5c-3.3-3.3-7.5-5-12.5-5s-9.1,1.7-12.2,5
		c-3.1,3.3-4.7,7.5-4.7,12.5c0,5.2,1.6,9.5,4.7,12.8C520.7,328,524.7,329.7,529.7,329.7z"/>
	<path class="st0" d="M719,356.2c-15.6,0-30.2-2.9-43.7-8.7c-13.5-5.8-25.4-13.9-35.6-24.2c-10.2-10.3-18.2-22.3-23.9-35.9
		c-5.7-13.6-8.6-28.3-8.6-43.9s2.9-30.2,8.6-43.7c5.7-13.5,13.6-25.5,23.7-35.8c10.1-10.3,21.9-18.3,35.3-24
		c13.4-5.7,28-8.6,43.6-8.6s30.1,2.9,43.6,8.6c13.4,5.7,25.2,13.7,35.5,24c10.2,10.3,18.2,22.3,23.9,35.9
		c5.7,13.6,8.6,28.3,8.6,43.9s-2.9,30.2-8.6,43.9c-5.7,13.6-13.6,25.6-23.7,35.8c-10.1,10.2-21.9,18.2-35.3,24.1
		C748.8,353.3,734.4,356.2,719,356.2z M718.4,321.9c14.8,0,27.7-3.3,38.9-10c11.1-6.7,19.9-15.9,26.2-27.6
		c6.3-11.8,9.5-25.3,9.5-40.8c0-11.5-1.8-21.9-5.5-31.4c-3.6-9.5-8.8-17.7-15.5-24.7c-6.7-7-14.5-12.3-23.6-16.1
		c-9.1-3.7-19.1-5.6-30.1-5.6c-14.6,0-27.4,3.3-38.6,9.8c-11.1,6.6-19.9,15.7-26.2,27.3c-6.3,11.7-9.5,25.2-9.5,40.6
		c0,11.5,1.8,22,5.5,31.7c3.6,9.7,8.7,18,15.3,24.8c6.6,6.9,14.4,12.2,23.6,16.1C697.6,319.9,707.6,321.9,718.4,321.9z"/>
	<path class="st0" d="M874.2,353.1V134.5h35.9v218.6H874.2z M898.9,167.3v-32.8h116.5v32.8H898.9z M898.9,259.4v-32.8h111.2v32.8
		H898.9z"/>
	<path class="st0" d="M1058.8,353.1V134.5h35.9v218.6H1058.8z M1083.5,167.3v-32.8H1200v32.8H1083.5z M1083.5,259.4v-32.8h111.2
		v32.8H1083.5z"/>
</g>
<g>
	<path class="st0" d="M193.6,510.6c0-17.2,11.4-27.6,24.2-36.1c-5.1-9.9-8.2-19.6-8.2-28.3c0-17,12.1-30.7,30.5-30.7
		c16.7,0,26.6,10.6,26.6,25.9c0,16.5-14,26.9-27.8,36.8c8,11.2,18.9,22.3,30,31.2c7.3-9.5,12.9-21.3,16.7-34.7h18.1
		c-4.8,16.2-11.8,31.2-21.6,44.3c8.2,5.1,16.2,8.9,23,10.6l-5.1,16c-9.2-2.2-19.6-7-29.8-13.8c-9.9,8.5-22.1,13.8-37.3,13.8
		C208.8,545.5,193.6,530.3,193.6,510.6z M235.2,530.2c7.7,0,15-3.2,21.6-8.5c-11.6-9.9-22.5-21.6-31-33.9
		c-7.7,6.5-13.5,13.1-13.5,21.6C212.4,521.8,222.2,530.2,235.2,530.2z M231.6,465.8c10.7-7,19.6-14,19.6-24.2
		c0-6.8-3.2-12.6-10.7-12.6c-8.5,0-14.3,7.2-14.3,17C226.2,452.1,228.2,458.8,231.6,465.8z"/>
</g>
<g>
	<g>
		<path class="st1" d="M87.3,69.2l25.8-27.4c2.1-2.3,3.9-4.3,5.2-6.1c1.3-1.8,2.3-3.5,2.9-5.1c0.6-1.6,0.9-3.2,0.9-4.9
			c0-3.1-1-5.6-3-7.4c-2-1.8-4.6-2.7-7.8-2.7c-3.3,0-6.3,0.8-8.8,2.5c-2.5,1.7-4.8,4.3-6.8,7.8l-8-6.6c2.7-4.7,6.1-8.3,10.1-10.8
			s8.6-3.7,13.9-3.7c4.3,0,8.1,0.9,11.4,2.6c3.3,1.7,5.8,4.2,7.6,7.3c1.8,3.1,2.7,6.7,2.7,10.8c0,2.9-0.3,5.6-1,7.9
			s-1.9,4.6-3.6,6.9c-1.7,2.3-4,5-6.9,8.1l-19.8,20.5L87.3,69.2z M87.3,76v-6.8l9.9-3.5h37.6V76H87.3z"/>
		<path class="st1" d="M174,77c-5.3,0-10.1-1.5-14.5-4.5c-4.4-3-7.9-7.2-10.5-12.6c-2.6-5.4-3.9-11.8-3.9-19.1s1.3-13.7,3.8-19.1
			s6-9.5,10.4-12.5c4.3-2.9,9.1-4.4,14.4-4.4c5.3,0,10.2,1.5,14.5,4.4c4.3,2.9,7.8,7.1,10.4,12.5c2.6,5.4,3.8,11.8,3.8,19.2
			c0,7.3-1.3,13.7-3.8,19.1c-2.6,5.4-6,9.6-10.3,12.5C184.1,75.5,179.3,77,174,77z M173.8,66.2c3.5,0,6.5-0.9,9-2.8
			c2.5-1.9,4.5-4.7,6-8.4c1.4-3.7,2.2-8.4,2.2-14.1c0-5.6-0.7-10.3-2.2-14c-1.4-3.7-3.4-6.5-6-8.4c-2.6-1.8-5.6-2.7-9-2.7
			c-3.4,0-6.4,0.9-9,2.7c-2.6,1.8-4.6,4.6-6,8.3c-1.4,3.7-2.1,8.4-2.1,14.1c0,5.7,0.7,10.4,2.1,14.1c1.4,3.7,3.4,6.5,6,8.4
			C167.4,65.2,170.4,66.2,173.8,66.2z"/>
		<path class="st1" d="M211.9,69.2l25.8-27.4c2.1-2.3,3.9-4.3,5.2-6.1c1.3-1.8,2.3-3.5,2.9-5.1c0.6-1.6,0.9-3.2,0.9-4.9
			c0-3.1-1-5.6-3-7.4c-2-1.8-4.6-2.7-7.8-2.7c-3.3,0-6.3,0.8-8.8,2.5c-2.5,1.7-4.8,4.3-6.8,7.8l-8-6.6c2.7-4.7,6.1-8.3,10.1-10.8
			s8.6-3.7,13.9-3.7c4.3,0,8.1,0.9,11.4,2.6c3.3,1.7,5.8,4.2,7.6,7.3c1.8,3.1,2.7,6.7,2.7,10.8c0,2.9-0.3,5.6-1,7.9
			s-1.9,4.6-3.6,6.9c-1.7,2.3-4,5-6.9,8.1l-19.8,20.5L211.9,69.2z M211.9,76v-6.8l9.9-3.5h37.6V76H211.9z"/>
		<path class="st1" d="M272.6,69.2l25.8-27.4c2.1-2.3,3.9-4.3,5.2-6.1c1.3-1.8,2.3-3.5,2.9-5.1c0.6-1.6,0.9-3.2,0.9-4.9
			c0-3.1-1-5.6-3-7.4c-2-1.8-4.6-2.7-7.8-2.7c-3.3,0-6.3,0.8-8.8,2.5c-2.5,1.7-4.8,4.3-6.8,7.8l-8-6.6c2.7-4.7,6.1-8.3,10.1-10.8
			c4-2.4,8.6-3.7,13.9-3.7c4.3,0,8.1,0.9,11.4,2.6c3.3,1.7,5.8,4.2,7.6,7.3c1.8,3.1,2.7,6.7,2.7,10.8c0,2.9-0.3,5.6-1,7.9
			s-1.9,4.6-3.6,6.9c-1.7,2.3-4,5-6.9,8.1l-19.8,20.5L272.6,69.2z M272.6,76v-6.8l9.9-3.5h37.6V76H272.6z"/>
		<path class="st1" d="M337.2,75.4l24.8-69h9.1l-24.8,69H337.2z"/>
		<path class="st1" d="M389.1,16.3V5.9H436v7l-4.9,3.3H389.1z M399.1,76l25.5-63H436l-24.9,63H399.1z"/>
		<path class="st1" d="M454,75.4l24.8-69h9.1l-24.8,69H454z"/>
		<path class="st1" d="M507.7,16.3V5.9H532v10.3H507.7z M521.7,76v-70H533v70H521.7z"/>
		<path class="st1" d="M576,77c-5.3,0-10.1-1.5-14.5-4.5c-4.4-3-7.9-7.2-10.5-12.6c-2.6-5.4-3.9-11.8-3.9-19.1s1.3-13.7,3.8-19.1
			s6-9.5,10.4-12.5c4.3-2.9,9.1-4.4,14.4-4.4c5.3,0,10.2,1.5,14.5,4.4c4.3,2.9,7.8,7.1,10.4,12.5c2.6,5.4,3.8,11.8,3.8,19.2
			c0,7.3-1.3,13.7-3.8,19.1c-2.6,5.4-6,9.6-10.3,12.5C586,75.5,581.3,77,576,77z M575.8,66.2c3.5,0,6.5-0.9,9-2.8
			c2.5-1.9,4.5-4.7,6-8.4c1.4-3.7,2.2-8.4,2.2-14.1c0-5.6-0.7-10.3-2.2-14c-1.4-3.7-3.4-6.5-6-8.4c-2.6-1.8-5.6-2.7-9-2.7
			c-3.4,0-6.4,0.9-9,2.7c-2.6,1.8-4.6,4.6-6,8.3c-1.4,3.7-2.1,8.4-2.1,14.1c0,5.7,0.7,10.4,2.1,14.1c1.4,3.7,3.4,6.5,6,8.4
			C569.4,65.2,572.4,66.2,575.8,66.2z"/>
		<path class="st1" d="M624.6,35.3h73.1v6.3h-73.1V35.3z"/>
		<path class="st1" d="M747.1,77c-4.8,0-9-0.9-12.5-2.6c-3.5-1.7-6.3-4.2-8.3-7.3s-3-6.6-3-10.6c0-3.1,0.6-6,1.9-8.7
			c1.2-2.6,3-4.9,5.4-6.8c2.4-1.9,5.2-3.2,8.5-4l-0.3,3.2c-2.7-0.7-4.9-1.9-6.8-3.6c-1.8-1.7-3.2-3.6-4.2-5.9
			c-0.9-2.3-1.4-4.6-1.4-7.1c0-3.7,0.9-7,2.7-9.9c1.8-2.8,4.2-5.1,7.4-6.7c3.1-1.6,6.7-2.4,10.6-2.4c4,0,7.6,0.8,10.7,2.4
			c3.1,1.6,5.5,3.8,7.3,6.7c1.8,2.8,2.7,6.1,2.7,9.9c0,2.5-0.5,4.8-1.4,7.1c-0.9,2.3-2.3,4.2-4.1,5.9c-1.8,1.7-4.1,2.9-6.8,3.6
			l-0.3-3.2c3.3,0.8,6.2,2.1,8.5,4c2.3,1.9,4.1,4.1,5.3,6.8c1.2,2.6,1.9,5.5,1.9,8.7c0,3.9-1,7.5-2.9,10.6c-1.9,3.1-4.7,5.5-8.3,7.3
			C756.1,76.1,751.9,77,747.1,77z M747.1,66.6c2.5,0,4.6-0.5,6.6-1.5c1.9-1,3.4-2.4,4.5-4.1c1.1-1.7,1.7-3.7,1.7-5.9
			c0-2.3-0.6-4.3-1.7-6c-1.1-1.7-2.6-3.1-4.5-4.1c-1.9-1-4.1-1.5-6.6-1.5s-4.6,0.5-6.6,1.5s-3.4,2.4-4.5,4.1c-1.1,1.7-1.7,3.7-1.7,6
			c0,2.2,0.6,4.2,1.7,5.9c1.1,1.7,2.6,3.1,4.5,4.1C742.4,66.1,744.6,66.6,747.1,66.6z M747.1,34.6c2.9,0,5.3-0.9,7.2-2.8
			c1.9-1.9,2.8-4.3,2.8-7.2s-0.9-5.3-2.8-7.2c-1.9-1.8-4.3-2.8-7.2-2.8c-2.9,0-5.3,0.9-7.2,2.8c-1.9,1.8-2.9,4.2-2.9,7.2
			s1,5.3,2.9,7.2S744.2,34.6,747.1,34.6z"/>
		<path class="st1" d="M787.8,75.4l24.8-69h9.1l-24.8,69H787.8z"/>
		<path class="st1" d="M861.7,77c-4.7,0-8.9-0.8-12.6-2.6c-3.8-1.7-7-4.2-9.6-7.5l7.8-7.8c1.4,2.1,3.4,3.8,5.9,5.1
			c2.5,1.3,5.3,1.9,8.3,1.9c2.9,0,5.3-0.5,7.4-1.6c2.1-1.1,3.7-2.6,4.8-4.5c1.2-1.9,1.8-4.2,1.8-6.7c0-2.7-0.6-4.9-1.8-6.8
			c-1.2-1.9-2.8-3.3-5-4.4c-2.2-1-4.8-1.6-7.9-1.6c-1.2,0-2.4,0.1-3.7,0.3c-1.3,0.2-2.4,0.4-3.4,0.7l5.1-6.6c1.4-0.5,2.9-1,4.5-1.3
			c1.6-0.4,3.1-0.6,4.6-0.6c3.6,0,6.9,0.9,9.7,2.6c2.9,1.7,5.2,4.2,6.9,7.3c1.7,3.1,2.5,6.8,2.5,11c0,4.5-1.1,8.5-3.2,12
			c-2.1,3.5-5.1,6.2-8.9,8.1C871.2,76,866.7,77,861.7,77z M843,16.3V5.9h43.3v6.8l-9.9,3.5H843z M853.8,41.7v-6.8l18.7-21.8
			l13.8-0.3l-19.5,22.4L853.8,41.7z"/>
		<path class="st1" d="M896.2,16.3V5.9h24.3v10.3H896.2z M910.2,76v-70h11.3v70H910.2z"/>
	</g>
</g>
<g>
	<g>
		<path class="st1" d="M982.4,7.2c-2.3,7.2-5.1,16.3-7.7,22.7C980,36.3,981,42,981,46.7c0.1,5.4-1.2,8.9-3.8,10.7
			c-1.3,1.1-3,1.6-4.9,1.9c-1.7,0.2-3.6,0.2-5.7,0.2c-0.1-2.5-0.8-6.3-2.2-8.8c1.6,0.1,2.8,0.1,3.9,0.1c0.9,0,1.7-0.2,2.4-0.7
			c1-0.7,1.5-2.3,1.5-4.6c0-3.9-1.2-9-6.1-14.5c1.7-5.3,3.6-12.7,5.1-18.5h-7.3v64.8h-9.2V3.7h19.5l1.4-0.4L982.4,7.2z M1026.9,48.2
			c-3.5,3.4-7.6,6.9-11.1,9.7c3.3,4.7,7.6,8.4,13,10.8c-2.1,2-5,5.7-6.4,8.3c-12.1-6.4-18.6-18.7-22.3-34.8h-6v21.3
			c3.9-0.7,7.9-1.4,11.9-2.1l0.7,8.6c-9.5,2.2-19.6,4.3-27.4,6l-3.2-9.5c2.5-0.3,5.4-0.8,8.6-1.3V3.8h38.3v38.4h-14.4
			c0.8,3.1,1.9,6,3.1,8.8c2.7-2.6,5.5-5.6,7.4-8.2L1026.9,48.2z M994.2,12.3v6.5h19.2v-6.5H994.2z M994.2,33.8h19.2v-6.9h-19.2V33.8
			z"/>
		<path class="st1" d="M1079.1,66.1c3,0.3,6.1,0.5,9.4,0.5c4.5,0,18.1,0,23.6-0.2c-1.4,2.4-3,7.1-3.5,10H1088
			c-15.2,0-26.5-2.5-34.1-14.2c-2.6,6.3-6.3,11.6-11,15.6c-1.7-1.7-5.8-5.2-8.1-6.7c8.9-6.6,13-18,14.4-32.1l10.2,1
			c-0.5,3.7-1.1,7.2-1.8,10.5c2.5,6.6,6.4,10.6,11.2,13V34.3h-17.6v-9.3h45.4v9.3h-17.7v10.3h22.7v9.2h-22.7V66.1z M1048.4,29.2
			h-9.7V8.5h30V0.3h10.4v8.3h30.2v20.6h-10.2V17.8h-50.8V29.2z"/>
	</g>
</g>
</svg>
