<?xml version="1.0" encoding="utf-8"?>
<!-- Generator: Adobe Illustrator 25.4.1, SVG Export Plug-In . SVG Version: 6.00 Build 0)  -->
<svg version="1.1" id="レイヤー_1" xmlns="http://www.w3.org/2000/svg" xmlns:xlink="http://www.w3.org/1999/xlink" x="0px"
	 y="0px" viewBox="0 0 194 37" style="enable-background:new 0 0 194 37;" xml:space="preserve">
<style type="text/css">
	.st0{fill:#C06266;}
</style>
<g>
	<path class="st0" d="M8.1,0.1c2.8,0,5,0.7,6.7,2.1c1.7,1.4,2.6,3.2,2.6,5.5c0,3.1-1.4,5.4-4.2,6.9c1.6,0.6,2.8,1.5,3.6,2.8
		c0.8,1.3,1.2,2.8,1.2,4.6c0,2.7-0.9,4.8-2.8,6.5c-1.9,1.6-4.3,2.5-7.3,2.5c-2.4,0-4.7-0.6-6.9-1.7v-5.3c1.2,0.8,2.3,1.4,3.4,1.8
		c1,0.4,2.1,0.5,3.1,0.5c1.4,0,2.6-0.4,3.4-1.2c0.9-0.8,1.3-1.8,1.3-3.1c0-1.4-0.5-2.5-1.5-3.4s-2.3-1.3-4.1-1.3H6.3v-4.7h0.3
		c1.6,0,2.9-0.4,3.8-1.1s1.4-1.7,1.4-2.9c0-1.2-0.4-2.1-1.3-2.9C9.5,5.1,8.4,4.8,7,4.8c-1.7,0-3.5,0.5-5.3,1.4V1.4
		C3.6,0.5,5.7,0.1,8.1,0.1z"/>
	<path class="st0" d="M26.8,24.6c1.1,0,2.1,0.4,2.8,1.3s1,2,1,3.4c0,1.9-0.6,3.5-1.9,5c-1.2,1.5-2.8,2.3-4.7,2.7v-1.1
		c1.4-1.2,2.1-2.7,2.1-4.5v-0.3l0-0.3c-1.6-0.3-2.4-1.3-2.4-2.9c0-0.8,0.3-1.6,0.9-2.1C25.1,24.9,25.9,24.6,26.8,24.6z"/>
	<path class="st0" d="M50.9,0.1v17.5h2.6V22h-2.6v8.5h-5.5V22H33.1v-3.5L47.7,0.1H50.9z M45.2,9.2l-6.6,8.4h6.8V9.2H45.2z"/>
	<path class="st0" d="M67.2,0.1c2.7,0,4.9,0.8,6.6,2.3C75.5,4,76.3,6,76.3,8.5c0,2.7-1.2,4.8-3.7,6.4c1.5,0.8,2.7,1.8,3.4,3
		s1,2.6,1,4.2c0,1.7-0.4,3.2-1.3,4.5c-0.8,1.3-2,2.4-3.5,3.1s-3.2,1.1-5,1.1c-2.9,0-5.2-0.8-7.1-2.4c-1.9-1.6-2.8-3.7-2.8-6.3
		c0-1.7,0.4-3.1,1.1-4.3s1.8-2.2,3.3-2.9c-2.5-1.6-3.7-3.7-3.7-6.4c0-2.5,0.9-4.5,2.6-6C62.4,0.9,64.5,0.1,67.2,0.1z M62.9,21.9
		c0,1.5,0.4,2.6,1.2,3.5c0.8,0.8,1.8,1.3,3.1,1.3c1.3,0,2.3-0.4,3.1-1.3c0.8-0.9,1.1-2,1.1-3.4c0-1.4-0.4-2.6-1.2-3.5
		s-1.8-1.4-3-1.4c-1.3,0-2.3,0.4-3.1,1.3C63.3,19.3,62.9,20.4,62.9,21.9z M63.6,8.6c0,1.3,0.3,2.3,1,3.2c0.7,0.8,1.6,1.2,2.6,1.2
		c1,0,1.9-0.4,2.6-1.3c0.7-0.9,1-1.9,1-3.1c0-1.3-0.3-2.3-1-3.1c-0.7-0.8-1.5-1.1-2.6-1.1c-1.1,0-2,0.4-2.7,1.1
		C63.9,6.2,63.6,7.2,63.6,8.6z"/>
	<path class="st0" d="M97.8,0.1c-1.6,1.3-3.4,3.3-5.3,5.9c-1.9,2.6-3.3,4.9-4.2,6.9c1.1-0.5,2.3-0.7,3.4-0.7c1.5,0,3,0.4,4.2,1.2
		c1.3,0.8,2.3,1.9,3,3.2c0.7,1.4,1.1,2.9,1.1,4.6c0,1.8-0.4,3.4-1.2,4.9c-0.8,1.5-2,2.7-3.4,3.5c-1.5,0.9-3.1,1.3-4.8,1.3
		c-2.9,0-5.3-1-7.1-3c-1.8-2-2.7-4.5-2.7-7.7c0-3.1,0.9-6.5,2.8-10.1c1.9-3.6,4.5-6.9,7.7-10.1H97.8z M86.3,21.2
		c0,1.4,0.4,2.5,1.2,3.4c0.8,0.9,1.8,1.4,3,1.4c1.2,0,2.2-0.4,2.9-1.3c0.7-0.9,1.1-2,1.1-3.4c0-1.3-0.4-2.4-1.1-3.3
		c-0.8-0.9-1.8-1.3-3-1.3c-1.2,0-2.2,0.4-2.9,1.3C86.7,18.8,86.3,19.9,86.3,21.2z"/>
	<path class="st0" d="M110.8,27.5c0,1.5,0,2.3,0.1,2.9h-3.8c0.1-0.9,0.2-1.7,0.2-3V12.3c0-1,0-1.7-0.1-2.3c0.8,0.1,1.5,0.1,3,0.1
		h13.8c1.5,0,2.2,0,2.9-0.1c-0.1,0.7-0.1,1.4-0.1,2.9v14.7c0,1.3-0.5,2.2-1.6,2.5c-0.5,0.2-1.4,0.2-2.5,0.2c-0.6,0-1.5,0-2.6,0
		c-0.2-1.3-0.5-2.1-1-3.4c1.5,0.1,2.5,0.2,3.2,0.2c0.9,0,1.1-0.1,1.1-0.5v-4.2h-12.4V27.5z M115.1,13.3h-4.4v5.7h4.4V13.3z
		 M123.1,19.1v-5.7h-4.6v5.7H123.1z"/>
	<path class="st0" d="M134.9,30.6c-1.3-2.4-1.8-3.2-2.2-4.2c-0.7-1.9-1.2-4.3-1.2-6.5c0-1.9,0.3-3.9,0.9-5.7
		c0.5-1.6,1.1-2.8,2.5-5.2h4.2c-1.7,2.7-2.4,4-2.9,6c-0.4,1.6-0.6,3.2-0.6,4.8c0,2.2,0.4,4.6,1.2,6.4c0.5,1.2,1,2.2,2.4,4.3H134.9z"
		/>
	<path class="st0" d="M154,21.6c0,2-0.2,3-0.6,4.2c-0.7,2.1-1.9,3.6-4,4.9c-0.6-1-1.2-1.7-2.3-2.8c2.6-1.3,3.7-3.2,3.7-6.3
		c-0.6,0-1,0-1.5,0.1c-0.6,1.2-0.8,1.7-1.2,3c-0.5-0.6-0.9-1.1-1.4-2c0,0.4,0,0.5,0,1l0,0.8v3.2c0,1.4,0,2.1,0.1,3h-3.6
		c0.1-0.9,0.1-1.7,0.1-3v-2.4c0-0.5,0-1.5,0.1-2c-0.6,1.6-1,2.4-2,3.7c-0.4-1.5-0.8-2.3-1.4-3.4c1.4-1.6,2.5-3.5,3-5.3h-0.8
		c-0.8,0-1.2,0-1.7,0.1V15c0.5,0.1,0.9,0.1,1.7,0.1h1.2v-1.6c-0.7,0.1-1,0.2-1.9,0.3c-0.2-1.1-0.5-1.8-1.2-3
		c2.5-0.3,4.2-0.7,6.2-1.4c0.3-0.1,0.7-0.3,1-0.5l2,2.8c-0.2,0.1-0.2,0.1-0.6,0.3c-0.5,0.2-1.3,0.5-2,0.7v2.4h0.3
		c0.8,0,1.2,0,1.6-0.1v3.3c-0.4-0.1-0.8-0.1-1.6-0.1h-0.2c0.7,1.4,1.3,2.2,2.3,3.2c0-0.5,0-0.9,0-1.5v-4.6c0-0.6,0-1.1-0.1-1.7
		c0.7,0.1,1,0.1,1.8,0.1h0.2c-0.5-1.4-1-2.3-1.7-3.5l3.2-1.3c0.8,1.4,1.3,2.4,1.8,3.7l-2.3,1h3.1c0.8-1.8,1.3-3,1.7-4.7l3.6,1
		c-0.3,0.6-0.3,0.6-1,2.1c-0.2,0.5-0.5,1-0.8,1.6c1,0,1.3,0,2-0.1c-0.1,0.6-0.1,1-0.1,1.7v4.6c0,0.7,0,1.1,0.1,1.7
		c-0.6-0.1-1.1-0.1-1.9-0.1h-0.7v5.2c0,0.3,0.1,0.4,0.5,0.4c0.5,0,0.5,0,0.5-2.8c0.9,0.6,1.7,0.9,2.6,1.2c-0.2,2.7-0.3,3.5-0.7,4.1
		c-0.5,0.6-1.2,0.8-3.3,0.8c-2.3,0-2.9-0.5-2.9-2.2v-6.6H154z M152.5,18.4h4.8v-1.6h-4.8V18.4z"/>
	<path class="st0" d="M169.1,23.3c1.7-1.2,3-2.7,4-4.4c0.6-1.1,1.1-2.5,1.4-3.8c0.1-0.6,0.2-0.8,0.4-2.1h-2.1c-0.8,0-1.3,0-1.9,0.1
		V9.7c0.5,0.1,1,0.1,1.9,0.1h4.2c0.7,0,1.2,0,1.6-0.1c0,0.4,0,0.9,0,1.3c0,2,0.5,4.1,1.3,6.1c0.6,1.3,1.2,2.4,2.1,3.4
		c0.8,1,1.5,1.5,2.8,2.4c-0.9,1.1-1.4,1.9-2,3.5c-1.5-1.1-2.4-2-3.4-3.3c-1-1.3-1.6-2.4-2.4-4.5c-0.7,2.1-1.2,3.2-2.3,4.6
		c-0.9,1.1-1.6,1.9-3.1,3c-0.7-1.2-1.2-1.8-2.4-2.7v1.6c0.2,0.4,0.3,0.5,0.7,0.9c1,0.8,2.1,1,5.6,1c3.8,0,6.9-0.2,9.5-0.5
		c-0.5,1.4-0.6,2.2-0.8,3.7c-1.6,0.1-6.2,0.1-8.3,0.1c-5.2,0-6.7-0.4-8.4-2.3c-0.7,0.7-1.2,1.2-2.3,2c-0.1,0.1-0.1,0.1-0.5,0.3
		c-0.1,0.1-0.2,0.1-0.3,0.2l-1.5-3.7c0.6-0.2,1.7-0.8,3-1.7v-4.3h-1.1c-0.5,0-0.8,0-1.4,0.1v-3.5c0.6,0.1,1,0.1,1.9,0.1h2.3
		c0.7,0,1.2,0,1.7-0.1c-0.1,0.7-0.1,1.2-0.1,2.6V23.3z M165.6,9.3c1.9,1.5,3.1,2.7,4.2,4.2l-2.6,2.7c-1.5-1.9-2.3-2.8-4.2-4.4
		L165.6,9.3z"/>
	<path class="st0" d="M185.5,30.6c1.9-2.9,2.5-4.2,3-6.1c0.4-1.5,0.6-3.2,0.6-4.9c0-2.1-0.5-4.6-1.3-6.5c-0.5-1.2-1-2.2-2.3-4.1h4.2
		c1.5,2.6,2.2,3.9,2.7,5.8c0.5,1.7,0.7,3.3,0.7,5c0,2.3-0.4,4.7-1.2,6.6c-0.4,1-0.8,1.8-2.2,4.2H185.5z"/>
</g>
</svg>
