<?xml version="1.0" encoding="utf-8"?>
<!-- Generator: Adobe Illustrator 25.4.1, SVG Export Plug-In . SVG Version: 6.00 Build 0)  -->
<svg version="1.1" id="レイヤー_1" xmlns="http://www.w3.org/2000/svg" xmlns:xlink="http://www.w3.org/1999/xlink" x="0px"
	 y="0px" viewBox="0 0 800 21" style="enable-background:new 0 0 800 21;" xml:space="preserve">
<style type="text/css">
	.st0{fill:#323B3C;}
	.st1{fill:none;stroke:#323B3C;stroke-width:1.7104;stroke-miterlimit:10;}
</style>
<g>
	<g>
		<path class="st0" d="M118.2,0.6c-0.6,1.6-1.4,3.1-2.2,4.6v15.5h-2V8.2c-0.7,0.9-1.4,1.8-2.1,2.5c-0.2-0.5-0.8-1.6-1.2-2.1
			c2.2-2.1,4.3-5.4,5.5-8.7L118.2,0.6z M126.8,12.7c1.4,2.2,3.5,4.3,5.6,5.4c-0.5,0.4-1.2,1.2-1.5,1.7c-1.9-1.3-3.8-3.4-5.3-5.6v6.6
			h-2.1v-6.4c-1.5,2.3-3.5,4.3-5.5,5.5c-0.3-0.5-1-1.3-1.5-1.7c2.2-1.1,4.4-3.2,5.9-5.4h-5.2v-1.9h6.3V8.3h-4.7V0.9h11.7v7.4h-4.9
			v2.5h6.1v1.9H126.8z M120.8,6.4h7.7V2.8h-7.7V6.4z"/>
		<path class="st0" d="M138.9,10c-0.8-0.8-2.6-1.8-4-2.5l1.2-1.5c1.4,0.6,3.2,1.5,4,2.3L138.9,10z M140.4,13
			c-0.9,2.4-2.1,5.1-3.1,7.2l-1.9-1.2c1-1.7,2.3-4.6,3.3-7.2L140.4,13z M140,4.1c-0.8-0.8-2.5-1.8-3.9-2.4l1.2-1.5
			c1.4,0.5,3.1,1.5,4,2.2L140,4.1z M155.8,18.2v1.8h-15.7v-1.8h5.2v-7.9h2v7.9h1.9v-7.9h2v7.9H155.8z M143.1,17.3
			c-0.2-1.4-1-3.6-1.9-5.2l1.7-0.6c0.9,1.6,1.7,3.7,2,5.1L143.1,17.3z M154.2,9.7h-12V0.8h12V9.7z M152.2,2.6h-7.9v1.9h7.9V2.6z
			 M152.2,6.1h-7.9V8h7.9V6.1z M151.4,16.7c0.7-1.4,1.6-3.7,2.1-5.3l2,0.6c-0.8,1.8-1.7,4-2.5,5.3L151.4,16.7z"/>
		<path class="st0" d="M171.4,15.2c1.5,2.2,4.3,3.3,8.4,3.6c-0.5,0.5-1,1.4-1.3,2c-4.8-0.6-7.7-2.2-9.4-5.4
			c-1.2,2.7-3.6,4.5-9.4,5.4c-0.2-0.5-0.7-1.4-1.1-1.9c4.8-0.7,7-1.8,8.1-3.6h-7.8v-1.8h8.5c0.1-0.6,0.2-1.2,0.3-1.8h-8.7V9.6h8.9
			V8.1h-6.9V6.2h6.9V4.7h-7.9V2.8h4.3c-0.3-0.7-0.9-1.6-1.5-2.3l1.8-0.8c0.8,0.8,1.5,1.9,1.8,2.7L166,2.8h6.2l-0.7-0.2
			c0.6-0.8,1.4-2,1.8-2.8l2.2,0.6c-0.6,0.9-1.2,1.7-1.8,2.4h4.6v1.9h-8v1.5h7.1v1.8h-7.1v1.6h8.9v1.9h-9.1c-0.1,0.6-0.2,1.2-0.3,1.8
			h9.6v1.8H171.4z"/>
		<path class="st0" d="M194.1,7.2c2.4,2.9,6.1,5.4,9.5,6.7c-0.5,0.5-1,1.3-1.3,1.9c-0.9-0.4-1.9-1-2.9-1.5v6.4h-2.1V20h-8.4v0.7h-2
			v-6.3c-0.9,0.5-1.9,1.1-2.8,1.5c-0.3-0.5-0.8-1.3-1.2-1.8c3.8-1.6,7.4-4.5,9.1-7H194.1z M185.7,6.2h-2.1V1.8h8.3v-2h2.2v2h8.4v4.4
			h-2.1V3.7h-14.7V6.2z M191.2,5.2c-1.5,2-3.7,3.9-5.8,5.1c-0.3-0.5-1-1.3-1.5-1.7c2-1,4-2.5,5.2-4.1L191.2,5.2z M197.6,13.1
			c-1.8-1.3-3.4-2.6-4.5-4c-1,1.3-2.5,2.7-4.2,4H197.6z M197.3,18.1v-3.2h-8.4v3.2H197.3z M196.3,4.5c2,1.2,4.5,2.9,5.8,4.2
			l-1.6,1.4c-1.2-1.3-3.7-3.2-5.7-4.4L196.3,4.5z"/>
		<path class="st0" d="M211.4,3.4c-0.4,1.9-1.1,6.1-1.1,8.6c0,0.8,0,1.6,0.1,2.4c0.4-0.9,0.8-2,1.2-2.9l1.1,0.9
			c-0.6,1.7-1.4,4.2-1.6,5.3c-0.1,0.3-0.1,0.8-0.1,1c0,0.2,0,0.6,0,0.8l-2.1,0.1c-0.5-1.6-0.8-4.3-0.8-7.3c0-3.4,0.7-7.2,1-9.1
			c0.1-0.6,0.2-1.3,0.2-1.9l2.5,0.2C211.7,2.1,211.5,3,211.4,3.4z M216.8,14.8c0,1,0.8,1.9,3.5,1.9c2,0,3.7-0.2,5.7-0.6l0,2.4
			c-1.4,0.3-3.3,0.5-5.7,0.5c-3.9,0-5.6-1.3-5.6-3.5c0-0.8,0.1-1.7,0.4-2.8l2,0.2C216.9,13.6,216.8,14.2,216.8,14.8z M225.4,3.3v2.3
			c-2.6,0.2-6.9,0.3-9.5,0l0-2.3C218.5,3.7,223,3.7,225.4,3.3z"/>
		<path class="st0" d="M248.5,8.4v2.4h2.5v2h-2.5v5.4c0,1.1-0.3,1.7-1,2.1c-0.8,0.3-2,0.3-3.7,0.3c-0.1-0.6-0.4-1.5-0.7-2.1
			c1.3,0,2.5,0,2.9,0c0.4,0,0.5-0.1,0.5-0.4v-5.4h-7.9v-1.2l-2.2,0.7v8.4h-2v-7.8c-1.3,0.4-2.5,0.7-3.6,1.1l-0.5-2
			c1.1-0.3,2.6-0.7,4.1-1.1V6.3h-1.8c-0.3,1.2-0.6,2.2-0.9,3.1c-0.3-0.3-1.1-0.7-1.5-1c0.8-1.8,1.2-4.7,1.4-7.4l1.8,0.3
			c-0.1,1-0.2,2-0.4,2.9h1.5v-4.4h2v4.4h2.1v2h-2.1v4l2.4-0.7l0.2,1.3h7.5V8.4h-8.3v-2h5.6V4h-4.2V2.1h4.2v-2.3h2.1v2.3h4.4V4h-4.4
			v2.5h5.4v2H248.5z M241.2,13.2c1.1,1,2.3,2.5,2.8,3.5l-1.7,1.1c-0.5-1-1.7-2.5-2.7-3.6L241.2,13.2z"/>
		<path class="st0" d="M262.3,0.9c-0.7,1.6-1.5,3.2-2.5,4.7v15.1h-2.1V8.5c-0.8,1.1-1.7,2-2.6,2.9c-0.2-0.5-0.9-1.7-1.3-2.2
			c2.5-2.1,5-5.5,6.4-9L262.3,0.9z M271.8,18.4c1.2,0,1.3-0.8,1.5-4c0.5,0.4,1.4,0.8,2,0.9c-0.3,3.8-0.9,5.1-3.4,5.1h-4.3
			c-2.6,0-3.3-0.8-3.3-3.5V0.4h2.1v8.1c2.4-1.3,4.7-3,6.3-4.4l1.5,1.8c-2.2,1.7-5.1,3.3-7.8,4.7v6.2c0,1.3,0.2,1.5,1.4,1.5H271.8z"
			/>
		<path class="st0" d="M285,3.7c-0.1,2.5-0.3,7.8-0.3,10.9c0,2.4,1.5,3.2,3.4,3.2c4,0,6.4-2.2,8-4.7l1.6,2c-1.5,2.2-4.6,5.1-9.7,5.1
			c-3.4,0-5.8-1.5-5.8-5.2c0-3.2,0.2-9.1,0.2-11.3c0-1-0.1-1.9-0.3-2.6l2.9,0C285.1,1.9,285,2.9,285,3.7z"/>
		<path class="st0" d="M311,2.9c-0.1,0.4-0.2,0.8-0.3,1.3c1.4-0.2,2.8-0.5,4.1-0.8v2.2c-1.4,0.3-3,0.6-4.6,0.8c-0.2,1-0.5,2-0.7,3
			c-0.8,3.2-2.4,7.9-3.6,10.4l-2.5-0.8c1.3-2.3,3-7,3.9-10.2c0.2-0.7,0.4-1.5,0.5-2.2c-0.7,0-1.3,0-1.8,0c-1,0-1.9,0-2.7-0.1l0-2.2
			c1.1,0.1,1.9,0.2,2.8,0.2c0.7,0,1.5,0,2.3-0.1c0.1-0.7,0.2-1.3,0.3-1.7c0.1-0.7,0.1-1.5,0.1-2l2.7,0.2
			C311.3,1.5,311.1,2.4,311,2.9z M313.7,15.4c0,1,0.6,2,3.5,2c1.5,0,3-0.2,4.5-0.5l-0.1,2.3c-1.2,0.2-2.8,0.3-4.5,0.3
			c-3.7,0-5.7-1.2-5.7-3.5c0-1,0.2-1.9,0.4-2.8l2.1,0.2C313.8,14.1,313.7,14.9,313.7,15.4z M317.4,7.6c1.3,0,2.7,0,4,0.2l-0.1,2.2
			c-1.2-0.2-2.5-0.3-3.9-0.3c-1.5,0-2.9,0.1-4.3,0.3V7.8C314.4,7.7,316,7.6,317.4,7.6z"/>
		<path class="st0" d="M327.3,14.8V8.5h-1.8v-2l2-0.1l0.3-3.4h2.2v3.4h3.2v2.1h-3.2v6.3c0,1.5,0.5,2.3,1.8,2.3c0.4,0,1-0.1,1.3-0.3
			l0.5,1.9c-0.7,0.2-1.5,0.5-2.5,0.5C328.3,19.2,327.3,17.5,327.3,14.8z"/>
		<path class="st0" d="M336.9,14.3V6.4h2.6V14c0,2.1,0.6,3,2.1,3c1.2,0,2-0.5,3-1.9V6.4h2.6v12.5H345l-0.2-1.9h-0.1
			c-1.1,1.3-2.4,2.2-4.1,2.2C338,19.2,336.9,17.5,336.9,14.3z"/>
		<path class="st0" d="M351.9,2.5c0-0.9,0.7-1.5,1.6-1.5c1,0,1.6,0.6,1.6,1.5c0,1-0.7,1.6-1.6,1.6C352.6,4.1,351.9,3.5,351.9,2.5z
			 M352.2,6.4h2.6v12.5h-2.6V6.4z"/>
		<path class="st0" d="M370.2,19.8l-1.3-2.1c0.8-0.1,1.5-0.2,2-0.3c2.9-0.7,5.5-2.8,5.5-6.4c0-3.3-2-5.9-5.5-6.3
			c-0.3,2-0.7,4.2-1.4,6.4c-1.4,4.6-3.2,7.2-5.5,7.2c-2.3,0-4.3-2.5-4.3-6.3c0-5.1,4.4-9.4,10.1-9.4c5.4,0,8.9,3.8,8.9,8.6
			C378.7,15.7,375.7,19,370.2,19.8z M364.1,15.4c1,0,2.1-1.5,3.1-5c0.6-1.8,1-3.9,1.2-5.9c-4.1,0.7-6.5,4.2-6.5,7
			C362,14.2,363.1,15.4,364.1,15.4z"/>
		<path class="st0" d="M398.5,14.6h4.9v1.6h-4.9v2.3c0,1-0.2,1.5-1,1.8c-0.8,0.3-2,0.3-3.7,0.3c-0.1-0.5-0.4-1.3-0.7-1.8
			c1.3,0,2.6,0,2.9,0c0.4,0,0.5-0.1,0.5-0.4v-2.3h-7.9c1.1,0.7,2.3,1.6,2.9,2.3l-1.5,1.3c-0.6-0.8-2-1.9-3.2-2.7l1.2-1h-5v-1.6h13.5
			v-1.2c-1.7,0-3.2,0-4.3,0c-2.3-0.1-4-0.7-5.1-2c-1.1,0.7-2.2,1.5-3.4,2.3l-0.8-1.7c0.9-0.4,2-1,3-1.7v-3H383V5.6h4.7v4.3
			c0.8,1.3,2.4,1.8,4.4,1.9c2.7,0.1,8.5,0,11.5-0.2c-0.2,0.4-0.5,1.2-0.6,1.7c-1.2,0-2.9,0.1-4.6,0.1V14.6z M386.7,4.3
			c-0.6-0.9-1.9-2.1-3-2.9l1.4-1.2c1.1,0.8,2.5,1.9,3.1,2.8L386.7,4.3z M394.4,4.2c0.1-0.3,0.2-0.6,0.2-1h-6V1.8h3.6
			c-0.2-0.5-0.6-1.1-0.9-1.6l1.7-0.4c0.5,0.6,0.9,1.4,1.2,2h3.5c0.4-0.6,0.9-1.4,1.1-2l2,0.4c-0.4,0.6-0.8,1.1-1.1,1.6h3.6v1.5h-6.7
			c-0.1,0.3-0.3,0.7-0.4,1h5.2v6.7h-11.1V4.2H394.4z M399.4,5.3h-7v0.8h7V5.3z M399.4,7.1h-7V8h7V7.1z M399.4,9h-7v0.9h7V9z"/>
		<path class="st0" d="M418.4,1.2c0,4.1,0.5,12.5,9.2,17.6c-0.5,0.4-1.3,1.3-1.7,1.8c-5.2-3.1-7.6-7.7-8.7-11.9
			c-1.7,5.5-4.5,9.4-8.7,12c-0.4-0.4-1.4-1.3-2-1.7c4.9-2.5,7.6-7,8.9-13.1l1.2,0.2c-0.2-1-0.3-1.9-0.3-2.7h-5.4V1.2H418.4z"/>
		<path class="st0" d="M444.6,3c0,0.5,0,1.2,0,2h3.2c0.7,0,1.6-0.1,2.1-0.2v2.4c-0.6,0-1.4,0-2,0h-3.3c0.1,3.4,0.2,7.6,0.2,10.5
			c0,1.3-0.8,2-2.3,2c-1.2,0-2.6-0.1-3.8-0.1l-0.2-2.3c1,0.2,2.3,0.2,3.1,0.2c0.6,0,0.8-0.3,0.8-0.9c0-1.7,0-4.5-0.1-7.3
			c-2,2.7-5.8,6.1-9.7,8.1l-1.6-1.9c4.5-2.2,8.4-5.7,10.2-8.4h-6.9c-0.8,0-1.6,0-2.3,0.1V4.8c0.6,0.1,1.5,0.2,2.3,0.2h7.9
			c0-0.8,0-1.4-0.1-2c0-0.9-0.1-1.5-0.2-2.1h2.6C444.6,1.6,444.6,2.4,444.6,3z"/>
		<path class="st0" d="M464.1,6.3c2.4-1.5,4.8-3.6,6.3-5.4l1.9,1.8c-1.7,1.7-3.9,3.5-6.1,5v9.4c0,0.9,0,2.2,0.2,2.7h-2.8
			c0.1-0.5,0.1-1.7,0.1-2.7V9.2c-2.4,1.3-5.4,2.6-8.4,3.5l-1.1-2.2C458.2,9.4,461.6,7.8,464.1,6.3z"/>
		<path class="st0" d="M479.2,12.7c0.7-2,0.7-6.4,0.7-9.1c0-0.8,0-1.3-0.2-1.8h2.6c0,0.2-0.1,1-0.1,1.8c0,2.6-0.1,7.4-0.7,9.7
			c-0.7,2.5-2.1,4.7-4,6.4l-2.2-1.5C477.3,16.8,478.6,14.8,479.2,12.7z M485.9,17V3.5c0-0.9-0.1-1.7-0.1-1.8h2.6
			c0,0.1-0.1,0.9-0.1,1.8v12.6c2-0.9,4.5-2.8,6.2-5.2l1.4,2c-1.9,2.6-5.1,4.9-7.7,6.3c-0.4,0.2-0.7,0.4-0.9,0.6l-1.5-1.2
			C485.9,18,485.9,17.5,485.9,17z"/>
		<path class="st0" d="M515.9,19.2c-0.9-0.5-1.9-1.2-3.1-2.1c-1.3,1.3-2.9,2.1-5.1,2.1c-3.5,0-5.6-1.9-5.6-4.6
			c0-2.2,1.7-3.6,3.5-4.7c-0.9-1.3-1.4-2.6-1.4-3.9c0-2.5,1.8-4.1,4.1-4.1c2.4,0,3.9,1.4,3.9,3.5c0,2.2-1.7,3.6-3.5,4.7
			c1.2,1.3,2.7,2.6,4.1,3.7c0.8-1.2,1.3-2.5,1.5-4.1h2.4c-0.4,2-1.2,3.8-2.3,5.5c1.1,0.9,2.1,1.5,2.8,1.9L515.9,19.2z M508,17.1
			c1.2,0,2.2-0.6,3.2-1.5c-1.6-1.4-3.2-2.8-4.4-4.3c-1.2,0.9-2.3,1.8-2.3,3.1C504.5,16.2,506,17.1,508,17.1z M507.5,8.7
			c1.5-0.9,2.7-1.8,2.7-3.2c0-1-0.7-1.8-1.7-1.8c-1.2,0-2.1,0.8-2.1,2.2C506.3,6.8,506.8,7.7,507.5,8.7z"/>
		<path class="st0" d="M535.8,15.2c1.5,2.2,4.3,3.3,8.4,3.6c-0.5,0.5-1,1.4-1.3,2c-4.8-0.6-7.7-2.2-9.4-5.4
			c-1.2,2.7-3.6,4.5-9.4,5.4c-0.2-0.5-0.7-1.4-1.1-1.9c4.8-0.7,7-1.8,8.1-3.6h-7.8v-1.8h8.5c0.1-0.6,0.2-1.2,0.3-1.8h-8.7V9.6h8.9
			V8.1h-6.9V6.2h6.9V4.7h-7.9V2.8h4.3c-0.3-0.7-0.9-1.6-1.5-2.3l1.8-0.8c0.8,0.8,1.5,1.9,1.8,2.7l-0.6,0.3h6.2l-0.7-0.2
			c0.6-0.8,1.4-2,1.8-2.8l2.2,0.6c-0.6,0.9-1.2,1.7-1.8,2.4h4.6v1.9h-8v1.5h7.1v1.8h-7.1v1.6h8.9v1.9h-9.1c-0.1,0.6-0.2,1.2-0.3,1.8
			h9.6v1.8H535.8z"/>
		<path class="st0" d="M559.4,7.2c2.4,2.9,6.1,5.4,9.5,6.7c-0.5,0.5-1,1.3-1.3,1.9c-0.9-0.4-1.9-1-2.9-1.5v6.4h-2.1V20h-8.4v0.7h-2
			v-6.3c-0.9,0.5-1.9,1.1-2.8,1.5c-0.3-0.5-0.8-1.3-1.2-1.8c3.8-1.6,7.4-4.5,9.1-7H559.4z M551,6.2h-2.1V1.8h8.3v-2h2.2v2h8.4v4.4
			h-2.1V3.7H551V6.2z M556.5,5.2c-1.5,2-3.7,3.9-5.8,5.1c-0.3-0.5-1-1.3-1.5-1.7c2-1,4-2.5,5.2-4.1L556.5,5.2z M563,13.1
			c-1.8-1.3-3.4-2.6-4.5-4c-1,1.3-2.5,2.7-4.2,4H563z M562.6,18.1v-3.2h-8.4v3.2H562.6z M561.6,4.5c2,1.2,4.5,2.9,5.8,4.2l-1.6,1.4
			c-1.2-1.3-3.7-3.2-5.7-4.4L561.6,4.5z"/>
		<path class="st0" d="M579.5,0.6c-0.6,1.6-1.4,3.1-2.2,4.6v15.5h-2V8.2c-0.7,0.9-1.4,1.8-2.1,2.5c-0.2-0.5-0.8-1.6-1.2-2.1
			c2.2-2.1,4.3-5.4,5.5-8.7L579.5,0.6z M588,12.7c1.4,2.2,3.5,4.3,5.6,5.4c-0.5,0.4-1.2,1.2-1.5,1.7c-1.9-1.3-3.8-3.4-5.3-5.6v6.6
			h-2.1v-6.4c-1.5,2.3-3.5,4.3-5.5,5.5c-0.3-0.5-1-1.3-1.5-1.7c2.2-1.1,4.4-3.2,5.9-5.4h-5.2v-1.9h6.3V8.3h-4.7V0.9h11.7v7.4h-4.9
			v2.5h6.1v1.9H588z M582,6.4h7.7V2.8H582V6.4z"/>
		<path class="st0" d="M600.6,10c-0.8-0.8-2.6-1.8-4-2.5l1.2-1.5c1.4,0.6,3.2,1.5,4,2.3L600.6,10z M602.1,13
			c-0.9,2.4-2.1,5.1-3.1,7.2l-1.9-1.2c1-1.7,2.3-4.6,3.3-7.2L602.1,13z M601.7,4.1c-0.8-0.8-2.5-1.8-3.9-2.4l1.2-1.5
			c1.4,0.5,3.1,1.5,4,2.2L601.7,4.1z M617.4,18.2v1.8h-15.7v-1.8h5.2v-7.9h2v7.9h1.9v-7.9h2v7.9H617.4z M604.7,17.3
			c-0.2-1.4-1-3.6-1.9-5.2l1.7-0.6c0.9,1.6,1.7,3.7,2,5.1L604.7,17.3z M615.9,9.7h-12V0.8h12V9.7z M613.8,2.6h-7.9v1.9h7.9V2.6z
			 M613.8,6.1h-7.9V8h7.9V6.1z M613.1,16.7c0.7-1.4,1.6-3.7,2.1-5.3l2,0.6c-0.8,1.8-1.7,4-2.5,5.3L613.1,16.7z"/>
		<path class="st0" d="M626.7,9.4c-2.2,0.4-4.1,0.8-5,1L621.2,8c1-0.1,3.1-0.5,5.4-0.9V3.5c0-0.7,0-1.6-0.2-2.3h2.7
			c-0.1,0.7-0.2,1.6-0.2,2.3v3.2c3.6-0.7,7.2-1.4,8.2-1.7c0.6-0.1,1-0.3,1.4-0.5l1.7,1.3c-0.2,0.3-0.5,0.7-0.6,1
			c-1,1.9-2.9,4.9-4.7,6.6l-2-1.2c1.6-1.5,3.2-3.8,3.9-5.1c-0.5,0.1-4.2,0.8-7.9,1.6v6.4c0,1.5,0.5,2,3.1,2c2.5,0,4.9-0.2,7.1-0.7
			l-0.1,2.5c-2,0.3-4.4,0.5-7.1,0.5c-4.7,0-5.4-1.2-5.4-3.6V9.4z"/>
		<path class="st0" d="M663.7,8.8c-0.6,2.2-1.7,4.5-3.3,6.4c-2.3,2.6-5.2,4-8.1,4.8l-1.8-2c3.3-0.7,6.1-2.2,7.9-4.1
			c1.3-1.3,2.1-3,2.5-4.5h-11.6c-0.5,0-1.5,0-2.4,0.1V7.1c0.9,0.1,1.7,0.2,2.4,0.2H661c0.6,0,1.2-0.1,1.5-0.2l1.6,1
			C663.9,8.3,663.7,8.6,663.7,8.8z M651.2,1.9h8.8c0.7,0,1.7,0,2.2-0.1v2.3c-0.6,0-1.5-0.1-2.3-0.1h-8.8c-0.7,0-1.5,0-2.2,0.1V1.8
			C649.6,1.9,650.5,1.9,651.2,1.9z"/>
		<path class="st0" d="M679,4.2c-0.7,2.2-2.7,8.6-3.9,11.6c3.1-0.3,6.9-0.7,9.4-1c-0.9-1.7-1.8-3.4-2.6-4.4l2.2-1
			c1.6,2.4,4,6.9,5,9.3l-2.4,1.1c-0.3-0.8-0.7-1.8-1.2-2.8c-3.6,0.4-10.9,1.2-13.8,1.5c-0.6,0.1-1.3,0.2-2,0.3l-0.4-2.6
			c0.7,0,1.6,0,2.3,0c0.3,0,0.6,0,0.9,0c1.3-3.2,3.4-10,4.1-12.3c0.3-1.1,0.4-1.7,0.5-2.4l2.8,0.6C679.6,2.5,679.4,3.2,679,4.2z"/>
	</g>
</g>
<g>
	<g>
		<line class="st1" x1="-0.1" y1="10.8" x2="93.2" y2="10.8"/>
	</g>
</g>
<g>
	<g>
		<line class="st1" x1="706.6" y1="10.8" x2="799.9" y2="10.8"/>
	</g>
</g>
</svg>
