<?xml version="1.0" encoding="utf-8"?>
<!-- Generator: Adobe Illustrator 25.4.1, SVG Export Plug-In . SVG Version: 6.00 Build 0)  -->
<svg version="1.1" id="レイヤー_1" xmlns="http://www.w3.org/2000/svg" xmlns:xlink="http://www.w3.org/1999/xlink" x="0px"
	 y="0px" viewBox="0 0 376 41" style="enable-background:new 0 0 376 41;" xml:space="preserve">
<style type="text/css">
	.st0{font-family:'HiraKakuProN-W6-83pv-RKSJ-H';}
	.st1{font-size:26.9921px;}
	.st2{letter-spacing:1;}
	.st3{fill:none;stroke:#000000;stroke-width:1.1733;stroke-miterlimit:10;}
</style>
<g>
	<path d="M111.2,11.2l-5.1,0.8l-0.1-3.5l9.2-1.3l0,2.3v22.1h-4V11.2z"/>
	<path d="M123.9,19.8c0-7.9,3.7-12.7,9.4-12.7c5.6,0,8.9,4.2,8.9,12c0,8-3.5,12.6-9.3,12.6C127.3,31.7,123.9,27.5,123.9,19.8z
		 M138,19.5c0-6.3-1.6-8.8-5-8.8c-3.1,0-4.9,2.9-4.9,8.7c0,6,1.8,8.8,5.1,8.8C136.2,28.2,138,25.4,138,19.5z"/>
	<path d="M151.3,31.5c-1.7-0.1-3-0.9-3-2.3s1.1-2.5,2.6-2.5c2.1,0,3.6,1.7,3.6,4.2c0,2.5-1.8,5.4-4,7h-3.1
		C149.6,36.2,151.6,33.5,151.3,31.5z"/>
	<path d="M160.7,19.8c0-7.9,3.7-12.7,9.4-12.7c5.6,0,8.9,4.2,8.9,12c0,8-3.5,12.6-9.3,12.6C164,31.7,160.7,27.5,160.7,19.8z
		 M174.7,19.5c0-6.3-1.6-8.8-5-8.8c-3.1,0-4.9,2.9-4.9,8.7c0,6,1.8,8.8,5.1,8.8C173,28.2,174.7,25.4,174.7,19.5z"/>
	<path d="M184.8,19.8c0-7.9,3.7-12.7,9.4-12.7c5.6,0,8.9,4.2,8.9,12c0,8-3.5,12.6-9.3,12.6C188.2,31.7,184.8,27.5,184.8,19.8z
		 M198.9,19.5c0-6.3-1.6-8.8-5-8.8c-3.1,0-4.9,2.9-4.9,8.7c0,6,1.8,8.8,5.1,8.8C197.1,28.2,198.9,25.4,198.9,19.5z"/>
	<path d="M209,19.8c0-7.9,3.7-12.7,9.4-12.7c5.6,0,8.9,4.2,8.9,12c0,8-3.5,12.6-9.3,12.6C212.3,31.7,209,27.5,209,19.8z M223,19.5
		c0-6.3-1.6-8.8-5-8.8c-3.1,0-4.9,2.9-4.9,8.7c0,6,1.8,8.8,5.1,8.8C221.2,28.2,223,25.4,223,19.5z"/>
	<path d="M235.5,6.4h25.1v23.3c0,2.5-0.9,3.3-3.5,3.3c-1.5,0-3.5-0.1-5.4-0.3l-0.7-3.4c1.6,0.2,3.6,0.4,4.9,0.4c1,0,1.3-0.3,1.3-1.2
		V21h-18.4v12.3h-3.4V6.4z M246.4,18.1V9.3h-7.5v8.7H246.4z M257.3,18.1V9.3h-7.7v8.7H257.3z"/>
	<path d="M271,21.2c0-5.4,1.6-10.9,4.8-15.4h4c-3.4,4.5-5.1,9.9-5.1,15.3c0,5.4,1.7,10.8,5.1,15.2h-4C272.6,32,271,26.7,271,21.2z"
		/>
	<path d="M290.2,22.2c-1.1,2.9-2.2,5.1-3.6,7l-1.6-3c2.2-2.6,3.6-5.4,4.9-9h-4.2v-2.8h4.5v-3.6c-1.3,0.2-2.5,0.4-3.5,0.5l-1.1-2.5
		c3.6-0.4,6.7-1.2,9.7-2.4L297,9c-1,0.4-2.7,0.8-4,1.1v4.2h4.1v2.8h-4.1v1.7c1.8,1.4,3.3,2.8,4.7,4.4L296,26c-1-1.5-1.8-2.5-2.9-3.7
		v11.8h-2.9V22.2z M295.5,31.8c3.9-1.8,5.3-4.3,5.4-9.3h-2.8v-9.8h7.4c1-1.9,1.9-4.3,2.5-6.5l3.2,1.1c-1,2.2-1.8,3.9-2.8,5.5h3.9
		v9.8h-3.6v7.3c0,0.7,0.2,0.8,1.1,0.8c1.5,0,1.5-0.1,1.7-4.2l2.7,0.9c-0.2,5.7-0.6,6.4-4.4,6.4c-3.1,0-3.8-0.4-3.8-2.2v-9h-2.1
		c-0.1,6.3-1.7,9.3-6.2,11.6L295.5,31.8z M298.6,7.7l2.8-1.1c0.9,1.3,1.8,2.8,2.6,4.7l-2.9,1.3C300.4,10.7,299.7,9.1,298.6,7.7z
		 M309.3,19.9v-4.6H301v4.6H309.3z"/>
	<path d="M319.7,30.8c1.5-0.8,2.9-1.8,4.7-3.3v-6.7h-4.3v-2.9h7.3v9.5c0.8,1,2,1.8,3.4,2.3c1.5,0.5,3.6,0.7,7.8,0.7
		c2.9,0,6-0.1,9.8-0.4c-0.5,1-0.8,1.9-1,3.2c-3.4,0.2-5.6,0.2-8,0.2c-6,0-8.4-0.4-10.6-1.6c-0.9-0.4-1.8-1.3-2.6-2.4
		c-1.4,1.8-2.8,3.3-4.4,4.7L319.7,30.8z M320.9,9.1l2.3-1.9c1.9,1.6,3.5,3.3,4.9,5.1l-2.5,2.2C324.3,12.5,322.6,10.7,320.9,9.1z
		 M328.7,26.2c4.7-3.1,7.2-8.2,7.7-15.8h-5.9V7.5h9v1.8c0,7.3,2.7,12.9,8.1,16.6l-2.2,2.9c-4-3-6.4-6.7-7.6-11.5
		c-1,5-3.5,9-7.2,11.6L328.7,26.2z"/>
	<path d="M358.7,21c0-5.4-1.7-10.8-5.1-15.1h4c3.2,4.3,4.8,9.7,4.8,15.1c0,5.4-1.6,10.9-4.8,15.4h-4C357,31.9,358.7,26.5,358.7,21z"
		/>
</g>
<g>
	<g>
		<text transform="matrix(1 0 0 1 19.6362 30.1678)" class="st0 st1 st2">定価</text>
	</g>
	<path d="M76.4,39.2H19.6C9,39.2,0.5,30.6,0.5,20.1S9,1,19.6,1h56.8c10.5,0,19.1,8.6,19.1,19.1S86.9,39.2,76.4,39.2z M19.6,2.2
		c-9.9,0-17.9,8-17.9,17.9C1.6,30,9.7,38,19.6,38h56.8c9.9,0,17.9-8,17.9-17.9c0-9.9-8-17.9-17.9-17.9H19.6z"/>
</g>
<line class="st3" x1="103.6" y1="21.5" x2="377" y2="21.5"/>
</svg>
