<?xml version="1.0" encoding="utf-8"?>
<!-- Generator: Adobe Illustrator 25.4.1, SVG Export Plug-In . SVG Version: 6.00 Build 0)  -->
<svg version="1.1" id="レイヤー_1" xmlns="http://www.w3.org/2000/svg" xmlns:xlink="http://www.w3.org/1999/xlink" x="0px"
	 y="0px" viewBox="0 0 688 96" style="enable-background:new 0 0 688 96;" xml:space="preserve">
<style type="text/css">
	.st0{fill:#231815;}
	.st1{fill:#FFFF00;}
</style>
<rect x="6.9" y="6.6" class="st0" width="680.6" height="89.1"/>
<rect x="0.5" y="0.2" class="st1" width="680.6" height="89.1"/>
<g>
	<path d="M145.3,55.5c0,3.3,0,4.3,0.1,5.4c-0.9-0.1-1.3-0.1-2.6-0.1c1.3,3.7,2.7,6.6,4.9,9.6c-2.1,1.1-3.8,2.2-6.9,4.7
		c-1.9-3.3-3-5.6-4.4-9.6c-1.5,4.6-2.7,7.3-5.4,10.9c-2.6-2.3-4.4-3.5-7-5c2.7-3.6,4.1-6.3,5.4-10.7c-1.5,0-1.9,0-3.2,0.1
		c0.2-2.3,0.3-4.6,0.3-6.9V24.7c0-2.2-0.1-3.9-0.3-5.9c1.5,0.2,2.8,0.3,5.4,0.3h8.7c2.5,0,3.7-0.1,5-0.3c-0.1,1.5-0.2,2.5-0.2,5.2
		V55.5z M141.5,60.7H131l5.4,2.6L141.5,60.7z M134.5,31h3.5v-3.6h-3.5V31z M134.5,41.6h3.5V38h-3.5V41.6z M134.5,52.4h3.5v-3.6h-3.5
		V52.4z M150.8,42.8c-1.8,0-3,0.1-4.5,0.3V36c1.2,0.2,2.5,0.3,4.5,0.3h2.1v-1.9h-1.3c-1.2,0-2.9,0.1-3.7,0.2v-5.9
		c0.2,0.1,0.3,0.1,0.4,0.1c0.3,0.1,1.5,0.1,3.3,0.1h1.3v-1.8h-2.1c-1.6,0-2.6,0.1-3.8,0.2v-6.7c1.3,0.2,2.3,0.3,4.2,0.3h1.8
		c0-1.9-0.1-2.3-0.3-3.4h9.5c-0.3,0.9-0.4,1.6-0.4,3.4h5.3c0-2.1-0.1-2.3-0.3-3.4h9.5c-0.3,1.1-0.4,1.6-0.4,3.4h3.4
		c1.8,0,2.8-0.1,3.8-0.3v6.7c-1.2-0.1-2.2-0.2-3.8-0.2h-3.4v1.8h2.5c1.4,0,2.6-0.1,3.5-0.2v5.9c-0.9-0.1-2.5-0.2-3.7-0.2h-2.3v1.9
		h3.7c2.3,0,3.5-0.1,4.3-0.3v7.1c-1.1-0.2-2.2-0.3-4.3-0.3h-10.5v1.8h6.6c2.6,0,4.5-0.1,5.5-0.3c-0.3,3.1-0.3,3.1-0.3,4.2V59
		c1.5,0,2.1-0.1,3-0.3V67c-1.1-0.1-1.6-0.2-3-0.3c0,0.8,0,1.6,0,2c0,4-0.4,5.5-2.1,6.4c-1.3,0.7-3.1,0.9-7.4,0.9
		c-0.6,0-0.6,0-3.8-0.1c-0.3-3.3-0.6-4.5-1.5-7.1c1.6,0.3,3,0.4,4.2,0.4c1.6,0,2.1-0.3,2.1-1.2v-1.4h-15.4v1c0,4.7,0.1,5.9,0.3,8.6
		H148c0.3-2.6,0.3-4,0.3-8.6v-1c-1,0.1-1.5,0.1-2.3,0.3v-8.1c0.8,0.1,1.3,0.1,2.3,0.2V50c0-2.8-0.1-4.1-0.2-5.5
		c1.5,0.1,2.9,0.2,5,0.2h6.6v-1.8H150.8z M160.6,50.5h-3.7v2.1h3.7V50.5z M160.6,57.6h-3.7v2.2h3.7V57.6z M161.7,28.9h5.3v-1.8h-5.3
		V28.9z M161.7,36.3h5.3v-1.9h-5.3V36.3z M172.2,52.7v-2.1h-4v2.1H172.2z M172.2,59.8v-2.2h-4v2.2H172.2z"/>
	<path d="M193.7,26.9c1.5,0.3,2.7,0.3,5.1,0.3h11.6c2.6,0,3.7-0.1,5.1-0.2v8.4c-1.2-0.1-2-0.2-5-0.2h-11.7c-2.3,0-3.5,0.1-5.1,0.3
		V26.9z M215.2,71.1c0,2.2,0,3,0.1,4h-8.1v-1.6h-3.4v2.6h-8.7c0.2-2.1,0.3-4.2,0.3-6.2V59.9c0-2-0.1-3-0.3-4.7
		c1.1,0.1,1.9,0.1,4.5,0.1h12c1.5,0,2.6-0.1,3.7-0.2c-0.1,0.9-0.1,1.8-0.1,4.2v7.8c5.5-2.6,7.3-5.4,7.7-11.5h-7.2
		c0.3-1.7,0.3-3.1,0.3-5.3v-3.8c0-2.4-0.1-3.5-0.3-4.9c1.5,0.2,2.8,0.3,5.5,0.3h25.9c2.7,0,4-0.1,5.6-0.3c-0.2,1.3-0.3,2.5-0.3,4.9
		v3.9c0,2.3,0.1,3.7,0.3,5.2h-9.4v-6.1h-18.9v1.9l7.6,0.1c-0.1,0.8-0.1,1.2-0.3,3.3c-0.3,7.1-1.6,11.2-4.5,14.8
		c-1.9,2.3-5.2,4.8-8.7,6.6c-1.1-2.3-1.8-3.5-3.5-5.9V71.1z M195.7,18.1c1.8,0.2,2.7,0.3,5.6,0.3h8.1c2.9,0,3.8-0.1,5.6-0.3v7.4
		c-1.6-0.1-3-0.2-5.6-0.2h-8.1c-2.6,0-3.8,0.1-5.6,0.2V18.1z M195.7,37.3c1.3,0.1,1.8,0.1,3.7,0.1h11.6c2,0,2.4,0,3.5-0.1v7.1
		c-1.1-0.1-1.6-0.1-3.5-0.1h-11.6c-2,0-2.4,0-3.7,0.1V37.3z M195.7,46.2c1.1,0.1,1.8,0.1,3.7,0.1H211c2,0,2.5,0,3.6-0.1v7.1
		c-0.9-0.1-1.8-0.1-3.7-0.1h-11.5c-1.8,0-2.5,0-3.6,0.1V46.2z M203.6,66h3.7v-3.9h-3.7V66z M222.9,29.4c-3,0-4.5,0.1-6.2,0.3V21
		c1.8,0.3,3.5,0.3,6.9,0.3h5.7c0-1.8-0.1-3-0.3-4.4h10c-0.3,1.1-0.4,2.3-0.4,4.4h6.9c3.6,0,5.4-0.1,7.3-0.3v8.6
		c-1.8-0.2-3.2-0.3-6.2-0.3h-7.9v2.6h6.1c2.8,0,4-0.1,5.9-0.3v8.1c-1.7-0.2-3-0.3-5.9-0.3h-20.9c-2.9,0-4.2,0.1-5.9,0.3v-8.1
		c1.9,0.2,3,0.3,5.9,0.3h5.5v-2.6H222.9z M242.6,51.4c-0.3,1.2-0.3,2.2-0.3,3.7v11c0,0.9,0.3,1.1,1.5,1.1c0.9,0,1.5-0.2,1.7-0.6
		c0.3-0.5,0.4-2.1,0.4-5.2c0-0.4,0-1.3,0-2.3c2.9,1.5,4.9,2.2,7.8,2.8c-0.4,6.9-0.7,9-1.5,10.7c-1.1,2.2-3.6,3.2-8.3,3.2
		c-5.4,0-7.5-0.3-8.8-1.5c-1.1-0.9-1.6-2.3-1.6-4.7V55c0-1.6-0.1-2.6-0.3-3.7H242.6z"/>
	<path d="M272.6,42.2c-3.3,0-5.7,0.1-8,0.4v-9.3c2,0.3,4.5,0.4,8.2,0.4h12.9v-3.2h-8.8c-3.3,0-5.5,0.1-7.3,0.3v-8.9
		c1.8,0.3,4.5,0.4,7.8,0.4h8.3c0-2.5-0.1-3.6-0.4-5.2h10.5c-0.3,1.6-0.4,2.6-0.4,5.2h2.9c3,0,5.3-0.1,7.2-0.4v5.5
		c2.5-2.7,5.4-6.7,6.6-8.9l8.6,5.6c-0.8,0.8-1.1,1.1-2.8,3.1c-2.4,2.8-3.7,4.2-6.3,6.6h3c3.3,0,5.4-0.1,7.5-0.4v9.3
		c-2-0.3-4.9-0.4-8.5-0.4h-13.7c-1.3,0.9-1.7,1.3-4,2.8c1.8,0,1.8,0,3.8,0h9.3c3.1,0,4.9-0.1,6.6-0.2c-0.2,1.9-0.3,3.6-0.3,6.9v16.8
		c0,3.3,0.1,5.9,0.4,7.6h-10v-2.5h-20.2v2.5h-10c0.3-2.4,0.4-4.9,0.4-7.6v-10c0-0.4,0-0.5,0-1.4c-5.2,2.4-5.2,2.4-7.6,3.3
		c-1.6-3.8-2.6-5.6-5-8.8c8.3-2.3,15.8-5.5,22.8-9.5H272.6z M285.4,55.3h20.2v-2.6h-20.2V55.3z M285.4,65.7h20.2v-2.8h-20.2V65.7z
		 M298.6,33.7c1.4-1.1,2.2-1.8,3.7-3.2c-1.3-0.1-1.7-0.1-3-0.1h-3.9v3.2H298.6z"/>
	<path d="M375.5,71c0,3.7-2.8,5.4-9.1,5.4c-0.3,0-1.7-0.1-4.4-0.1c-0.4-3.5-0.9-5.7-1.8-7.8c-5.1,3.7-5.3,3.8-6.7,5l-3.5-9.3
		c2.1-0.6,4.2-1.7,7.7-3.8c-1.5-2.3-2.9-4.2-4.9-6.3l5.3-4c-1.7,0.1-2.8,0.2-4.2,0.4v-5c-1.1,2.1-1.7,4-2.8,7.6
		c-1.1-1.7-1.3-2.2-2.3-4.7c0.1,3.3,0.1,4.9,0.1,6.6v13.4c0,3.2,0.1,5.9,0.4,8.1h-9.8c0.3-2.3,0.4-5,0.4-8.1v-8.3c0-0.2,0-0.7,0-1.5
		c0-0.3,0.1-0.8,0.1-1.4c0-1.5,0.1-2,0.1-3.3c-1.5,4.4-2.7,6.9-4.8,10.1c-1.1-4.7-2-7-3.8-10.7c3.6-4.5,6.4-10.8,7.6-16.8h-2
		c-1.8,0-3,0.1-4,0.3v-9.3c1.1,0.3,2.1,0.3,4,0.3h2.7v-4c0-3-0.1-4.9-0.4-6.6h9.9c-0.3,1.8-0.4,3.8-0.4,6.6v4h1.3
		c1.4,0,2-0.1,3.2-0.3v9.2c-1.1-0.2-2-0.3-3.2-0.3h-1.1c0.9,2.6,2.6,5.1,4.9,7.5v-1.8c1.5,0.3,3.7,0.4,7.3,0.4h5.4v-2.2h-4.7
		c-3.6,0-4.5,0-6.4,0.2v-6.9c2.2,0.2,2.9,0.2,6.3,0.2h4.7v-2.1h-5.5c-3.1,0-4.7,0.1-6.6,0.3v-7.8c1.8,0.2,3,0.3,5.2,0.3
		c-0.8-1.8-1.5-3.2-3-5.2l8.7-2.6c2,3.3,2.4,4.4,3.8,7.9h3.8c1.9-3.5,2.4-4.7,3.2-7.7l9.8,2.1c-1.8,3.5-2.1,4-3.2,5.5h0.6
		c2.8,0,4.7-0.1,6.8-0.3v7.8c-2.1-0.2-3.7-0.3-6.6-0.3h-8.1v2.1h6.2c3.8,0,4.9-0.1,6.9-0.3v7.1c-1.8-0.2-3-0.3-7-0.3h-6.1v2.2h8.3
		c2.8,0,5.2-0.1,7.3-0.3v8.1c-2.6-0.2-4.4-0.3-6.6-0.3l5.9,4.6c-2.1,2.6-3.8,4.3-6.3,6.4c2.8,2.3,4.7,3.5,8.1,5.2
		c-2.4,3-3.8,5.2-5.5,8.8c-5.7-3.8-8.7-7.1-11.6-13c0,0.4,0,0.8,0,1c0.1,1.6,0.1,2.5,0.1,2.8V71z M365.3,64.7c-2,1.6-2.7,2.1-4,3.2
		c1.8,0.2,2.7,0.3,3.7,0.3c1.5,0,1.8-0.3,1.8-1.5V50h-7.1c2.7,2.6,4.2,4.5,6.1,7.5l-2.6,2.1L365.3,64.7z M376.2,50
		c0.8,2,1.5,3.2,2.8,5.2c1.7-1.5,3.2-3.1,4.7-5.2H376.2z"/>
	<path d="M427.4,25.8c-0.1,0.1-0.1,0.1-0.2,0.5c0,0.1-0.1,0.2-0.1,0.4c-0.9,3.2-3.1,8.6-5.2,13.1c3.8,6.1,4.8,9,4.8,13.9
		c0,3.5-1.6,6.4-4.4,7.8c-1.7,0.8-4,1.2-7.1,1.3c-0.2-4.5-0.5-6.2-1.6-9.1c0.8,0.1,1.1,0.2,1.7,0.2c1.9,0,2.4-0.4,2.4-2.1
		c0-2.8-0.8-5.7-2.1-8.2c-0.5-0.9-0.8-1.3-2.1-3.1v27.2c0,3.1,0.1,5.8,0.3,8.6h-10c0.3-2.1,0.4-5.2,0.4-8.6V25.5
		c0-1.5-0.1-3.8-0.3-6.9c1.4,0.2,2.4,0.3,5,0.3h9.8c2.9,0,3.9-0.1,4.8-0.3l3.8,5.3c-0.1-2.5-0.1-2.5-0.3-5c1.6,0.2,2.8,0.3,5.9,0.3
		h19.9c3,0,3.8-0.1,5.7-0.3c-0.2,1.3-0.3,3.3-0.3,7.1v16c0,3.3,0.1,4.5,0.3,7.1c-1.5-0.1-1.5-0.1-3-0.1l6.4,5.2
		c-0.3,0.3-0.5,0.4-3.2,2.8c-1.3,1.1-3.3,2.8-5,4c2.7,3,5,4.7,8.8,6.7c-2.1,2.8-3.3,5-4.8,9.3c-3.1-1.8-4.4-2.8-6.4-4.7
		c-2.2-2-3.8-3.7-5.2-5.7V71c-4.9,1.3-12.2,3.1-16.7,4c-4.2,0.8-5.8,1.2-6.9,1.6l-1.5-10c1.3,0,2.6-0.2,6.4-0.7V25.8z M413.4,39.6
		c2.1-4.3,2.9-6.6,4.4-12.2h-4.4V39.6z M436.6,30.2h12.5v-2.8h-12.5V30.2z M436.6,40.9h12.5v-3.1h-12.5V40.9z M436.6,64.2
		c2.6-0.5,4.8-1,7.1-1.6c-2.3-4.2-3.5-8-4.5-13.8h-2.6V64.2z M447.9,48.7c0.4,2.2,0.6,3.1,1.3,4.7c1.8-1.4,4.1-3.6,5-4.7H447.9z"/>
	<path d="M497.5,43.9h-11.2c-3,0-4.9,0.1-6.6,0.3v-5.4h-7.1c0.3-1.7,0.3-3.2,0.3-5.5v-5.9c0-1.6-0.1-3.2-0.3-5
		c2.5,0.2,4.9,0.3,7.6,0.3h15.4v-1.3c0-1.6-0.1-2.9-0.3-4.1h10.7c-0.3,1.4-0.3,2.3-0.3,4v1.3h16.1c2.6,0,5-0.1,7.5-0.3
		c-0.2,1.8-0.3,3.2-0.3,5v5.9c0,2,0.1,3.6,0.3,5.5h-7v5.4c-1.9-0.2-3.5-0.3-6.7-0.3h-8.8v5.9H518c3.3,0,4.6-0.1,6.5-0.3v9.1
		c-1.9-0.2-3.4-0.3-6.5-0.3h-11.2v7.6c2.4,0.2,4.2,0.3,6.4,0.3c5.5,0,10.1-0.2,17.7-0.8c-1.1,3.8-1.6,6.1-2.1,9.8
		c-6.6,0.2-9.1,0.3-12.7,0.3c-10.1,0-16.2-0.7-20.4-2.4c-3.9-1.6-6.9-3.8-9.5-7.1c-2.4,4.5-4.3,7.2-7.7,10.9c-2.2-3-4.1-4.7-7.6-7.4
		c5.4-5.3,8.3-9.8,10.3-16.6c0.7-2.2,1.4-5,1.5-6.3l9.6,1.8c-0.4,1.6-0.6,2.6-0.8,3.1c-0.4,1.5-0.9,3.4-1.8,5.9c1.5,2.2,2,2.8,3.2,4
		c1.4,1.2,2.6,2,4.4,2.8V43.9z M519.7,31.3h-37.5v4c1.4,0.1,2.3,0.1,4.1,0.1h29.3c1.8,0,2.7,0,4.2-0.1V31.3z"/>
	<path d="M545,56.4c0.1-1.5,0.1-1.8,0.1-3.3c0-0.7,0-0.7-0.3-4.5l-1.3-20c-0.2-3.2-0.5-6.6-0.8-8.5h14.7c-0.3,2.5-0.5,5.1-0.8,8.5
		l-1.3,20c-0.1,2.5-0.2,4-0.2,5c0,0.7,0,1.3,0.1,2.8H545z M543.9,72.6V60.7h12.7v11.9H543.9z"/>
</g>
</svg>
