<?xml version="1.0" encoding="utf-8"?>
<!-- Generator: Adobe Illustrator 25.4.1, SVG Export Plug-In . SVG Version: 6.00 Build 0)  -->
<svg version="1.1" id="レイヤー_1" xmlns="http://www.w3.org/2000/svg" xmlns:xlink="http://www.w3.org/1999/xlink" x="0px"
	 y="0px" viewBox="0 0 800 150" style="enable-background:new 0 0 800 150;" xml:space="preserve">
<style type="text/css">
	.st0{fill:#E0172A;}
	.st1{fill:#FFFF00;}
	.st2{fill:#00A141;}
</style>
<g>
	<g>
		<path class="st0" d="M41.4,1.6v11.2H20.5V27l1.2-0.1h1c4,0,7.7,0.9,11,2.6c3.3,1.7,5.8,4.2,7.7,7.4c1.8,3.2,2.8,6.7,2.8,10.6
			c0,6.2-2.1,11.3-6.3,15.2c-4.2,3.9-9.7,5.8-16.5,5.8c-6.1,0-11.4-1.2-16.1-3.7V53.7c4.9,3,9.6,4.5,14.1,4.5c3.5,0,6.5-1,8.8-3
			c2.4-2,3.5-4.5,3.5-7.5c0-3.4-1.4-6.1-4.1-8C25,37.9,21.3,37,16.7,37c-2.2,0-4.6,0.3-7.3,0.9V1.6H41.4z"/>
		<path class="st0" d="M62.4,54.7c2.5,0,4.5,0.9,6.1,2.8c1.5,1.8,2.3,4.3,2.3,7.5c0,4.1-1.4,7.8-4.1,11s-6.2,5.1-10.3,5.8v-2.5
			c3-2.6,4.5-5.9,4.5-10v-0.7l-0.1-0.8c-3.6-0.7-5.3-2.8-5.3-6.5c0-1.9,0.7-3.4,2-4.7C58.7,55.4,60.4,54.7,62.4,54.7z"/>
		<path class="st0" d="M100.3,0.8c6.7,0,12,3,15.9,9c3.9,6,5.9,14.2,5.9,24.7c0,10.5-1.9,18.8-5.8,24.9c-3.9,6.1-9.2,9.1-15.9,9.1
			c-6.8,0-12.2-3-16.1-9.1c-4-6-5.9-14.3-5.9-24.8c0-10.5,2-18.7,5.9-24.8C88.1,3.8,93.5,0.8,100.3,0.8z M90.6,35
			c0,15.1,3.2,22.6,9.7,22.6c6.3,0,9.5-7.9,9.5-23.8c0-14.8-3.2-22.3-9.6-22.3C93.8,11.6,90.6,19.4,90.6,35z"/>
		<path class="st0" d="M151.4,0.8c6.7,0,12,3,15.9,9c3.9,6,5.9,14.2,5.9,24.7c0,10.5-1.9,18.8-5.8,24.9c-3.9,6.1-9.2,9.1-15.9,9.1
			c-6.8,0-12.2-3-16.1-9.1c-4-6-5.9-14.3-5.9-24.8c0-10.5,2-18.7,5.9-24.8C139.2,3.8,144.6,0.8,151.4,0.8z M141.7,35
			c0,15.1,3.2,22.6,9.7,22.6c6.3,0,9.5-7.9,9.5-23.8c0-14.8-3.2-22.3-9.6-22.3C144.9,11.6,141.7,19.4,141.7,35z"/>
		<path class="st0" d="M202.5,0.8c6.7,0,12,3,15.9,9c3.9,6,5.9,14.2,5.9,24.7c0,10.5-1.9,18.8-5.8,24.9c-3.9,6.1-9.2,9.1-15.9,9.1
			c-6.8,0-12.2-3-16.1-9.1c-4-6-5.9-14.3-5.9-24.8c0-10.5,2-18.7,5.9-24.8C190.3,3.8,195.7,0.8,202.5,0.8z M192.8,35
			c0,15.1,3.2,22.6,9.7,22.6c6.3,0,9.5-7.9,9.5-23.8c0-14.8-3.2-22.3-9.6-22.3C196,11.6,192.8,19.4,192.8,35z"/>
		<path class="st0" d="M239.4,61.1c0,3.3,0,5,0.2,6.3h-8.3c0.2-1.9,0.4-3.8,0.4-6.5V27.6c0-2.3-0.1-3.6-0.2-5.1
			c1.8,0.1,3.3,0.2,6.5,0.2h30.3c3.3,0,4.9,0,6.3-0.2c-0.2,1.5-0.2,3-0.2,6.3v32.3c0,2.9-1.2,4.8-3.4,5.4c-1.1,0.3-3,0.5-5.6,0.5
			c-1.3,0-3.4,0-5.7-0.1c-0.4-2.8-1-4.6-2.3-7.4c3.3,0.3,5.5,0.5,7,0.5c1.9,0,2.3-0.2,2.3-1.1v-9.2h-27.2V61.1z M249,29.9h-9.6v12.6
			h9.6V29.9z M266.6,42.5V29.9h-10.1v12.6H266.6z"/>
		<path class="st0" d="M292.6,68c-2.9-5.2-3.9-7-4.7-9.2c-1.6-4.1-2.6-9.4-2.6-14.3c0-4.2,0.6-8.6,1.9-12.5
			c1.1-3.6,2.4-6.2,5.5-11.4h9.2c-3.8,5.9-5.2,8.8-6.4,13.2c-0.9,3.4-1.3,7-1.3,10.5c0,4.8,0.9,10.1,2.5,14.2
			c1.1,2.7,2.2,4.8,5.2,9.5H292.6z"/>
		<path class="st0" d="M334.6,48c-0.1,4.3-0.4,6.6-1.3,9.2c-1.5,4.6-4.2,7.9-8.8,10.7c-1.4-2.3-2.5-3.7-5-6.1
			c5.7-2.9,8-6.9,8.1-13.8c-1.3,0-2.1,0-3.3,0.1c-1.3,2.7-1.7,3.8-2.7,6.6c-1.1-1.3-1.9-2.5-3-4.4c0.1,0.9,0.1,1,0.1,2.1l0,1.7v7.1
			c0,3.1,0,4.6,0.3,6.5h-7.9c0.2-2,0.3-3.6,0.3-6.5v-5.3c0-1.1,0.1-3.2,0.1-4.3c-1.3,3.6-2.2,5.3-4.4,8.1c-0.9-3.3-1.7-5-3.1-7.5
			c3.1-3.5,5.4-7.6,6.6-11.6h-1.8c-1.8,0-2.5,0-3.8,0.2v-7.3c1.2,0.2,1.9,0.2,3.8,0.2h2.6v-3.4c-1.5,0.2-2.1,0.3-4.2,0.6
			c-0.5-2.4-1.1-4-2.5-6.6c5.6-0.6,9.3-1.4,13.5-3.1c0.7-0.2,1.5-0.7,2.1-1l4.3,6.2c-0.5,0.2-0.5,0.2-1.4,0.6c-1,0.5-2.8,1-4.5,1.5
			v5.2h0.7c1.7,0,2.5,0,3.5-0.2v7.2c-0.9-0.2-1.8-0.2-3.5-0.2h-0.5c1.6,3.1,2.8,4.8,5.1,6.9c0.1-1.1,0.1-1.9,0.1-3.2V34.3
			c0-1.2,0-2.4-0.1-3.7c1.4,0.2,2.2,0.2,4,0.2h0.5c-1.2-3-2.2-5.1-3.8-7.6l6.9-2.8c1.8,3,2.9,5.3,4,8.1l-5,2.2h6.8
			c1.8-3.9,2.8-6.5,3.7-10.3l7.8,2.2c-0.6,1.3-0.6,1.3-2.1,4.6c-0.5,1-1,2.1-1.8,3.4c2.3,0,2.9,0,4.4-0.2c-0.1,1.2-0.2,2.1-0.2,3.7
			v10.2c0,1.6,0,2.5,0.2,3.8c-1.4-0.1-2.4-0.2-4.1-0.2H344v11.5c0,0.6,0.1,0.8,1,0.8c1.2,0,1.2,0,1.2-6.2c2,1.3,3.6,2,5.6,2.5
			c-0.4,6-0.6,7.7-1.5,8.9c-1,1.4-2.7,1.8-7.2,1.8c-5,0-6.4-1-6.4-4.9V48H334.6z M331.3,41.1h10.5v-3.5h-10.5V41.1z"/>
		<path class="st0" d="M367.7,51.9c3.7-2.7,6.6-5.9,8.7-9.6c1.3-2.3,2.4-5.4,3.1-8.3c0.3-1.2,0.4-1.8,0.8-4.7h-4.7
			c-1.7,0-2.9,0-4.2,0.2V22c1,0.2,2.1,0.2,4.2,0.2h9.2c1.6,0,2.6,0,3.6-0.2c0,0.9-0.1,2-0.1,2.8c0,4.4,1,9.1,2.8,13.4
			c1.3,2.9,2.7,5.2,4.6,7.4c1.8,2.1,3.2,3.3,6.1,5.3c-2,2.5-3.1,4.2-4.4,7.6c-3.2-2.3-5.2-4.3-7.5-7.2c-2.2-2.9-3.5-5.3-5.2-9.9
			c-1.5,4.6-2.7,7.1-5,10.1c-1.9,2.5-3.5,4.1-6.7,6.7c-1.6-2.7-2.7-4-5.2-6v3.6c0.4,0.9,0.6,1.2,1.5,1.9c2.2,1.7,4.6,2.1,12.3,2.1
			c8.3,0,15.3-0.3,20.8-1.1c-1,3.1-1.4,4.8-1.8,8.1c-3.5,0.1-13.5,0.3-18.2,0.3c-11.5,0-14.8-0.9-18.6-5.1c-1.4,1.4-2.7,2.5-5.1,4.4
			c-0.2,0.2-0.3,0.2-1,0.8c-0.2,0.2-0.3,0.3-0.6,0.4l-3.2-8c1.3-0.4,3.7-1.8,6.6-3.8v-9.4h-2.4c-1.1,0-1.8,0-3.1,0.2V39
			c1.4,0.2,2.2,0.2,4.1,0.2h5.1c1.5,0,2.7-0.1,3.8-0.2c-0.1,1.5-0.2,2.7-0.2,5.6V51.9z M360.1,21.1c4.1,3.4,6.8,6,9.3,9.2l-5.8,5.8
			c-3.2-4.1-5.1-6.2-9.2-9.6L360.1,21.1z"/>
		<path class="st0" d="M403.8,68c4.1-6.4,5.4-9.1,6.5-13.5c0.8-3.3,1.3-7,1.3-10.7c0-4.6-1-10.1-2.8-14.3c-1.1-2.7-2.2-4.7-5-9h9.2
			c3.4,5.6,4.7,8.5,5.9,12.7c1,3.7,1.5,7.2,1.5,11c0,5.1-0.9,10.4-2.6,14.5c-0.8,2.2-1.8,4-4.7,9.2H403.8z"/>
	</g>
	<g>
		<g>
			<path class="st0" d="M302.9,90.1v57.4H4.9V90.1H302.9 M304.6,88.4H3.2v60.8h301.5V88.4L304.6,88.4z"/>
		</g>
		<rect x="134.1" y="88.4" class="st0" width="290.2" height="60.8"/>
		<g>
			<path class="st1" d="M177.5,114.5c0,0.2,0,0.7-0.1,1.4c2-1.5,4.4-2.2,7.3-2.2c4,0,7.3,1.3,9.7,3.7c2.2,2.3,3.4,5.2,3.4,9
				c0,8.6-5.7,13.8-15.2,13.8c-5.7,0-10.1-1.9-12.7-5.5c-1-1.4-1.6-2.7-2.2-5l9-1.4c0.8,3,2.7,4.4,5.9,4.4c3.8,0,6.3-2.4,6.3-6
				c0-3.6-2.4-5.9-6.2-5.9c-2.8,0-4.7,1.1-5.7,3.3l-8.4-0.8c0.2-1.3,0.3-2.4,0.4-3.7l1.2-14c0.1-0.9,0.1-2,0.2-3.7
				c1.9,0.1,2.3,0.1,4.5,0.1h13.4c4,0,5.6-0.1,7.4-0.3v7.9c-2.4-0.2-4.5-0.3-7.3-0.3H178L177.5,114.5z"/>
			<path class="st1" d="M208.7,135.9c-1.5-1.5-2.6-3.2-3.3-5c-1.2-3.2-1.8-6.7-1.8-10.3c0-4.7,1.1-9.6,2.8-12.5
				c2.7-4.6,7.4-7.1,13.1-7.1c4.4,0,8.2,1.5,10.9,4.2c1.5,1.5,2.6,3.2,3.3,5c1.2,3.2,1.8,6.7,1.8,10.3c0,4.7-1.1,9.7-2.8,12.5
				c-2.7,4.5-7.4,7-13.1,7C215.2,140.1,211.5,138.7,208.7,135.9z M212.9,120.3c0,8.1,2.3,12.2,6.7,12.2c4.4,0,6.7-4,6.7-12.1
				c0-7.7-2.3-11.7-6.7-11.7C215.4,108.7,212.9,112.9,212.9,120.3z"/>
			<path class="st1" d="M243.4,119.6c-1.8-1.7-2.7-4.5-2.7-7.9c0-3.4,0.9-6.2,2.7-8c1.7-1.7,4.1-2.6,7-2.6c2.9,0,5.3,0.9,7,2.6
				c1.8,1.8,2.7,4.5,2.7,7.9c0,3.5-0.9,6.3-2.7,8c-1.7,1.7-4.1,2.6-6.9,2.6C247.6,122.2,245.2,121.3,243.4,119.6z M275,100.7
				l2.4,1.8l-29.3,38.1l-2.3-1.8L275,100.7z M247,111.6c0,3.8,1.2,5.8,3.5,5.8c2.2,0,3.4-1.9,3.4-5.8c0-3.7-1.2-5.6-3.4-5.6
				S247,107.9,247,111.6z M265.7,137.4c-1.8-1.7-2.7-4.5-2.7-8c0-3.4,0.9-6.1,2.7-7.9c1.7-1.7,4.1-2.6,7-2.6c6.1,0,9.7,3.9,9.7,10.5
				c0,3.5-0.9,6.3-2.7,8c-1.7,1.7-4.1,2.6-7,2.6S267.5,139.2,265.7,137.4z M269.3,129.4c0,3.9,1.2,5.8,3.5,5.8
				c2.3,0,3.5-1.9,3.5-5.8c0-3.6-1.2-5.5-3.4-5.5C270.5,123.9,269.3,125.8,269.3,129.4z"/>
			<path class="st1" d="M324.1,120.4c0,11.9-7.2,19.7-18.2,19.7c-11,0-18.1-7.7-18.1-19.6c0-11.9,7.1-19.5,18.2-19.5
				S324.1,108.6,324.1,120.4z M314.8,120.5c0-7.3-3.3-11.7-8.8-11.7c-5.5,0-8.9,4.5-8.9,11.7c0,7.3,3.4,11.9,8.9,11.9
				C311.4,132.4,314.8,127.9,314.8,120.5z"/>
			<path class="st1" d="M340.2,131.5c0,4.2,0,5.8,0.4,7.8h-9.7c0.3-2,0.4-3.8,0.4-7.7v-23.3c0-3-0.1-4.5-0.4-6.6
				c1.8,0.1,3.1,0.1,6.6,0.1h13c4,0,5.4,0,7.6-0.3v8.5c-2-0.2-3.7-0.3-7.5-0.3h-10.3v7.4h8.5c3.5,0,5.2-0.1,7.2-0.3v8.3
				c-2-0.2-3.8-0.3-7.2-0.3h-8.5V131.5z"/>
			<path class="st1" d="M373.4,131.5c0,4.2,0,5.8,0.4,7.8h-9.7c0.3-2,0.4-3.8,0.4-7.7v-23.3c0-3-0.1-4.5-0.4-6.6
				c1.8,0.1,3.1,0.1,6.6,0.1h13c4,0,5.4,0,7.6-0.3v8.5c-2-0.2-3.7-0.3-7.5-0.3h-10.3v7.4h8.5c3.5,0,5.2-0.1,7.2-0.3v8.3
				c-2-0.2-3.8-0.3-7.2-0.3h-8.5V131.5z"/>
		</g>
		<g>
			<path class="st0" d="M36.9,135c0,2.3,0.1,4.2,0.3,5.8H30c0.2-1.6,0.3-3.7,0.3-5.8v-7c0-0.3,0-1.1,0-1.9c-1.4,1.3-2.2,1.9-3.9,3.1
				c-0.9-3-1.5-4.5-2.8-6.5c2.5-1.6,4.1-2.9,5.8-4.6c2.2-2.2,3.4-3.8,4.9-6.7h-5.2c-1.5,0-2.8,0.1-4,0.2v-6.6
				c1.2,0.2,2.4,0.2,4.1,0.2h1v-2.7c0-1.8-0.1-2.9-0.2-3.8h7.1c-0.2,0.9-0.3,1.8-0.3,3.8v2.7c1.8,0,2.4,0,3-0.2l2.7,3.6
				c-0.3,0.5-0.5,0.9-1,2.1c-1.2,2.7-2.5,4.9-4.3,7.5c0.4,0.5,0.6,0.6,1.1,1.1c1.8-2.1,2.8-3.8,3.9-6.1l4.2,3.2
				c-1.9,2.9-2.8,4.2-4.4,6c0.9,0.6,1.2,0.9,2.2,1.6c-1.4,1.6-2.3,2.9-3.4,5.2c-1.5-1.3-2.8-2.5-4.1-3.9V135z M54.3,107.6
				c0,0.5,0,0.5,0,1.2c-0.1,8.1-1.2,15-3.3,20c-1.9,4.6-4.4,7.9-8.8,11.8c-1.4-2.7-2.4-4-4.4-5.9c3.1-2.5,5.2-5.1,6.8-8.5
				c1.8-4,2.7-8.3,3-13.6c0-0.8,0-2.4,0-4.9c-2.2,0-3.9,0.1-5.4,0.2v-6.7c1.7,0.2,3.6,0.3,5.7,0.3h13.5c1.8,0,3.4-0.1,4.2-0.2
				c-0.2,1.7-0.2,1.9-0.3,8.6c-0.1,13.2-0.7,22-1.8,25.7c-0.6,1.9-1.8,3.2-3.4,3.8c-1.2,0.4-2.7,0.6-5.2,0.6c-1.3,0-2,0-3.6,0
				c-0.2-3-0.5-4.3-1.5-6.8c2.1,0.3,3.6,0.4,4.8,0.4c1.9,0,2.4-0.5,2.8-2.8c0.8-3.9,1.1-11,1.1-23H54.3z"/>
			<path class="st0" d="M105.6,141v-2.2H80v2.2h-7.2c0.2-1.4,0.3-3.5,0.3-6.3v-29.1c0-2.1,0-3.5-0.2-5.3c1.6,0.2,3.1,0.2,5.3,0.2
				h29.3c2.2,0,3.6,0,5.3-0.2c-0.2,1.7-0.2,3.1-0.2,5.3v29.1c0,2.5,0.1,4.9,0.3,6.3H105.6z M80,132.6h25.6v-25.8H80V132.6z
				 M98.4,110.2c1.8,0,2.9,0,4-0.1c-0.1,1.1-0.1,2.3-0.1,3.7v11.7c0,1.4,0,2.5,0.1,3.7c-1.1-0.1-2.3-0.1-4-0.1H87.1
				c-1.8,0-2.8,0-4,0.1c0.1-1.3,0.1-2.4,0.1-3.7v-11.7c0-1.2,0-2.3-0.1-3.7c1.1,0.1,2.2,0.1,4,0.1H98.4z M89.7,123.2h6V116h-6V123.2
				z"/>
		</g>
	</g>
</g>
<g>
	<g>
		<g>
			<path class="st2" d="M496.1,30.6v0.3l-21.3,53.2l-8.9-3.3l16.7-41.1h-21.1v-9.1H496.1z"/>
			<path class="st2" d="M507.3,73.1c2,0,3.6,0.7,4.8,2.2c1.2,1.5,1.8,3.5,1.8,6c0,3.3-1.1,6.2-3.3,8.8c-2.2,2.6-4.9,4.1-8.2,4.7v-2
				c2.4-2,3.6-4.7,3.6-8v-0.6l-0.1-0.6c-2.8-0.5-4.3-2.3-4.3-5.2c0-1.5,0.5-2.7,1.6-3.8S505.7,73.1,507.3,73.1z"/>
			<path class="st2" d="M537.6,30c5.3,0,9.6,2.4,12.7,7.2c3.1,4.8,4.7,11.4,4.7,19.7c0,8.4-1.6,15.1-4.7,19.9
				c-3.1,4.9-7.3,7.3-12.7,7.3c-5.4,0-9.8-2.4-12.9-7.2c-3.2-4.8-4.7-11.4-4.7-19.8c0-8.4,1.6-15,4.7-19.8
				C527.9,32.4,532.2,30,537.6,30z M529.8,57.4c0,12.1,2.6,18.1,7.8,18.1c5,0,7.6-6.4,7.6-19.1c0-11.9-2.5-17.8-7.6-17.8
				C532.4,38.6,529.8,44.9,529.8,57.4z"/>
			<path class="st2" d="M578.5,30c5.3,0,9.6,2.4,12.7,7.2c3.1,4.8,4.7,11.4,4.7,19.7c0,8.4-1.6,15.1-4.7,19.9
				c-3.1,4.9-7.3,7.3-12.7,7.3c-5.4,0-9.8-2.4-12.9-7.2c-3.2-4.8-4.7-11.4-4.7-19.8c0-8.4,1.6-15,4.7-19.8
				C568.8,32.4,573.1,30,578.5,30z M570.7,57.4c0,12.1,2.6,18.1,7.8,18.1c5,0,7.6-6.4,7.6-19.1c0-11.9-2.5-17.8-7.6-17.8
				C573.3,38.6,570.7,44.9,570.7,57.4z"/>
			<path class="st2" d="M619.4,30c5.3,0,9.6,2.4,12.7,7.2c3.1,4.8,4.7,11.4,4.7,19.7c0,8.4-1.6,15.1-4.7,19.9
				c-3.1,4.9-7.3,7.3-12.7,7.3c-5.4,0-9.8-2.4-12.9-7.2c-3.2-4.8-4.7-11.4-4.7-19.8c0-8.4,1.6-15,4.7-19.8
				C609.7,32.4,613.9,30,619.4,30z M611.6,57.4c0,12.1,2.6,18.1,7.8,18.1c5,0,7.6-6.4,7.6-19.1c0-11.9-2.5-17.8-7.6-17.8
				C614.2,38.6,611.6,44.9,611.6,57.4z"/>
			<path class="st2" d="M648.9,78.2c0,2.6,0,4,0.2,5h-6.7c0.2-1.6,0.3-3.1,0.3-5.2V51.5c0-1.8,0-2.9-0.2-4.1
				c1.5,0.1,2.6,0.2,5.2,0.2H672c2.7,0,4,0,5-0.2c-0.2,1.2-0.2,2.4-0.2,5v25.8c0,2.3-1,3.8-2.8,4.4c-0.9,0.3-2.4,0.4-4.5,0.4
				c-1.1,0-2.7,0-4.6-0.1c-0.4-2.2-0.8-3.7-1.8-5.9c2.6,0.2,4.4,0.4,5.6,0.4c1.6,0,1.9-0.2,1.9-0.9V69h-21.8V78.2z M656.6,53.3h-7.7
				v10.1h7.7V53.3z M670.7,63.4V53.3h-8.1v10.1H670.7z"/>
			<path class="st2" d="M691.5,83.8c-2.4-4.2-3.1-5.6-3.8-7.4c-1.3-3.3-2.1-7.6-2.1-11.5c0-3.4,0.5-6.9,1.5-10
				c0.9-2.9,1.9-5,4.4-9.1h7.4c-3.1,4.8-4.2,7-5.2,10.6c-0.7,2.8-1.1,5.6-1.1,8.4c0,3.9,0.8,8.1,2,11.4c0.9,2.2,1.8,3.8,4.2,7.6
				H691.5z"/>
			<path class="st2" d="M725.1,67.8c-0.1,3.4-0.4,5.3-1,7.4c-1.2,3.7-3.4,6.4-7.1,8.6c-1.1-1.8-2-3-4-4.9c4.6-2.3,6.4-5.6,6.5-11.1
				c-1.1,0-1.7,0-2.6,0.1c-1,2.2-1.4,3-2.2,5.3c-0.9-1-1.6-2-2.4-3.6c0.1,0.7,0.1,0.8,0.1,1.7l0,1.4v5.7c0,2.5,0,3.7,0.2,5.2h-6.4
				c0.2-1.6,0.2-2.9,0.2-5.2v-4.2c0-0.9,0.1-2.6,0.1-3.5c-1,2.9-1.8,4.3-3.6,6.5c-0.8-2.7-1.4-4-2.5-6c2.5-2.8,4.4-6.1,5.3-9.3h-1.4
				c-1.4,0-2,0-3,0.2v-5.9c1,0.2,1.6,0.2,3,0.2h2.1v-2.8c-1.2,0.2-1.7,0.3-3.4,0.5c-0.4-2-0.9-3.2-2-5.3c4.5-0.5,7.4-1.2,10.8-2.5
				c0.6-0.2,1.2-0.5,1.7-0.8l3.5,5c-0.4,0.2-0.4,0.2-1.1,0.5c-0.8,0.4-2.3,0.8-3.6,1.2v4.2h0.6c1.4,0,2,0,2.8-0.2V62
				c-0.8-0.1-1.5-0.2-2.8-0.2h-0.4c1.3,2.5,2.2,3.8,4.1,5.6c0-0.9,0.1-1.6,0.1-2.6v-8.1c0-1,0-2-0.1-3c1.2,0.1,1.8,0.2,3.2,0.2h0.4
				c-1-2.4-1.8-4.1-3.1-6.1l5.6-2.2c1.4,2.4,2.4,4.2,3.2,6.5l-4,1.8h5.5c1.5-3.1,2.2-5.2,3-8.3l6.3,1.8c-0.5,1-0.5,1-1.7,3.7
				c-0.4,0.8-0.8,1.7-1.4,2.8c1.8,0,2.4,0,3.5-0.2c-0.1,1-0.2,1.7-0.2,3v8.2c0,1.3,0,2,0.2,3c-1.1-0.1-2-0.2-3.3-0.2h-1.2V77
				c0,0.5,0.1,0.6,0.8,0.6c1,0,1,0,1-5c1.6,1,2.9,1.6,4.5,2c-0.3,4.8-0.5,6.2-1.2,7.2c-0.8,1.1-2.2,1.4-5.8,1.4
				c-4,0-5.1-0.8-5.1-3.9V67.8H725.1z M722.4,62.2h8.4v-2.8h-8.4V62.2z"/>
			<path class="st2" d="M751.5,70.8c3-2.2,5.3-4.7,7-7.7c1-1.9,2-4.3,2.5-6.6c0.2-1,0.3-1.5,0.6-3.8h-3.8c-1.4,0-2.3,0-3.4,0.2v-6
				c0.8,0.2,1.7,0.2,3.4,0.2h7.4c1.3,0,2.1,0,2.9-0.2c0,0.8-0.1,1.6-0.1,2.2c0,3.6,0.8,7.3,2.3,10.7c1,2.3,2.2,4.2,3.7,5.9
				c1.5,1.7,2.6,2.6,4.9,4.3c-1.6,2-2.5,3.4-3.6,6.1c-2.6-1.9-4.2-3.4-6-5.8c-1.8-2.3-2.8-4.3-4.2-8c-1.2,3.7-2.2,5.7-4,8.1
				c-1.6,2-2.8,3.3-5.4,5.4c-1.3-2.2-2.2-3.2-4.2-4.8V74c0.3,0.8,0.5,1,1.2,1.5c1.8,1.4,3.7,1.7,9.8,1.7c6.7,0,12.2-0.3,16.7-0.9
				c-0.8,2.5-1.1,3.8-1.5,6.5c-2.8,0.1-10.8,0.2-14.6,0.2c-9.2,0-11.8-0.7-14.9-4.1c-1.2,1.2-2.2,2-4.1,3.5
				c-0.2,0.1-0.2,0.2-0.8,0.6c-0.2,0.2-0.3,0.2-0.5,0.4l-2.6-6.4c1-0.4,3-1.5,5.3-3v-7.6h-2c-0.9,0-1.4,0-2.5,0.2v-6.1
				c1.1,0.2,1.8,0.2,3.3,0.2h4.1c1.2,0,2.2,0,3.1-0.2c-0.1,1.2-0.2,2.2-0.2,4.5V70.8z M745.5,46.2c3.3,2.7,5.4,4.8,7.5,7.4l-4.6,4.7
				c-2.6-3.3-4.1-5-7.4-7.7L745.5,46.2z"/>
			<path class="st2" d="M780.5,83.8c3.3-5.1,4.3-7.3,5.2-10.8c0.7-2.6,1-5.6,1-8.6c0-3.7-0.8-8.1-2.2-11.4c-0.9-2.2-1.8-3.8-4-7.2
				h7.4c2.7,4.5,3.8,6.8,4.7,10.2c0.8,3,1.2,5.8,1.2,8.8c0,4.1-0.8,8.3-2.1,11.6c-0.7,1.8-1.4,3.2-3.8,7.4H780.5z"/>
		</g>
	</g>
	<g>
		<path class="st2" d="M699.7,101.4v45.9H461.3v-45.9H699.7 M701.1,100.1H459.9v48.7h241.2V100.1L701.1,100.1z"/>
	</g>
	<rect x="627.6" y="100.1" class="st2" width="169.2" height="48.7"/>
	<g>
		<path class="st1" d="M646.3,130.3c0.2,1,0.4,1.5,0.8,2c0.8,0.9,2,1.4,3.4,1.4c2.3,0,3.7-1.2,3.7-3.2c0-1.3-0.6-2.3-1.6-2.7
			c-0.7-0.3-1.6-0.4-2.7-0.4c-1.1,0-2.5,0.1-3.6,0.2v-5.5c1,0.1,2,0.2,3.1,0.2c2.8,0,4.2-1,4.2-3c0-1.7-1.1-2.7-3.1-2.7
			c-2.1,0-3.2,0.9-3.6,2.9l-6.4-1c0.6-2,1-2.9,2-4c1.8-2.1,4.5-3.2,8.1-3.2c3.2,0,5.9,1,7.5,2.7c1.1,1.2,1.7,2.7,1.7,4.5
			c0,3.4-1.7,5.5-5.1,6.3c1.8,0.3,2.8,0.7,3.8,1.7c1.2,1.2,1.9,2.9,1.9,4.7c0,1.6-0.4,3.1-1.2,4.2c-0.6,1-1.7,1.8-2.8,2.4
			c-1.5,0.8-3.9,1.2-6.1,1.2c-2.7,0-5.3-0.7-6.9-1.8c-1.4-1-2.4-2.3-3-4.1c-0.2-0.4-0.3-0.9-0.5-1.7L646.3,130.3z"/>
		<path class="st1" d="M667.5,135.9c-1-1-1.7-2.3-2.2-3.5c-0.8-2.3-1.1-4.7-1.1-7.3c0-3.3,0.7-6.8,1.9-8.8c1.8-3.2,4.9-5,8.6-5
			c2.9,0,5.4,1,7.2,2.9c1,1,1.7,2.3,2.2,3.5c0.8,2.3,1.1,4.7,1.1,7.3c0,3.3-0.7,6.8-1.9,8.8c-1.8,3.2-4.9,4.9-8.6,4.9
			C671.8,138.9,669.3,137.9,667.5,135.9z M670.3,124.9c0,5.7,1.5,8.6,4.4,8.6c2.9,0,4.4-2.9,4.4-8.5c0-5.4-1.5-8.3-4.4-8.3
			C671.9,116.7,670.3,119.7,670.3,124.9z"/>
		<path class="st1" d="M690.3,124.4c-1.1-1.2-1.8-3.2-1.8-5.6c0-2.4,0.6-4.3,1.8-5.6c1.1-1.2,2.7-1.8,4.6-1.8c1.9,0,3.5,0.6,4.6,1.8
			c1.2,1.3,1.8,3.2,1.8,5.6c0,2.5-0.6,4.4-1.8,5.6c-1.1,1.2-2.7,1.8-4.5,1.8C693,126.3,691.4,125.6,690.3,124.4z M711,111.1l1.6,1.3
			l-19.2,26.8l-1.5-1.3L711,111.1z M692.6,118.8c0,2.7,0.8,4.1,2.3,4.1c1.5,0,2.2-1.4,2.2-4.1c0-2.6-0.8-4-2.2-4
			C693.4,114.9,692.6,116.2,692.6,118.8z M704.9,137c-1.1-1.2-1.8-3.2-1.8-5.6c0-2.4,0.6-4.3,1.8-5.6c1.1-1.2,2.7-1.8,4.6-1.8
			c4,0,6.3,2.7,6.3,7.4c0,2.4-0.6,4.4-1.8,5.6c-1.1,1.2-2.7,1.8-4.6,1.8S706,138.2,704.9,137z M707.2,131.4c0,2.7,0.8,4.1,2.3,4.1
			c1.5,0,2.3-1.4,2.3-4.1c0-2.6-0.8-3.9-2.2-3.9C708,127.5,707.2,128.8,707.2,131.4z"/>
		<path class="st1" d="M743.2,125c0,8.4-4.7,13.9-11.9,13.9c-7.2,0-11.9-5.4-11.9-13.8c0-8.4,4.7-13.7,11.9-13.7
			S743.2,116.7,743.2,125z M737,125.1c0-5.1-2.2-8.2-5.7-8.2c-3.6,0-5.8,3.1-5.8,8.2c0,5.2,2.2,8.4,5.8,8.4
			C734.9,133.4,737,130.3,737,125.1z"/>
		<path class="st1" d="M753.7,132.8c0,3,0,4.1,0.2,5.5h-6.3c0.2-1.4,0.3-2.7,0.3-5.4v-16.4c0-2.1-0.1-3.1-0.2-4.6
			c1.2,0.1,2,0.1,4.3,0.1h8.5c2.6,0,3.6,0,5-0.2v6c-1.3-0.2-2.4-0.2-4.9-0.2h-6.8v5.2h5.5c2.3,0,3.4-0.1,4.7-0.2v5.9
			c-1.3-0.2-2.5-0.2-4.7-0.2h-5.5V132.8z"/>
		<path class="st1" d="M775.5,132.8c0,3,0,4.1,0.2,5.5h-6.3c0.2-1.4,0.3-2.7,0.3-5.4v-16.4c0-2.1-0.1-3.1-0.2-4.6
			c1.2,0.1,2,0.1,4.3,0.1h8.5c2.6,0,3.6,0,5-0.2v6c-1.3-0.2-2.4-0.2-4.9-0.2h-6.8v5.2h5.5c2.3,0,3.4-0.1,4.7-0.2v5.9
			c-1.3-0.2-2.5-0.2-4.7-0.2h-5.5V132.8z"/>
	</g>
	<g>
		<g>
			<path class="st2" d="M480.8,138.3c-2.6,0-3.2,0-4.3,0.1c0.1-1.6,0.3-2.5,0.6-3.7c0.7-2.6,2.1-5,4.1-7.1c1.1-1.1,2.2-2,5.1-4.2
				c2.5-1.8,3.1-2.7,3.1-4.1c0-1.5-1.2-2.5-3.1-2.5c-1.4,0-2.3,0.5-3,1.6c-0.4,0.7-0.6,1.3-0.7,2.7l-6-0.7c0.4-2.8,0.9-4.2,2.1-5.6
				c1.6-2.1,4.2-3.3,7.6-3.3c3.9,0,6.8,1.4,8.2,4c0.6,1.1,0.9,2.3,0.9,3.7c0,2.3-0.9,4.3-2.6,5.9c-0.9,0.9-1.2,1.1-4.1,3.4
				c-2.5,1.9-3.5,3-4.2,4.4h6.6c2.1,0,3.5-0.1,4.6-0.2v6c-1.7-0.2-2.9-0.2-4.9-0.2H480.8z"/>
			<path class="st2" d="M521,140.2v-1.6h-16.2v1.6h-4.5c0.1-1,0.2-2.4,0.2-4.4v-20.5c0-1.5,0-2.4-0.1-3.7c1,0.1,1.9,0.2,3.3,0.2
				h18.6c1.4,0,2.3,0,3.3-0.2c-0.1,1.2-0.1,2.2-0.1,3.7v20.5c0,1.8,0.1,3.4,0.2,4.4H521z M504.8,134.2H521v-18.2h-16.2V134.2z
				 M516.4,118.4c1.1,0,1.9,0,2.5-0.1c-0.1,0.8-0.1,1.6-0.1,2.6v8.3c0,1,0,1.7,0.1,2.6c-0.7-0.1-1.5-0.1-2.5-0.1h-7.1
				c-1.2,0-1.8,0-2.5,0.1c0.1-0.9,0.1-1.7,0.1-2.6v-8.3c0-0.9,0-1.6-0.1-2.6c0.7,0.1,1.4,0.1,2.5,0.1H516.4z M511,127.6h3.8v-5H511
				V127.6z"/>
			<path class="st2" d="M549.9,111.4c1.3,0,2.3,0,3.2-0.2c-0.1,1.4-0.1,2.5-0.1,3.6v20.9c0,1.8,0.1,3,0.2,4.3h-4.6v-1.4h-12.4v1.4
				h-4.6c0.1-1.3,0.2-2.5,0.2-3.9v-21.3c0-1.2-0.1-2.3-0.1-3.6c0.9,0.1,2,0.2,3.3,0.2H549.9z M548.5,118.9v-3h-12.4v3H548.5z
				 M536.1,126.4h12.4v-3.1h-12.4V126.4z M536.1,134h12.4v-3.3h-12.4V134z"/>
			<path class="st2" d="M560.7,115.2c0-2.1-0.1-3.1-0.2-4.2h4.9c-0.1,0.9-0.1,1.8-0.1,3.3c0,0.2,0,0.5,0,0.9l0.1,14.1
				c2.4-1.2,4.3-2.4,6.7-4.1l0.8,4.7c-3.7,2.7-6.8,4.5-12.5,7.3c-0.2,0.1-0.5,0.3-0.9,0.5l-1.2-5.2c0.8-0.3,1.3-0.4,2.6-1
				L560.7,115.2z M583,110.9c-0.1,0.6-0.1,0.8-0.1,2c-0.2,7.5-1.1,12.6-3.1,16.7c1.3,2.2,3.1,4.1,5.4,5.5c-1.2,1.9-1.8,3.2-2.6,5.1
				c-2-1.6-3.8-3.8-5.4-6.4c-2.2,2.9-4.8,4.8-8.7,6.7c-0.7-1.8-1.3-2.9-2.5-4.4c5.2-2.3,8.1-4.9,9.9-8.8c1.6-3.4,2.4-8.2,2.4-14.1
				c0-1.1,0-1.5-0.2-2.3H583z M570.4,112.5c2.5,2.9,3.7,4.6,5.8,7.9l-4.1,3.1c-1.9-3.6-3.3-5.6-5.5-8.4L570.4,112.5z"/>
			<path class="st2" d="M614.2,113.9c-0.3,0.4-0.3,0.4-0.6,0.9c-1.1,1.8-2.3,3.3-3.5,4.5c1.8,0.5,3.4,0.7,5.4,0.9
				c-0.7,1.6-1.1,2.7-1.4,4.4c-1.5-0.2-2.2-0.3-3.5-0.7c0,0.6-0.1,1-0.1,1.5h1c1.6,0,1.9,0,2.7-0.1v4.5c-0.8-0.1-1.3-0.1-2.7-0.1h-1
				v2.3h1.8c1.4,0,2,0,2.7-0.1v4.5c-0.9-0.1-1.9-0.2-3.3-0.2h-1.2v1c0,1.3,0,2,0.2,2.9h-4.5c0.1-1,0.2-1.6,0.2-2.9v-1h-5.9
				c-1.5,0-2.6,0.1-3.5,0.2v-3.7c-0.8,0.4-1.7,0.6-3.2,0.7c0-2.2-0.2-3.5-0.7-4.4v7c0,1.8,0.1,3.2,0.1,4.2h-4.4
				c0.1-1.3,0.2-2.8,0.2-4.3v-21.2c0-1.3,0-2.1-0.1-3.5c0.5,0.1,1.1,0.1,2.2,0.1h4.3c1.1,0,1.5,0,2.1-0.1l2,3.1
				c1.7-1.5,2.6-2.7,3.2-4.3l4.5,0.5c-0.1,0.2-0.1,0.2-0.3,0.6c-0.1,0.3-0.3,0.6-0.5,0.9h3.7c1.1,0,1.5,0,2.1-0.1L614.2,113.9z
				 M593.2,121.7c0.8-2,1.4-3.8,1.9-6.1h-1.9V121.7z M593.2,128.8c0.3,0.1,0.4,0.1,0.7,0.1c0.6,0,0.8-0.3,0.8-1.1
				c0-1.8-0.5-3.5-1.5-5.5V128.8z M599,125.3c0.1,0,0.3,0.1,0.7,0.1c-0.7-1.8-1-2.4-2.2-3.9c1.8-0.5,3.4-1,4.8-1.7
				c-0.4-0.4-0.9-0.8-1.4-1.3c-0.5,0.4-0.9,0.6-1.8,1.2c-0.4-0.8-0.6-1.1-0.9-1.6c-0.5,1.5-0.8,2.1-1.6,4c1.4,2.5,2.1,4.6,2.1,6.8
				c0,1.3-0.3,2.3-0.8,3.2c0.3,0,0.3,0,0.5,0h2v-2.3c-0.5,0-0.7,0-1.3,0.1V125.3z M609.5,123.6c-0.9-0.3-2.1-0.7-3.1-1.2
				c-2.1,1.4-4,2.3-6.3,3c0.2,0,0.4,0,0.8,0h5.5c0-0.6,0-0.6-0.1-1.8H609.5z M603.8,115.8c0.9,0.9,1.1,1,2.2,1.8
				c0.8-0.6,1.2-0.9,1.9-1.8H603.8z M606.4,129.7h-2v2.3h2V129.7z"/>
		</g>
	</g>
</g>
</svg>
