<?xml version="1.0" encoding="utf-8"?>
<!-- Generator: Adobe Illustrator 25.4.1, SVG Export Plug-In . SVG Version: 6.00 Build 0)  -->
<svg version="1.1" id="レイヤー_1" xmlns="http://www.w3.org/2000/svg" xmlns:xlink="http://www.w3.org/1999/xlink" x="0px"
	 y="0px" viewBox="0 0 760 558" style="enable-background:new 0 0 760 558;" xml:space="preserve">
<style type="text/css">
	.st0{fill:#E0172A;}
	.st1{fill:#FFFF00;}
	.st2{fill:#00A141;}
</style>
<g>
	<path class="st0" d="M57.4,0C68,0,76.4,3,82.6,9c6.2,6,9.3,14,9.3,24c0,7.6-2.3,15.9-7,24.8S72.2,78.6,60.5,93.3h38.1v19.2H26.7
		v-2.3c8.4-10.3,15.6-19.6,21.6-27.9c6-8.2,10.7-15.1,14-20.5c3.3-5.4,5.6-10.1,7-13.9c1.4-3.8,2.1-7.8,2.1-11.8
		c0-5.1-1.6-9.4-4.9-12.8c-3.3-3.5-7.2-5.2-11.9-5.2c-8.4,0-17.1,4.8-26.1,14.3V10.6C37.9,3.5,47.6,0,57.4,0z"/>
	<path class="st0" d="M125.5,90.7c4.2,0,7.6,1.6,10.2,4.7c2.5,3.1,3.8,7.3,3.8,12.6c0,6.9-2.3,13.1-6.9,18.5
		c-4.6,5.4-10.4,8.7-17.3,9.8v-4.2c5.1-4.3,7.6-9.9,7.6-16.8v-1.2l-0.2-1.3c-6-1.1-9-4.7-9-10.9c0-3.1,1.1-5.8,3.4-7.9
		C119.4,91.8,122.2,90.7,125.5,90.7z"/>
	<path class="st0" d="M214.5,0v64.8h9.5v16.3h-9.5v31.4h-20.4V81.1h-45.4v-13L202.9,0H214.5z M193.7,33.7l-24.6,31.1h25V33.7H193.7z
		"/>
	<path class="st0" d="M274.5,0c7,0,13.3,1.6,18.8,4.9c5.6,3.3,9.9,7.9,12.9,13.9c3,6,4.5,12.8,4.5,20.6c0,11.7-3.5,24.2-10.6,37.8
		c-7.1,13.5-16.5,25.8-28.3,36.8h-24.2c6.3-5.5,13-12.9,20-22.3c7-9.4,12-17.7,14.9-24.8c-4,1.7-8.2,2.5-12.7,2.5
		c-8.8,0-16.1-3.1-21.8-9.4c-5.8-6.3-8.6-14.3-8.6-24.1c0-6.5,1.5-12.4,4.5-17.9c3-5.5,7.2-9.8,12.6-13C262,1.6,268,0,274.5,0z
		 M259.6,35.5c0,4.9,1.4,9,4.2,12.2c2.8,3.2,6.5,4.8,11.1,4.8c4.3,0,8-1.6,10.8-4.8c2.9-3.2,4.3-7,4.3-11.5c0-5.3-1.4-9.6-4.3-12.9
		c-2.9-3.3-6.6-5-11.2-5c-4.5,0-8,1.6-10.8,4.8C261,26.2,259.6,30.3,259.6,35.5z"/>
	<path class="st0" d="M361.1,0c11.2,0,20.2,5.1,26.8,15.2c6.6,10.1,9.9,24,9.9,41.5c0,17.7-3.3,31.7-9.8,41.9
		c-6.5,10.2-15.4,15.3-26.7,15.3c-11.4,0-20.5-5.1-27.1-15.2c-6.7-10.2-10-24-10-41.7c0-17.6,3.3-31.5,9.9-41.7
		C340.7,5.1,349.7,0,361.1,0z M344.8,57.6c0,25.4,5.4,38.1,16.3,38.1c10.6,0,15.9-13.4,15.9-40.1c0-25-5.4-37.4-16.1-37.4
		C350.1,18.2,344.8,31.3,344.8,57.6z"/>
	<path class="st0" d="M423.2,101.5c0,5.5,0.1,8.4,0.4,10.6h-14c0.4-3.3,0.6-6.5,0.6-11V45.2c0-3.9-0.1-6.1-0.3-8.7
		c3.1,0.3,5.5,0.3,11,0.3h50.9c5.6,0,8.3-0.1,10.6-0.3c-0.3,2.5-0.4,5.1-0.4,10.6v54.3c0,4.9-2,8.1-5.8,9.2c-1.8,0.6-5,0.8-9.4,0.8
		c-2.3,0-5.7-0.1-9.7-0.2c-0.8-4.7-1.7-7.7-3.9-12.4c5.5,0.5,9.3,0.8,11.8,0.8c3.3,0,4-0.3,4-1.8V82.1h-45.8V101.5z M439.3,49h-16.1
		v21.2h16.1V49z M469,70.2V49h-17v21.2H469z"/>
	<path class="st0" d="M512.6,113.1c-5-8.8-6.6-11.8-8-15.5c-2.8-7-4.4-15.9-4.4-24.1c0-7.1,1.1-14.5,3.2-21.1
		c1.9-6.1,4-10.5,9.3-19.2h15.5c-6.5,10-8.8,14.8-10.8,22.3c-1.5,5.8-2.3,11.8-2.3,17.6c0,8.2,1.6,17,4.3,23.9
		c1.8,4.5,3.8,8.1,8.8,16.1H512.6z"/>
	<path class="st0" d="M583.3,79.5c-0.2,7.2-0.8,11.1-2.2,15.5c-2.5,7.8-7.1,13.4-14.9,18.1c-2.4-3.9-4.3-6.2-8.4-10.3
		c9.6-4.9,13.5-11.7,13.6-23.3c-2.3,0-3.6,0.1-5.5,0.3c-2.2,4.6-2.9,6.4-4.5,11.2c-1.9-2.2-3.3-4.2-5-7.5c0.2,1.5,0.2,1.8,0.2,3.6
		l0.1,2.9v12c0,5.3,0.1,7.8,0.5,10.9h-13.4c0.3-3.4,0.5-6.1,0.5-10.9V93c0-1.9,0.2-5.5,0.3-7.3c-2.2,6.1-3.8,9-7.5,13.7
		c-1.6-5.6-2.9-8.5-5.3-12.7c5.3-6,9.2-12.9,11.1-19.6h-3c-3,0-4.3,0.1-6.4,0.4V55.2c2,0.3,3.3,0.4,6.4,0.4h4.5v-5.8
		c-2.6,0.4-3.5,0.6-7.1,1.1c-0.9-4.1-1.9-6.7-4.3-11.2c9.4-1,15.6-2.4,22.8-5.2c1.3-0.4,2.5-1.1,3.6-1.8l7.3,10.4
		c-0.8,0.3-0.8,0.3-2.4,1c-1.8,0.8-4.8,1.8-7.6,2.6v8.8h1.3c2.9,0,4.3-0.1,5.9-0.3v12.2c-1.6-0.3-3.1-0.3-5.9-0.3h-0.9
		c2.7,5.3,4.7,8.1,8.6,11.7c0.1-1.8,0.2-3.3,0.2-5.4V56.3c0-2.1-0.1-4.1-0.3-6.3c2.4,0.3,3.8,0.3,6.8,0.3h0.9
		c-2-5.1-3.8-8.7-6.5-12.8l11.7-4.7c3,5.1,5,8.9,6.7,13.7l-8.4,3.8h11.5c3.1-6.6,4.7-11,6.2-17.4l13.2,3.8c-1,2.2-1,2.2-3.5,7.8
		c-0.8,1.8-1.7,3.5-3,5.8c3.9,0,5-0.1,7.4-0.3c-0.3,2.1-0.3,3.5-0.3,6.2v17.1c0,2.8,0.1,4.2,0.3,6.4c-2.4-0.3-4.1-0.3-7-0.3H599
		v19.3c0,1.1,0.3,1.3,1.8,1.3c2,0,2,0,2-10.5c3.4,2.2,6.1,3.4,9.5,4.3c-0.6,10.1-1.1,12.9-2.6,15c-1.8,2.4-4.5,3-12.2,3
		c-8.5,0-10.8-1.8-10.8-8.2V79.5H583.3z M577.6,67.8h17.6v-5.9h-17.6V67.8z"/>
	<path class="st0" d="M638.9,85.9c6.3-4.6,11.1-9.9,14.6-16.1c2.2-4,4.1-9.1,5.2-14c0.5-2.1,0.7-3.1,1.3-7.9h-7.9
		c-2.9,0-4.9,0.1-7.1,0.3V35.7c1.8,0.3,3.5,0.4,7.1,0.4h15.5c2.8,0,4.4-0.1,6.1-0.3c-0.1,1.6-0.2,3.4-0.2,4.7
		c0,7.5,1.7,15.3,4.8,22.5c2.2,4.9,4.5,8.7,7.7,12.4c3.1,3.6,5.4,5.5,10.3,9c-3.4,4.2-5.2,7.1-7.5,12.9c-5.5-3.9-8.8-7.2-12.6-12.1
		c-3.7-4.9-5.9-9-8.8-16.7c-2.6,7.8-4.6,11.9-8.5,17.1c-3.3,4.2-5.9,6.9-11.3,11.3c-2.8-4.5-4.6-6.7-8.7-10.2v6.1
		c0.7,1.6,1,2,2.5,3.2c3.7,2.9,7.7,3.5,20.7,3.5c14,0,25.7-0.6,35-1.8c-1.8,5.2-2.4,8.1-3.1,13.7c-5.9,0.3-22.8,0.5-30.6,0.5
		c-19.4,0-24.9-1.5-31.3-8.7c-2.4,2.4-4.5,4.3-8.7,7.4c-0.4,0.3-0.5,0.4-1.7,1.3c-0.4,0.3-0.6,0.5-1.1,0.8L615.3,99
		c2.2-0.8,6.2-3.1,11.2-6.4V76.7h-4.1c-1.8,0-3,0.1-5.2,0.4V64.3c2.4,0.3,3.7,0.4,7,0.4h8.7c2.6,0,4.5-0.1,6.5-0.3
		c-0.3,2.6-0.3,4.5-0.3,9.5V85.9z M626.2,34.2c7,5.7,11.4,10.2,15.7,15.5l-9.7,9.8c-5.4-6.9-8.7-10.4-15.5-16.2L626.2,34.2z"/>
	<path class="st0" d="M699.7,113.1c6.9-10.8,9.1-15.4,11-22.7c1.4-5.5,2.2-11.8,2.2-18c0-7.8-1.8-17-4.7-24c-1.8-4.5-3.8-8-8.5-15.1
		h15.5c5.7,9.5,8,14.4,9.9,21.3c1.8,6.3,2.5,12.1,2.5,18.6c0,8.6-1.6,17.5-4.4,24.5c-1.4,3.7-3,6.7-8,15.5H699.7z"/>
</g>
<g>
	<g>
		<path class="st0" d="M529.9,150.2v96.5H28.8v-96.5H529.9 M532.8,147.3H25.9v102.3h506.9V147.3L532.8,147.3z"/>
	</g>
	<rect x="246.1" y="147.3" class="st0" width="488" height="102.3"/>
	<g>
		<path class="st1" d="M319.1,191.3c0,0.4-0.1,1.1-0.2,2.4c3.4-2.5,7.3-3.6,12.2-3.6c6.7,0,12.3,2.1,16.3,6.2
			c3.8,3.9,5.7,8.8,5.7,15.1c0,14.5-9.5,23.1-25.6,23.1c-9.5,0-17-3.3-21.4-9.3c-1.7-2.3-2.6-4.5-3.8-8.5l15.2-2.3
			c1.3,5,4.5,7.3,9.9,7.3c6.4,0,10.6-4,10.6-10.1c0-6-4.1-10-10.4-10c-4.8,0-7.9,1.9-9.5,5.6l-14.1-1.4c0.3-2.3,0.5-4.1,0.8-6.2
			l2-23.6c0.2-1.6,0.2-3.4,0.3-6.3c3.2,0.2,3.9,0.2,7.6,0.2h22.6c6.7,0,9.5-0.2,12.5-0.5v13.2c-4-0.4-7.5-0.5-12.3-0.5h-17.5
			L319.1,191.3z"/>
		<path class="st1" d="M371.6,227.3c-2.5-2.5-4.4-5.4-5.5-8.4c-2-5.4-2.9-11.2-2.9-17.3c0-7.9,1.9-16.2,4.8-20.9
			c4.6-7.7,12.5-11.9,22-11.9c7.3,0,13.8,2.5,18.4,7c2.5,2.5,4.4,5.4,5.5,8.4c2,5.4,2.9,11.2,2.9,17.4c0,7.9-1.9,16.3-4.8,21
			c-4.5,7.6-12.5,11.8-22.1,11.8C382.4,234.3,376.2,231.9,371.6,227.3z M378.6,200.9c0,13.5,3.9,20.5,11.3,20.5
			c7.4,0,11.2-6.8,11.2-20.3c0-12.9-3.9-19.7-11.3-19.7C382.8,181.4,378.6,188.6,378.6,200.9z"/>
		<path class="st1" d="M429.9,199.8c-2.9-2.9-4.5-7.6-4.5-13.3s1.6-10.4,4.6-13.4c2.9-2.8,7-4.3,11.7-4.3c4.8,0,8.9,1.5,11.7,4.3
			c3,3,4.5,7.6,4.5,13.3c0,5.9-1.6,10.5-4.6,13.5c-2.8,2.8-7,4.3-11.6,4.3C436.9,204.2,432.9,202.7,429.9,199.8z M483,168.1l4,3
			l-49.3,64l-3.9-3L483,168.1z M435.9,186.4c0,6.4,2,9.7,5.8,9.7c3.8,0,5.7-3.3,5.7-9.7c0-6.3-2-9.5-5.7-9.5
			S435.9,180.2,435.9,186.4z M467.4,229.8c-2.9-2.9-4.5-7.6-4.5-13.4c0-5.7,1.6-10.3,4.6-13.3c2.9-2.8,7-4.3,11.8-4.3
			c10.3,0,16.3,6.5,16.3,17.6c0,5.8-1.6,10.5-4.6,13.5c-2.8,2.8-7,4.3-11.7,4.3C474.4,234.2,470.3,232.7,467.4,229.8z M473.4,216.3
			c0,6.5,2,9.8,5.8,9.8c3.9,0,5.8-3.3,5.8-9.8c0-6.1-2-9.3-5.7-9.3C475.4,207,473.4,210.2,473.4,216.3z"/>
		<path class="st1" d="M565.6,201.2c0,20-12.2,33.2-30.6,33.2c-18.5,0-30.5-12.9-30.5-33c0-20,11.9-32.7,30.6-32.7
			S565.6,181.4,565.6,201.2z M549.9,201.3c0-12.3-5.6-19.7-14.7-19.7c-9.2,0-14.9,7.5-14.9,19.7c0,12.3,5.7,20,14.9,20
			C544.3,221.3,549.9,213.7,549.9,201.3z"/>
		<path class="st1" d="M592.6,219.8c0,7.1,0.1,9.8,0.6,13.2H577c0.5-3.3,0.7-6.4,0.7-12.9v-39.2c0-5-0.2-7.5-0.6-11
			c3.1,0.2,5.2,0.2,11,0.2h21.9c6.7,0,9.2-0.1,12.7-0.5v14.4c-3.3-0.4-6.3-0.5-12.6-0.5h-17.4v12.4h14.2c5.9,0,8.8-0.2,12.1-0.5v14
			c-3.3-0.4-6.4-0.5-12.1-0.5h-14.2V219.8z"/>
		<path class="st1" d="M648.4,219.8c0,7.1,0.1,9.8,0.6,13.2h-16.3c0.5-3.3,0.7-6.4,0.7-12.9v-39.2c0-5-0.2-7.5-0.6-11
			c3.1,0.2,5.2,0.2,11,0.2h21.9c6.7,0,9.2-0.1,12.7-0.5v14.4c-3.3-0.4-6.3-0.5-12.6-0.5h-17.4v12.4h14.2c5.9,0,8.8-0.2,12.1-0.5v14
			c-3.3-0.4-6.4-0.5-12.1-0.5h-14.2V219.8z"/>
	</g>
	<g>
		<path class="st0" d="M82.7,225.8c0,3.9,0.2,7,0.5,9.8h-12c0.3-2.6,0.5-6.2,0.5-9.8v-11.7c0-0.5,0-1.9,0.1-3.3
			c-2.3,2.1-3.8,3.3-6.5,5.3c-1.4-5-2.6-7.6-4.8-10.9c4.2-2.6,7-4.8,9.8-7.7c3.7-3.6,5.7-6.4,8.2-11.3h-8.8c-2.5,0-4.8,0.2-6.7,0.4
			v-11c2,0.3,4,0.4,7,0.4h1.7v-4.5c0-3.1-0.2-4.9-0.4-6.4h11.9c-0.4,1.5-0.5,3.1-0.5,6.4v4.5c3.1,0,4-0.1,5.1-0.3l4.5,6
			c-0.5,0.8-0.8,1.4-1.7,3.5c-2,4.5-4.2,8.2-7.2,12.6c0.8,0.8,1,1.1,1.8,1.8c3-3.6,4.8-6.4,6.6-10.3l7.1,5.4
			c-3.2,4.9-4.8,7.1-7.4,10.1c1.5,1.1,2,1.5,3.8,2.7c-2.4,2.7-3.9,4.9-5.7,8.7c-2.5-2.1-4.7-4.2-6.9-6.6V225.8z M112,179.7
			c0,0.8,0,0.8,0,2c-0.2,13.7-2,25.2-5.6,33.6c-3.2,7.7-7.4,13.3-14.8,19.9c-2.3-4.5-4.1-6.8-7.4-10c5.2-4.2,8.8-8.6,11.4-14.4
			c3-6.8,4.6-13.9,5.1-22.9c0-1.4,0.1-4.1,0.1-8.2c-3.7,0-6.5,0.2-9,0.4v-11.2c2.8,0.3,6,0.5,9.5,0.5h22.6c3.1,0,5.7-0.2,7-0.4
			c-0.3,2.8-0.4,3.2-0.5,14.5c-0.2,22.2-1.1,36.9-3,43.2c-1,3.2-2.9,5.4-5.7,6.4c-2,0.7-4.5,1-8.7,1c-2.3,0-3.4,0-6.1-0.1
			c-0.4-5-0.9-7.3-2.5-11.4c3.6,0.5,6.1,0.6,8,0.6c3.3,0,4-0.8,4.8-4.8c1.3-6.6,1.9-18.5,1.9-38.6H112z"/>
		<path class="st0" d="M198.2,235.8v-3.8h-43v3.8h-12c0.3-2.4,0.5-5.8,0.5-10.5v-48.9c0-3.5-0.1-5.8-0.4-8.8
			c2.7,0.3,5.1,0.4,8.8,0.4h49.2c3.7,0,6-0.1,8.8-0.4c-0.3,2.8-0.4,5.1-0.4,8.8v48.9c0,4.2,0.2,8.2,0.5,10.5H198.2z M155.1,221.7h43
			v-43.3h-43V221.7z M186,184c3,0,4.9-0.1,6.7-0.2c-0.2,1.9-0.2,3.9-0.2,6.2v19.7c0,2.3,0.1,4.2,0.2,6.2c-1.8-0.2-3.9-0.2-6.7-0.2
			h-18.9c-3.1,0-4.8,0.1-6.7,0.2c0.2-2.1,0.2-4.1,0.2-6.2v-19.7c0-2-0.1-3.9-0.2-6.2c1.8,0.2,3.7,0.2,6.7,0.2H186z M171.5,205.8
			h10.1v-12h-10.1V205.8z"/>
	</g>
</g>
<g>
	<g>
		<path class="st2" d="M61.1,308.1c10.3,0,18.6,2.6,24.9,7.7c6.3,5.1,9.5,11.9,9.5,20.3c0,11.4-5.2,19.9-15.5,25.4
			c5.9,2.1,10.4,5.6,13.4,10.4c3,4.8,4.5,10.5,4.5,17.1c0,9.9-3.4,17.8-10.3,23.9c-6.9,6.1-16,9.1-27.2,9.1
			c-8.9,0-17.4-2.1-25.5-6.3v-19.6c4.5,3,8.6,5.2,12.4,6.6c3.8,1.4,7.6,2,11.5,2c5.2,0,9.4-1.5,12.8-4.4c3.3-2.9,5-6.8,5-11.5
			c0-5.2-1.8-9.3-5.5-12.4c-3.7-3.1-8.7-4.7-15-4.7h-1.3v-17.3h1c5.9,0,10.6-1.3,13.9-3.9c3.3-2.6,5-6.2,5-10.6
			c0-4.4-1.6-7.9-4.8-10.6c-3.2-2.7-7.4-4-12.4-4c-6.3,0-12.8,1.7-19.7,5v-17.4C44.5,309.7,52.4,308.1,61.1,308.1z"/>
		<path class="st2" d="M120.6,398.8c4.2,0,7.6,1.6,10.2,4.7c2.5,3.1,3.8,7.3,3.8,12.6c0,6.9-2.3,13.1-6.9,18.5
			c-4.6,5.4-10.4,8.7-17.3,9.8v-4.2c5.1-4.3,7.6-9.9,7.6-16.8v-1.2l-0.2-1.3c-6-1.1-9-4.7-9-10.9c0-3.1,1.1-5.8,3.4-7.9
			C114.5,399.9,117.3,398.8,120.6,398.8z"/>
		<path class="st2" d="M209.7,308.1v64.8h9.5v16.3h-9.5v31.4h-20.4v-31.4h-45.4v-13l54.1-68.1H209.7z M188.8,341.8l-24.6,31.1h25
			v-31.1H188.8z"/>
		<path class="st2" d="M270.2,308.1c9.9,0,18,2.9,24.3,8.7s9.4,13.2,9.4,22.4c0,10-4.6,17.9-13.7,23.6c5.7,3,9.9,6.8,12.4,11.2
			c2.5,4.5,3.8,9.7,3.8,15.7c0,6.1-1.6,11.7-4.7,16.7c-3.1,5-7.5,8.8-13,11.6S277,422,270.2,422c-10.6,0-19.3-3-26.2-9.1
			c-6.9-6-10.3-13.8-10.3-23.3c0-6.3,1.4-11.6,4.1-16s6.8-8,12.2-10.9c-9.1-5.8-13.7-13.7-13.7-23.8c0-9.1,3.2-16.5,9.5-22.3
			C252.2,311,260.3,308.1,270.2,308.1z M254.4,388.7c0,5.5,1.4,9.8,4.3,12.9s6.7,4.7,11.5,4.7c4.8,0,8.6-1.6,11.4-4.7
			c2.8-3.2,4.2-7.3,4.2-12.5c0-5.2-1.4-9.5-4.3-12.8c-2.9-3.3-6.6-5-11.1-5c-4.8,0-8.6,1.6-11.6,4.7
			C255.9,379.1,254.4,383.3,254.4,388.7z M256.7,339.5c0,4.8,1.3,8.7,3.8,11.7c2.5,3,5.8,4.6,9.7,4.6c3.8,0,7-1.6,9.5-4.7
			c2.5-3.2,3.8-7,3.8-11.6c0-4.8-1.2-8.6-3.6-11.4c-2.4-2.8-5.7-4.2-9.7-4.2c-4.1,0-7.4,1.4-9.9,4.1
			C257.9,330.7,256.7,334.6,256.7,339.5z"/>
		<path class="st2" d="M383.4,308.1c-5.9,4.9-12.5,12.2-19.7,21.9c-7.2,9.6-12.3,18.1-15.4,25.4c4.1-1.7,8.4-2.6,12.7-2.6
			c5.7,0,10.9,1.4,15.6,4.3c4.7,2.9,8.3,6.9,10.9,12c2.6,5.1,3.9,10.8,3.9,17.1c0,6.6-1.5,12.7-4.6,18.2c-3.1,5.5-7.3,9.8-12.7,13
			c-5.4,3.2-11.3,4.7-17.6,4.7c-10.8,0-19.6-3.6-26.3-10.9c-6.7-7.3-10.1-16.8-10.1-28.4c0-11.6,3.5-24,10.5-37.3
			c7-13.2,16.5-25.7,28.5-37.3H383.4z M340.8,386.1c0,5.1,1.4,9.4,4.3,12.7c2.9,3.3,6.6,5,11.2,5c4.5,0,8.1-1.6,10.8-4.7
			c2.8-3.2,4.1-7.3,4.1-12.5c0-4.9-1.4-8.9-4.3-12.1c-2.8-3.2-6.5-4.8-11-4.8c-4.3,0-8,1.6-10.9,4.7
			C342.3,377.5,340.8,381.4,340.8,386.1z"/>
		<path class="st2" d="M418.3,409.6c0,5.5,0.1,8.4,0.4,10.6h-14c0.4-3.3,0.6-6.5,0.6-11v-55.9c0-3.9-0.1-6.1-0.3-8.7
			c3.1,0.3,5.5,0.3,11,0.3h50.9c5.6,0,8.3-0.1,10.6-0.3c-0.3,2.5-0.4,5.1-0.4,10.6v54.3c0,4.9-2,8.1-5.8,9.2c-1.8,0.6-5,0.8-9.4,0.8
			c-2.3,0-5.7-0.1-9.7-0.2c-0.8-4.7-1.7-7.7-3.9-12.4c5.5,0.5,9.3,0.8,11.9,0.8c3.3,0,3.9-0.3,3.9-1.8v-15.5h-45.8V409.6z
			 M434.4,357.1h-16.1v21.2h16.1V357.1z M464.1,378.3v-21.2h-17v21.2H464.1z"/>
		<path class="st2" d="M507.7,421.2c-5-8.8-6.6-11.8-8-15.5c-2.8-7-4.4-15.9-4.4-24.1c0-7.1,1.1-14.5,3.2-21.1
			c1.9-6.1,4-10.5,9.3-19.2h15.5c-6.5,10-8.8,14.8-10.8,22.3c-1.5,5.8-2.3,11.8-2.3,17.6c0,8.2,1.6,17,4.3,23.9
			c1.8,4.5,3.8,8.1,8.8,16.1H507.7z"/>
		<path class="st2" d="M578.4,387.5c-0.2,7.2-0.8,11.1-2.2,15.5c-2.5,7.8-7.1,13.4-14.9,18.1c-2.4-3.9-4.3-6.2-8.4-10.3
			c9.6-4.9,13.5-11.7,13.6-23.3c-2.3,0-3.6,0.1-5.5,0.3c-2.2,4.6-2.9,6.4-4.5,11.2c-1.9-2.2-3.3-4.2-5-7.5c0.2,1.5,0.2,1.8,0.2,3.6
			l0.1,2.9v12c0,5.3,0.1,7.8,0.5,10.9h-13.4c0.3-3.4,0.5-6.1,0.5-10.9v-8.9c0-1.9,0.2-5.5,0.3-7.3c-2.2,6.1-3.8,9-7.5,13.7
			c-1.6-5.6-2.9-8.5-5.3-12.7c5.3-6,9.2-12.9,11.1-19.6h-3c-3,0-4.3,0.1-6.4,0.4v-12.4c2,0.3,3.3,0.4,6.4,0.4h4.5v-5.8
			c-2.6,0.4-3.5,0.6-7.1,1.1c-0.9-4.1-1.9-6.7-4.3-11.2c9.4-1,15.6-2.4,22.8-5.2c1.3-0.4,2.5-1.1,3.6-1.8l7.3,10.4
			c-0.8,0.3-0.8,0.3-2.4,1c-1.8,0.8-4.8,1.8-7.6,2.6v8.8h1.3c2.9,0,4.3-0.1,5.9-0.3v12.2c-1.6-0.3-3.1-0.3-5.9-0.3H552
			c2.7,5.3,4.7,8.1,8.6,11.7c0.1-1.8,0.2-3.3,0.2-5.4v-17.1c0-2.1-0.1-4.1-0.3-6.3c2.4,0.3,3.8,0.3,6.8,0.3h0.9
			c-2-5.1-3.8-8.7-6.5-12.8l11.7-4.7c3,5.1,5,8.9,6.7,13.7l-8.4,3.8h11.5c3.1-6.6,4.7-11,6.2-17.4l13.2,3.8c-1,2.2-1,2.2-3.5,7.8
			c-0.8,1.8-1.7,3.5-3,5.8c3.9,0,5-0.1,7.4-0.3c-0.3,2.1-0.3,3.5-0.3,6.2v17.1c0,2.8,0.1,4.2,0.3,6.4c-2.4-0.3-4.1-0.3-7-0.3h-2.4
			v19.3c0,1.1,0.3,1.3,1.8,1.3c2,0,2,0,2-10.5c3.4,2.2,6.1,3.4,9.5,4.3c-0.6,10.1-1.1,12.9-2.6,15c-1.8,2.4-4.5,3-12.2,3
			c-8.5,0-10.8-1.8-10.8-8.2v-24.3H578.4z M572.7,375.9h17.7V370h-17.7V375.9z"/>
		<path class="st2" d="M634,394c6.3-4.6,11.1-9.9,14.6-16.1c2.2-4,4.1-9.1,5.2-14c0.5-2.1,0.7-3.1,1.3-7.9h-7.9
			c-2.9,0-4.9,0.1-7.1,0.3v-12.6c1.8,0.3,3.5,0.4,7.1,0.4h15.5c2.8,0,4.4-0.1,6.1-0.3c-0.1,1.6-0.2,3.4-0.2,4.7
			c0,7.5,1.7,15.3,4.8,22.5c2.2,4.9,4.5,8.7,7.7,12.4c3.1,3.6,5.4,5.5,10.3,9c-3.4,4.2-5.2,7.1-7.5,12.9c-5.5-3.9-8.8-7.2-12.6-12.1
			c-3.7-4.9-5.9-9-8.8-16.7c-2.6,7.8-4.6,11.9-8.5,17.1c-3.3,4.2-5.9,6.9-11.3,11.3c-2.8-4.5-4.6-6.7-8.7-10.2v6.1
			c0.7,1.6,1,2,2.5,3.2c3.7,2.9,7.7,3.5,20.7,3.5c14,0,25.7-0.6,35-1.8c-1.8,5.2-2.4,8.1-3.1,13.7c-5.9,0.3-22.8,0.5-30.6,0.5
			c-19.4,0-24.9-1.5-31.3-8.7c-2.4,2.4-4.5,4.3-8.7,7.4c-0.4,0.3-0.5,0.4-1.7,1.3c-0.4,0.3-0.6,0.5-1.1,0.8l-5.5-13.5
			c2.2-0.8,6.2-3.1,11.2-6.4v-15.9h-4.1c-1.8,0-3,0.1-5.2,0.4v-12.8c2.4,0.3,3.7,0.4,7,0.4h8.7c2.6,0,4.5-0.1,6.5-0.3
			c-0.3,2.6-0.3,4.5-0.3,9.5V394z M621.3,342.2c7,5.7,11.4,10.2,15.7,15.5l-9.7,9.8c-5.4-6.9-8.7-10.4-15.5-16.2L621.3,342.2z"/>
		<path class="st2" d="M694.8,421.2c6.9-10.8,9.1-15.4,11-22.7c1.4-5.5,2.2-11.8,2.2-18c0-7.8-1.8-17-4.7-24
			c-1.8-4.5-3.8-8-8.5-15.1h15.5c5.7,9.5,8,14.4,9.9,21.3c1.8,6.3,2.5,12.1,2.5,18.6c0,8.6-1.6,17.5-4.4,24.5c-1.4,3.7-3,6.7-8,15.5
			H694.8z"/>
	</g>
</g>
<g>
	<g>
		<path class="st2" d="M529.9,458.3v96.5H28.8v-96.5H529.9 M532.8,455.4H25.9v102.3h506.9V455.4L532.8,455.4z"/>
	</g>
	<rect x="378.3" y="455.4" class="st2" width="355.7" height="102.3"/>
	<g>
		<path class="st1" d="M417.7,518.9c0.4,2.2,0.7,3.1,1.7,4.3c1.7,1.9,4.2,2.9,7.1,2.9c4.8,0,7.9-2.6,7.9-6.7c0-2.7-1.2-4.9-3.3-5.7
			c-1.4-0.5-3.3-0.9-5.8-0.9c-2.4,0-5.2,0.1-7.6,0.4v-11.5c2.1,0.3,4.2,0.4,6.6,0.4c5.9,0,8.8-2.1,8.8-6.4c0-3.6-2.4-5.7-6.4-5.7
			c-4.4,0-6.6,1.9-7.6,6.1l-13.4-2.1c1.2-4.1,2.2-6.1,4.2-8.5c3.8-4.4,9.5-6.7,17-6.7c6.8,0,12.3,2,15.9,5.7
			c2.3,2.5,3.5,5.7,3.5,9.5c0,7.1-3.5,11.5-10.7,13.3c3.8,0.6,5.8,1.5,8,3.5c2.6,2.5,4.1,6,4.1,9.9c0,3.4-0.9,6.5-2.5,8.9
			c-1.4,2-3.5,3.9-5.8,5c-3.2,1.6-8.2,2.6-12.9,2.6c-5.6,0-11.2-1.4-14.4-3.7c-2.9-2-5-4.9-6.4-8.6c-0.4-0.9-0.6-1.8-1.1-3.5
			L417.7,518.9z"/>
		<path class="st1" d="M462.3,530.9c-2-2.2-3.6-4.7-4.5-7.4c-1.6-4.7-2.4-9.9-2.4-15.3c0-7,1.5-14.3,3.9-18.5
			c3.8-6.8,10.2-10.5,18-10.5c6,0,11.3,2.2,15.1,6.2c2,2.2,3.6,4.7,4.5,7.4c1.6,4.7,2.4,9.9,2.4,15.3c0,7-1.5,14.3-3.9,18.5
			c-3.7,6.7-10.2,10.4-18.1,10.4C471.2,537.1,466.1,534.9,462.3,530.9z M468,507.7c0,11.9,3.2,18.1,9.3,18.1c6.1,0,9.2-6,9.2-17.9
			c0-11.4-3.2-17.4-9.2-17.4C471.5,490.5,468,496.8,468,507.7z"/>
		<path class="st1" d="M510.1,506.7c-2.4-2.5-3.7-6.7-3.7-11.7c0-5.1,1.3-9.1,3.8-11.8c2.4-2.5,5.7-3.8,9.6-3.8c4,0,7.3,1.3,9.6,3.8
			c2.5,2.7,3.7,6.7,3.7,11.7c0,5.2-1.3,9.3-3.8,11.9c-2.3,2.5-5.7,3.8-9.5,3.8C515.8,510.5,512.5,509.2,510.1,506.7z M553.6,478.7
			l3.3,2.7l-40.4,56.4l-3.2-2.7L553.6,478.7z M515,494.9c0,5.6,1.6,8.5,4.8,8.5c3.1,0,4.7-2.9,4.7-8.5c0-5.5-1.6-8.3-4.7-8.3
			C516.7,486.5,515,489.4,515,494.9z M540.8,533.1c-2.4-2.5-3.7-6.7-3.7-11.8c0-5,1.3-9.1,3.8-11.7c2.4-2.5,5.7-3.8,9.7-3.8
			c8.4,0,13.3,5.7,13.3,15.5c0,5.1-1.3,9.3-3.8,11.9c-2.3,2.5-5.7,3.8-9.6,3.8C546.6,537,543.2,535.7,540.8,533.1z M545.7,521.2
			c0,5.7,1.6,8.7,4.8,8.7c3.2,0,4.8-2.9,4.8-8.7c0-5.4-1.6-8.2-4.7-8.2C547.4,513,545.7,515.8,545.7,521.2z"/>
		<path class="st1" d="M621.3,507.9c0,17.6-10,29.3-25,29.3c-15.2,0-25-11.4-25-29.1c0-17.6,9.8-28.9,25-28.9
			S621.3,490.4,621.3,507.9z M608.4,508c0-10.8-4.6-17.3-12.1-17.3c-7.6,0-12.2,6.6-12.2,17.3c0,10.9,4.6,17.6,12.2,17.6
			C603.8,525.6,608.4,518.9,608.4,508z"/>
		<path class="st1" d="M643.4,524.3c0,6.3,0.1,8.7,0.5,11.6h-13.3c0.4-2.9,0.6-5.6,0.6-11.4v-34.5c0-4.4-0.1-6.6-0.5-9.7
			c2.5,0.1,4.3,0.2,9,0.2h17.9c5.5,0,7.5-0.1,10.4-0.5v12.7c-2.7-0.3-5.1-0.5-10.4-0.5h-14.3v10.9h11.7c4.8,0,7.2-0.1,9.9-0.5v12.3
			c-2.7-0.3-5.2-0.5-9.9-0.5h-11.7V524.3z"/>
		<path class="st1" d="M689.2,524.3c0,6.3,0.1,8.7,0.5,11.6h-13.3c0.4-2.9,0.6-5.6,0.6-11.4v-34.5c0-4.4-0.1-6.6-0.5-9.7
			c2.5,0.1,4.3,0.2,9,0.2h17.9c5.5,0,7.5-0.1,10.4-0.5v12.7c-2.7-0.3-5.1-0.5-10.4-0.5h-14.3v10.9h11.7c4.8,0,7.2-0.1,9.9-0.5v12.3
			c-2.7-0.3-5.2-0.5-9.9-0.5h-11.7V524.3z"/>
	</g>
	<g>
		<g>
			<path class="st2" d="M69.7,535.8c-5.4,0-6.8,0.1-9,0.3c0.2-3.3,0.5-5.3,1.3-7.9c1.6-5.5,4.4-10.6,8.6-14.9
				c2.3-2.3,4.6-4.3,10.7-8.9c5.2-3.9,6.4-5.6,6.4-8.7c0-3.2-2.6-5.3-6.4-5.3c-2.9,0-4.9,1.1-6.2,3.3c-0.8,1.5-1.2,2.8-1.5,5.6
				L61,497.9c0.9-5.8,2-8.7,4.4-11.9c3.4-4.5,8.9-6.9,15.9-6.9c8.1,0,14.3,3,17.3,8.4c1.3,2.3,2,4.9,2,7.8c0,4.9-1.8,9-5.5,12.4
				c-2,1.9-2.6,2.4-8.7,7.1c-5.2,4-7.4,6.3-8.8,9.3h14c4.5,0,7.3-0.1,9.6-0.5v12.6c-3.5-0.3-6-0.5-10.3-0.5H69.7z"/>
			<path class="st2" d="M154.4,539.7v-3.3h-34.1v3.3h-9.5c0.2-2.1,0.4-5.1,0.4-9.3v-43.1c0-3.1-0.1-5.1-0.3-7.8
				c2.2,0.3,4.1,0.3,7,0.3h39c2.9,0,4.8-0.1,7-0.3c-0.2,2.5-0.3,4.5-0.3,7.8v43.1c0,3.7,0.1,7.2,0.4,9.3H154.4z M120.2,527.2h34.1
				v-38.2h-34.1V527.2z M144.7,494c2.4,0,3.9-0.1,5.3-0.2c-0.1,1.7-0.2,3.5-0.2,5.5v17.4c0,2.1,0.1,3.7,0.2,5.5
				c-1.4-0.1-3.1-0.2-5.3-0.2h-15c-2.5,0-3.8,0.1-5.3,0.2c0.1-1.9,0.2-3.6,0.2-5.5v-17.4c0-1.8-0.1-3.5-0.2-5.5
				c1.4,0.1,2.9,0.2,5.3,0.2H144.7z M133.2,513.2h8v-10.6h-8V513.2z"/>
			<path class="st2" d="M215.1,479.3c2.8,0,4.8-0.1,6.7-0.3c-0.2,2.9-0.3,5.3-0.3,7.5v44c0,3.7,0.1,6.3,0.4,9h-9.7v-3h-26v3h-9.6
				c0.2-2.7,0.4-5.2,0.4-8.1v-44.7c0-2.5-0.1-4.9-0.3-7.6c2,0.2,4.1,0.3,6.9,0.3H215.1z M212.1,495.1v-6.3h-26v6.3H212.1z
				 M186.1,510.8h26v-6.6h-26V510.8z M186.1,526.8h26v-6.9h-26V526.8z"/>
			<path class="st2" d="M237.7,487.2c-0.1-4.3-0.2-6.5-0.5-8.9h10.2c-0.2,1.9-0.3,3.8-0.3,7c0,0.4,0,1.1,0,1.9l0.3,29.7
				c5-2.6,9.1-5.1,14.1-8.5l1.6,9.8c-7.8,5.7-14.3,9.5-26.3,15.4c-0.4,0.2-1.1,0.6-1.8,1l-2.5-11c1.7-0.5,2.7-0.9,5.4-2.1
				L237.7,487.2z M284.5,478.2c-0.1,1.3-0.1,1.7-0.2,4.2c-0.4,15.8-2.3,26.5-6.5,35.2c2.8,4.7,6.6,8.6,11.3,11.7
				c-2.5,3.9-3.8,6.7-5.4,10.7c-4.3-3.5-8-7.9-11.4-13.5c-4.7,6-10.1,10.1-18.3,14c-1.4-3.8-2.7-6.1-5.2-9.3
				c11-4.8,17-10.2,20.8-18.5c3.3-7.1,5-17.3,5-29.6c0-2.3-0.1-3.1-0.4-4.9H284.5z M258.1,481.6c5.3,6.1,7.9,9.6,12.2,16.7l-8.6,6.5
				c-4.1-7.7-6.8-11.9-11.6-17.7L258.1,481.6z"/>
			<path class="st2" d="M350.2,484.5c-0.5,0.8-0.5,0.8-1.2,1.9c-2.3,3.9-4.8,7-7.3,9.5c3.7,1,7.1,1.5,11.3,1.9
				c-1.5,3.3-2.2,5.6-3,9.2c-3.2-0.4-4.6-0.7-7.4-1.4c-0.1,1.2-0.1,2.1-0.1,3.1h2.1c3.4,0,4.1,0,5.8-0.2v9.4
				c-1.6-0.2-2.6-0.3-5.8-0.3h-2.1v4.9h3.8c2.9,0,4.1-0.1,5.8-0.3v9.5c-1.9-0.3-4-0.4-7-0.4h-2.6v2.2c0,2.7,0.1,4.3,0.4,6.1h-9.4
				c0.3-2,0.4-3.5,0.4-6.2v-2.1h-12.4c-3.2,0-5.4,0.1-7.3,0.4V524c-1.6,0.9-3.6,1.3-6.7,1.4c-0.1-4.6-0.5-7.3-1.4-9.2v14.7
				c0,3.9,0.1,6.7,0.3,8.8h-9.3c0.2-2.8,0.4-5.8,0.4-9.1V486c0-2.7-0.1-4.5-0.2-7.4c1,0.2,2.3,0.3,4.6,0.3h9.1
				c2.2,0,3.2-0.1,4.3-0.3l4.1,6.5c3.5-3.1,5.4-5.7,6.7-9.1l9.4,1.1c-0.2,0.5-0.2,0.5-0.6,1.3c-0.3,0.6-0.7,1.3-1,1.8h7.8
				c2.2,0,3.2-0.1,4.4-0.3L350.2,484.5z M306.1,500.9c1.7-4.2,2.9-8,4-12.8h-4V500.9z M306.1,515.9c0.6,0.1,0.9,0.1,1.4,0.1
				c1.3,0,1.6-0.6,1.6-2.3c0-3.9-1-7.4-3.1-11.5V515.9z M318.2,508.5c0.2,0.1,0.7,0.1,1.5,0.1c-1.4-3.8-2.2-5.1-4.6-8.1
				c3.8-1,7.1-2.2,10.1-3.6c-0.9-0.8-1.9-1.7-2.9-2.7c-1.1,0.9-1.9,1.3-3.8,2.5c-0.9-1.7-1.3-2.3-2-3.5c-1.1,3.1-1.6,4.4-3.4,8.4
				c3,5.3,4.3,9.7,4.3,14.2c0,2.8-0.6,4.9-1.7,6.7c0.6,0,0.7,0,1,0h4.1v-4.9c-1,0-1.6,0.1-2.6,0.2V508.5z M340.3,505
				c-1.9-0.6-4.4-1.5-6.6-2.6c-4.5,2.9-8.4,4.7-13.3,6.3c0.5,0,0.8,0,1.7,0h11.6c0-1.3,0-1.3-0.2-3.7H340.3z M328.4,488.5
				c1.9,1.9,2.2,2.2,4.6,3.7c1.7-1.3,2.5-1.9,4.1-3.7H328.4z M333.8,517.6h-4.3v4.9h4.3V517.6z"/>
		</g>
	</g>
</g>
</svg>
