<?xml version="1.0" encoding="utf-8"?>
<!-- Generator: Adobe Illustrator 25.4.1, SVG Export Plug-In . SVG Version: 6.00 Build 0)  -->
<svg version="1.1" id="レイヤー_1" xmlns="http://www.w3.org/2000/svg" xmlns:xlink="http://www.w3.org/1999/xlink" x="0px"
	 y="0px" viewBox="0 0 765 242" style="enable-background:new 0 0 765 242;" xml:space="preserve">
<style type="text/css">
	.st0{fill:#E0172A;}
	.st1{fill:#FFFFFF;}
</style>
<g>
	<rect x="358.7" y="1.5" class="st0" width="177.2" height="76"/>
	<g>
		<path class="st1" d="M404.6,60.3c0,3,0.1,5.5,0.4,7.6h-9.4c0.2-2.1,0.4-4.9,0.4-7.6v-9.2c0-0.4,0-1.5,0.1-2.5
			c-1.8,1.7-3,2.5-5.1,4.1c-1.1-3.9-2-5.9-3.7-8.5c3.3-2.1,5.4-3.8,7.7-6c2.9-2.8,4.4-5,6.5-8.9h-6.9c-2,0-3.7,0.1-5.3,0.3V21
			c1.5,0.2,3.1,0.3,5.4,0.3h1.4v-3.5c0-2.4-0.1-3.8-0.3-5h9.4c-0.3,1.2-0.4,2.4-0.4,5v3.6c2.4,0,3.1-0.1,4-0.2l3.6,4.7
			c-0.4,0.7-0.7,1.1-1.4,2.7c-1.6,3.6-3.3,6.4-5.6,9.8c0.6,0.7,0.8,0.8,1.4,1.4c2.4-2.8,3.7-5,5.2-8.1l5.6,4.3
			c-2.5,3.8-3.7,5.6-5.8,7.9c1.2,0.8,1.6,1.2,3,2.1c-1.9,2.1-3,3.8-4.5,6.8c-2-1.7-3.7-3.3-5.4-5.2V60.3z M427.5,24.2
			c0,0.6,0,0.6,0,1.6c-0.1,10.7-1.6,19.7-4.4,26.3c-2.5,6-5.8,10.4-11.6,15.6c-1.8-3.6-3.2-5.3-5.8-7.8c4.1-3.3,6.9-6.7,8.9-11.2
			c2.4-5.3,3.6-10.9,4-17.9c0-1.1,0.1-3.2,0.1-6.5c-2.9,0-5.1,0.1-7,0.3v-8.8c2.2,0.2,4.7,0.4,7.5,0.4h17.7c2.4,0,4.5-0.1,5.5-0.3
			c-0.2,2.2-0.3,2.5-0.4,11.4c-0.1,17.4-0.9,28.9-2.4,33.8c-0.8,2.5-2.3,4.3-4.5,5c-1.5,0.5-3.5,0.8-6.8,0.8c-1.8,0-2.7,0-4.8-0.1
			c-0.3-3.9-0.7-5.7-2-8.9c2.8,0.4,4.8,0.5,6.3,0.5c2.5,0,3.1-0.6,3.7-3.7c1-5.2,1.5-14.4,1.5-30.3H427.5z"/>
		<path class="st1" d="M498,68.2v-3h-33.7v3h-9.4c0.2-1.9,0.4-4.6,0.4-8.2V21.7c0-2.7-0.1-4.6-0.3-6.9c2.1,0.2,4,0.3,6.9,0.3h38.5
			c2.9,0,4.7-0.1,6.9-0.3c-0.2,2.2-0.3,4-0.3,6.9V60c0,3.3,0.1,6.4,0.4,8.2H498z M464.3,57.1h33.6V23.2h-33.6V57.1z M488.4,27.6
			c2.4,0,3.8-0.1,5.3-0.2c-0.1,1.5-0.2,3.1-0.2,4.9v15.5c0,1.8,0.1,3.3,0.2,4.9c-1.4-0.1-3.1-0.2-5.3-0.2h-14.8
			c-2.4,0-3.7,0.1-5.3,0.2c0.1-1.7,0.2-3.2,0.2-4.9V32.3c0-1.6-0.1-3.1-0.2-4.9c1.4,0.1,2.9,0.2,5.3,0.2H488.4z M477.1,44.7h7.9
			v-9.4h-7.9V44.7z"/>
	</g>
	<g>
		<path d="M574.5,37H565c-2.5,0-4.1,0.1-5.6,0.2v-4.6h-6.1c0.2-1.4,0.3-2.7,0.3-4.7v-5c0-1.3-0.1-2.7-0.2-4.2
			c2.1,0.2,4.1,0.2,6.4,0.2h13.1v-1.1c0-1.4-0.1-2.5-0.3-3.5h9.1c-0.2,1.2-0.3,1.9-0.3,3.4v1.1h13.7c2.2,0,4.3-0.1,6.4-0.2
			c-0.2,1.6-0.2,2.7-0.2,4.2v5c0,1.7,0.1,3.1,0.3,4.7h-6v4.6c-1.6-0.2-3-0.2-5.7-0.2h-7.5v5h9.6c2.8,0,3.9-0.1,5.5-0.3v7.7
			c-1.6-0.2-2.9-0.2-5.5-0.2h-9.6v6.5c2,0.2,3.5,0.2,5.5,0.2c4.7,0,8.6-0.2,15-0.7c-1,3.2-1.4,5.2-1.8,8.3
			c-5.6,0.2-7.8,0.2-10.8,0.2c-8.6,0-13.8-0.6-17.3-2c-3.3-1.3-5.9-3.2-8.1-6c-2,3.8-3.7,6.1-6.6,9.3c-1.9-2.5-3.5-4-6.4-6.3
			c4.6-4.5,7-8.4,8.8-14.1c0.6-1.9,1.2-4.2,1.3-5.4l8.2,1.5c-0.3,1.3-0.5,2.2-0.6,2.6c-0.3,1.3-0.8,2.9-1.5,5
			c1.2,1.9,1.7,2.4,2.7,3.4c1.2,1,2.3,1.7,3.8,2.4V37z M593.4,26.3h-31.9v3.4c1.2,0.1,1.9,0.1,3.5,0.1h24.9c1.6,0,2.3,0,3.5-0.1
			V26.3z"/>
		<path d="M641,48.4c-0.9,8.3-2.2,12.2-5.7,17c-1.6-2.1-3-3.6-4.8-5.3c-1.8,1.3-2.8,2.3-4.3,3.9c-2.6-3.2-3.4-4.4-6-9l4.9-2.8h-10.2
			l4.9,3c-2.8,4.7-4.5,6.8-8.2,10.3c-1.9-2.6-2.7-3.4-5.7-5.9c3.3-2.6,4.9-4.3,7-7.4h-2.6c-2.2,0-3,0.1-4,0.2v-7.4
			c1,0.2,1.6,0.2,3.6,0.2V26.5c-1.6,0-2.4,0.1-3.2,0.2v-7.4c0.9,0.2,1.7,0.2,3.2,0.2v-0.8c0-1.7-0.1-2.8-0.2-4h8
			c-0.2,1.2-0.2,2.2-0.2,4v0.8h5v-0.8c0-1.8-0.1-2.8-0.2-4h8c-0.2,1.1-0.2,2.2-0.2,4v0.8c1.4-0.1,1.9-0.1,2.8-0.2v7.4
			c-0.9-0.1-1.3-0.1-2.8-0.2v18.6c1-0.1,1.4-0.1,2.1-0.2v7.4c-1-0.1-1.9-0.2-4.1-0.2h-1.5c1.3,2.2,2.2,3.4,3.9,5.2
			c3-4.5,3.7-10.5,3.7-32.5c0-4.7-0.1-6.5-0.3-8.9c2.1,0.2,3.5,0.3,6.7,0.3h8.2c3.4,0,4.8-0.1,6.4-0.3c-0.2,1.5-0.2,3.1-0.2,6.6v35
			c0,3.1-0.8,5.1-2.5,6.2c-1.3,0.8-3.4,1.1-6.9,1.1c-0.5,0-1.3,0-2.4-0.1c-0.4-3.2-0.9-5-1.9-8.1c2.3,0.3,3.1,0.4,3.9,0.4
			c1.6,0,1.9-0.2,1.9-1.1v-7.5H641z M622.4,28.7v-2.3h-5v2.3H622.4z M622.4,36.8v-2.4h-5v2.4H622.4z M622.4,45.1v-2.5h-5v2.5H622.4z
			 M641.7,35.9c-0.1,2.6-0.1,3.4-0.2,5.3h5.4v-5.3H641.7z M646.9,23.7h-5.2v5h5.2V23.7z"/>
		<path d="M677.3,46.8c0,2.8,0,3.7,0.1,4.6c-0.8-0.1-1.1-0.1-2.3-0.1c1.1,3.1,2.3,5.6,4.2,8.2c-1.8,0.9-3.2,1.9-5.9,4
			c-1.6-2.8-2.5-4.8-3.7-8.2c-1.2,3.9-2.3,6.2-4.6,9.3c-2.3-1.9-3.7-3-6-4.2c2.3-3.1,3.5-5.4,4.6-9.1c-1.3,0-1.6,0-2.7,0.1
			c0.2-1.9,0.2-3.9,0.2-5.9V20.7c0-1.9-0.1-3.3-0.2-5c1.3,0.2,2.4,0.2,4.6,0.2h7.4c2.1,0,3.1-0.1,4.2-0.2c-0.1,1.3-0.2,2.1-0.2,4.4
			V46.8z M674.1,51.3h-8.9l4.6,2.3L674.1,51.3z M668.1,26h3v-3.1h-3V26z M668.1,35h3v-3h-3V35z M668.1,44.3h3v-3.1h-3V44.3z
			 M682,36.1c-1.6,0-2.5,0.1-3.8,0.2v-6c1,0.2,2.1,0.2,3.8,0.2h1.8v-1.6h-1.1c-1,0-2.5,0.1-3.2,0.2v-5c0.2,0.1,0.3,0.1,0.4,0.1
			c0.3,0.1,1.2,0.1,2.8,0.1h1.1v-1.6H682c-1.4,0-2.2,0.1-3.3,0.2v-5.7c1.1,0.2,2,0.2,3.6,0.2h1.5c0-1.6-0.1-2-0.3-2.9h8.1
			c-0.3,0.8-0.3,1.3-0.3,2.9h4.5c0-1.8-0.1-1.9-0.3-2.9h8.1c-0.3,0.9-0.3,1.4-0.3,2.9h2.9c1.5,0,2.4-0.1,3.3-0.2v5.7
			c-1-0.1-1.9-0.2-3.3-0.2h-2.9v1.6h2.1c1.2,0,2.3-0.1,3-0.2v5c-0.8-0.1-2.1-0.2-3.1-0.2h-1.9v1.6h3.1c2,0,3-0.1,3.7-0.2v6
			c-0.9-0.2-1.9-0.2-3.7-0.2h-9v1.6h5.6c2.3,0,3.9-0.1,4.7-0.2c-0.2,2.6-0.2,2.6-0.2,3.6v8.9c1.2,0,1.8-0.1,2.6-0.2v7
			c-0.9-0.1-1.4-0.2-2.6-0.2c0,0.7,0,1.3,0,1.7c0,3.4-0.4,4.7-1.8,5.5c-1.1,0.6-2.6,0.8-6.3,0.8c-0.5,0-0.5,0-3.2-0.1
			c-0.3-2.8-0.5-3.9-1.3-6.1c1.4,0.3,2.6,0.4,3.6,0.4c1.3,0,1.8-0.3,1.8-1v-1.2h-13.1v0.9c0,4,0.1,5,0.3,7.3h-7.8
			c0.2-2.2,0.3-3.4,0.3-7.3v-0.9c-0.9,0.1-1.2,0.1-2,0.2v-6.9c0.7,0.1,1.1,0.1,2,0.2v-7.7c0-2.4-0.1-3.5-0.2-4.7
			c1.2,0.1,2.5,0.2,4.3,0.2h5.6v-1.6H682z M690.3,42.6h-3.2v1.8h3.2V42.6z M690.3,48.7h-3.2v1.9h3.2V48.7z M691.3,24.2h4.5v-1.6
			h-4.5V24.2z M691.3,30.5h4.5v-1.6h-4.5V30.5z M700.2,44.5v-1.8h-3.4v1.8H700.2z M700.2,50.5v-1.9h-3.4v1.9H700.2z"/>
		<path d="M728.3,23.7c-1.9,0-3.8,0.1-6.2,0.3v-8.5c1.9,0.3,3.1,0.3,6.1,0.3h9.9c1.9,0,3.3-0.1,4.8-0.2c-0.1,1.5-0.1,2.4-0.1,3.4
			c0,8.4,2.4,16.7,6.9,23.5c3.5,5.5,8.6,10.1,14.9,13.6c-2.7,2.7-4.1,4.7-5.9,8.5c-4.6-3.1-7.5-5.7-11-9.8
			c-4.5-5.3-6.8-9.6-8.7-15.9c-2.1,6.6-4.2,10.5-7.8,15c-3.3,4.1-6.9,7.2-12.6,10.8c-1.7-3.3-3.2-5.3-5.7-7.7
			c4.2-2.3,6.4-3.9,9.1-6.5c4.6-4.5,8.1-10.1,9.9-16.3c1-3.3,1.4-6,1.8-10.5H728.3z"/>
	</g>
	<g>
		<path d="M25.9,98c-0.6,5.6-1.2,11.8-2.2,18.7c12.8-14.6,28.9-22.4,50.1-22.4c44.2,0,75.9,27.1,75.9,67.5c0,46-33.9,77.1-80.9,77.1
			c-43.5,0-68.4-20.2-68.4-43.5c0-14.6,10.9-24.9,24.6-24.9c14.3,0,24.3,9,24.3,23c0,5.9-3.7,12.1-8.7,15.6
			c-2.8,1.9-3.4,3.1-3.4,5.9c0,10.9,10,17.4,23.6,17.4c25.8,0,42.6-25.5,42.6-70c0-38.6-18.7-58.2-41.4-58.2
			c-13.7,0-27.7,8.4-36.7,22.1c-1.2,1.9-1.9,2.8-3.7,2.8c-4.4,0-8.1-2.5-8.1-4.4c0-3.4,1.2-2.5,1.9-8.7l9.3-103.9
			c0-0.9,0.3-2.2,2.2-4c1.9-1.6,2.8-1.9,4.4-1.9c13.4,0.3,32.7,0.3,48.5,0.3c16.5,0,40.4-0.3,62.2-1.2c2.2,0,2.8,0.9,2.8,2.5
			l-12.4,34.5c-1.2,1.6-2.8,2.2-4,2.2c-15.9-0.6-24.6-0.9-38.3-0.9H31.2L25.9,98z"/>
		<path d="M330.3,117.9c0,77.1-35.1,121-79.3,121c-43.9,0-78.1-41.1-78.1-118.2c0-77.1,35.1-120.4,79-120.4
			C295.8,0.4,330.3,40.8,330.3,117.9z M219.2,119.5c0,92.1,9,112.9,32,112.9s32.7-20.8,32.7-112.9S274.3,6.9,251.6,6.9
			S219.2,27.4,219.2,119.5z"/>
	</g>
	<g>
		<g>
			<path d="M404.8,139.7c0,23.1-11.6,39-26,39c-14.3,0-25.9-14.9-25.9-38c0-22.9,11.9-39,26.1-39C393.4,101.7,404.8,117,404.8,139.7
				z M368.8,140.2c0,25.3,2.5,35.5,10.2,35.5c7.7,0,10.1-10.2,10.1-35.5c0-25.1-2.5-35.5-10.1-35.5
				C371.3,104.6,368.8,115,368.8,140.2z M373.6,238.7l70.7-143.1l3.8,2.9l-70.7,143.1L373.6,238.7z M469.1,195.7
				c0,23.1-11.6,39-26,39c-14.3,0-25.9-14.9-25.9-38c0-22.9,11.9-39,26.1-39S469.1,173,469.1,195.7z M433.1,196.2
				c0,25.3,2.5,35.5,10.2,35.5c7.7,0,10.1-10.2,10.1-35.5c0-25.1-2.5-35.5-10.1-35.5C435.6,160.7,433.1,171.1,433.1,196.2z"/>
			<path d="M583.1,165.9c0,40.6-23.8,68.8-51.6,68.8c-27.8,0-51.3-26.7-51.3-67.3c0-40.6,23.9-68.7,51.6-68.7
				C559.4,98.7,583.1,125.3,583.1,165.9z M503.8,166.7c0,42.7,10.8,64,27.8,64c17.1,0,27.8-21.3,27.8-64c0-42.7-10.9-64-27.8-64
				S503.8,124.1,503.8,166.7z"/>
			<path d="M625.6,212.5c0,12.3,0.7,15.1,14.1,16c1.3,0,1.4,0.3,1.4,1.7c0,1.2-0.1,1.4-1.4,1.4c-6.7-0.3-16.4-0.5-24-0.5
				c-7.5,0-16.8,0.2-22.8,0.5c-1.3,0-1.4-0.2-1.4-1.4c0-1.4,0.1-1.6,1.4-1.7c11.5-0.9,13.1-3.6,13.1-16v-91.7
				c0-12.3-1.5-14.9-14.1-16c-1.3-0.2-1.4-0.3-1.4-1.6c0-1.4,0.1-1.6,1.4-1.6c11.5,0.3,25.6,0.5,38.2,0.5c13,0,27.3-0.2,39.4-0.5
				c0.8,9,2.5,25.1,3.5,34.2c0,1.4-0.7,1.9-2,1.9c-0.6,0-0.8-0.5-1.1-1.4c-2.5-8.7-6.4-15.3-11.7-21c-5-5.4-11.5-8.5-21.9-8.5
				c-9.9,0-10.6,1.7-10.6,13.7v40.8c2.1,0.2,3.6,0.2,5.7,0.2c8.9,0,14.3-2.3,17.1-4.9c3.4-3.1,5.5-6.9,6.4-13.2
				c0.3-1.7,0.4-1.9,1.7-1.9c1.3,0,1.4,0.2,1.4,1.9c-0.1,6.1-0.1,14.2-0.1,20.5c0,6.4,0,15.1,0.1,21.5c0,1.6-0.1,1.7-1.4,1.7
				c-1.3,0-1.4-0.2-1.7-1.7c-1.3-7.3-3.6-11.8-6.6-14.7c-2.7-2.6-8.1-4.5-16.9-4.5c-2.1,0-3.6,0-5.7,0.2V212.5z"/>
			<path d="M714.6,212.5c0,12.3,0.7,15.1,14.1,16c1.3,0,1.4,0.3,1.4,1.7c0,1.2-0.1,1.4-1.4,1.4c-6.7-0.3-16.4-0.5-24-0.5
				c-7.5,0-16.8,0.2-22.8,0.5c-1.3,0-1.4-0.2-1.4-1.4c0-1.4,0.1-1.6,1.4-1.7c11.5-0.9,13.1-3.6,13.1-16v-91.7
				c0-12.3-1.5-14.9-14.1-16c-1.3-0.2-1.4-0.3-1.4-1.6c0-1.4,0.1-1.6,1.4-1.6c11.5,0.3,25.6,0.5,38.2,0.5c13,0,27.3-0.2,39.4-0.5
				c0.8,9,2.5,25.1,3.5,34.2c0,1.4-0.7,1.9-2,1.9c-0.6,0-0.8-0.5-1.1-1.4c-2.5-8.7-6.4-15.3-11.7-21c-5-5.4-11.5-8.5-21.9-8.5
				c-9.9,0-10.6,1.7-10.6,13.7v40.8c2.1,0.2,3.6,0.2,5.7,0.2c8.9,0,14.3-2.3,17.1-4.9c3.4-3.1,5.5-6.9,6.4-13.2
				c0.3-1.7,0.4-1.9,1.7-1.9c1.3,0,1.4,0.2,1.4,1.9c-0.1,6.1-0.1,14.2-0.1,20.5c0,6.4,0,15.1,0.1,21.5c0,1.6-0.1,1.7-1.4,1.7
				c-1.3,0-1.4-0.2-1.7-1.7c-1.3-7.3-3.6-11.8-6.6-14.7c-2.7-2.6-8.1-4.5-16.9-4.5c-2.1,0-3.6,0-5.7,0.2V212.5z"/>
		</g>
	</g>
</g>
</svg>
