<?xml version="1.0" encoding="utf-8"?>
<!-- Generator: Adobe Illustrator 25.4.1, SVG Export Plug-In . SVG Version: 6.00 Build 0)  -->
<svg version="1.1" id="レイヤー_1" xmlns="http://www.w3.org/2000/svg" xmlns:xlink="http://www.w3.org/1999/xlink" x="0px"
	 y="0px" viewBox="0 0 760 558" style="enable-background:new 0 0 760 558;" xml:space="preserve">
<style type="text/css">
	.st0{fill:#E0172A;}
	.st1{fill:#FFFF00;}
	.st2{fill:#00A141;}
</style>
<g>
	<path class="st0" d="M59,0c10.5,0,18.9,3,25.2,9c6.2,6,9.3,14,9.3,24c0,7.6-2.3,15.9-7,24.8S73.8,78.6,62.1,93.3h38.1v19.2H28.2
		v-2.3c8.4-10.3,15.6-19.6,21.6-27.9c6-8.2,10.7-15.1,14-20.5c3.3-5.4,5.6-10.1,7-13.9c1.4-3.8,2.1-7.8,2.1-11.8
		c0-5.1-1.6-9.4-4.9-12.8c-3.3-3.5-7.2-5.2-11.9-5.2C47.7,18,39,22.8,30,32.4V10.6C39.5,3.5,49.2,0,59,0z"/>
	<path class="st0" d="M127.1,90.7c4.2,0,7.6,1.6,10.2,4.7c2.5,3.1,3.8,7.3,3.8,12.6c0,6.9-2.3,13.1-6.9,18.5
		c-4.6,5.4-10.4,8.7-17.3,9.8v-4.2c5.1-4.3,7.6-9.9,7.6-16.8v-1.2l-0.2-1.3c-6-1.1-9-4.7-9-10.9c0-3.1,1.1-5.8,3.4-7.9
		C120.9,91.8,123.7,90.7,127.1,90.7z"/>
	<path class="st0" d="M190.1,0c7,0,13.3,1.6,18.8,4.9c5.6,3.3,9.9,7.9,12.9,13.9c3,6,4.5,12.8,4.5,20.6c0,11.7-3.5,24.2-10.6,37.8
		c-7.1,13.5-16.5,25.8-28.3,36.8h-24.2c6.3-5.5,13-12.9,20-22.3c7-9.4,12-17.7,14.9-24.8c-4,1.7-8.2,2.5-12.7,2.5
		c-8.8,0-16.1-3.1-21.8-9.4c-5.8-6.3-8.6-14.3-8.6-24.1c0-6.5,1.5-12.4,4.5-17.9c3-5.5,7.2-9.8,12.6-13C177.6,1.6,183.6,0,190.1,0z
		 M175.2,35.5c0,4.9,1.4,9,4.2,12.2c2.8,3.2,6.5,4.8,11.1,4.8c4.3,0,8-1.6,10.8-4.8c2.9-3.2,4.3-7,4.3-11.5c0-5.3-1.4-9.6-4.3-12.9
		c-2.9-3.3-6.6-5-11.2-5c-4.5,0-8,1.6-10.8,4.8C176.6,26.2,175.2,30.3,175.2,35.5z"/>
	<path class="st0" d="M276.1,0c7,0,13.3,1.6,18.8,4.9c5.6,3.3,9.9,7.9,12.9,13.9c3,6,4.5,12.8,4.5,20.6c0,11.7-3.5,24.2-10.6,37.8
		c-7.1,13.5-16.5,25.8-28.3,36.8h-24.2c6.3-5.5,13-12.9,20-22.3c7-9.4,12-17.7,14.9-24.8c-4,1.7-8.2,2.5-12.7,2.5
		c-8.8,0-16.1-3.1-21.8-9.4c-5.8-6.3-8.6-14.3-8.6-24.1c0-6.5,1.5-12.4,4.5-17.9c3-5.5,7.2-9.8,12.6-13C263.6,1.6,269.5,0,276.1,0z
		 M261.2,35.5c0,4.9,1.4,9,4.2,12.2c2.8,3.2,6.5,4.8,11.1,4.8c4.3,0,8-1.6,10.8-4.8c2.9-3.2,4.3-7,4.3-11.5c0-5.3-1.4-9.6-4.3-12.9
		c-2.9-3.3-6.6-5-11.2-5c-4.5,0-8,1.6-10.8,4.8C262.6,26.2,261.2,30.3,261.2,35.5z"/>
	<path class="st0" d="M362.6,0c11.2,0,20.2,5.1,26.8,15.2c6.6,10.1,9.9,24,9.9,41.5c0,17.7-3.3,31.7-9.8,41.9s-15.4,15.3-26.7,15.3
		c-11.4,0-20.5-5.1-27.1-15.2c-6.7-10.2-10-24.1-10-41.7c0-17.6,3.3-31.5,9.9-41.7C342.2,5.1,351.2,0,362.6,0z M346.3,57.6
		c0,25.4,5.4,38.1,16.3,38.1c10.6,0,15.9-13.4,15.9-40.1c0-25-5.4-37.4-16.1-37.4C351.7,18.2,346.3,31.3,346.3,57.6z"/>
	<path class="st0" d="M424.7,101.5c0,5.5,0.1,8.4,0.4,10.6h-14c0.4-3.3,0.6-6.5,0.6-11V45.2c0-3.9-0.1-6.1-0.3-8.7
		c3.1,0.3,5.5,0.3,11,0.3h50.9c5.6,0,8.3-0.1,10.6-0.3c-0.3,2.5-0.4,5.1-0.4,10.6v54.3c0,4.9-2,8.1-5.8,9.2c-1.8,0.6-5,0.8-9.4,0.8
		c-2.3,0-5.7-0.1-9.7-0.2c-0.8-4.7-1.7-7.7-3.9-12.4c5.5,0.5,9.3,0.8,11.8,0.8c3.3,0,4-0.3,4-1.8V82.1h-45.8V101.5z M440.9,49h-16.1
		v21.2h16.1V49z M470.5,70.2V49h-17v21.2H470.5z"/>
	<path class="st0" d="M514.2,113.1c-5-8.8-6.6-11.8-8-15.5c-2.8-7-4.4-15.9-4.4-24.1c0-7.1,1.1-14.5,3.2-21.1
		c1.9-6.1,4-10.5,9.3-19.2h15.5c-6.5,10-8.8,14.8-10.8,22.3c-1.5,5.8-2.3,11.8-2.3,17.6c0,8.2,1.6,17,4.3,23.9
		c1.8,4.5,3.8,8.1,8.8,16.1H514.2z"/>
	<path class="st0" d="M584.8,79.5c-0.2,7.2-0.8,11.1-2.2,15.5c-2.5,7.8-7.1,13.4-14.9,18.1c-2.4-3.9-4.3-6.2-8.4-10.3
		c9.6-4.9,13.5-11.7,13.6-23.3c-2.3,0-3.6,0.1-5.5,0.3c-2.2,4.6-2.9,6.4-4.5,11.2c-1.9-2.2-3.3-4.2-5-7.5c0.2,1.5,0.2,1.8,0.2,3.6
		l0.1,2.9v12c0,5.3,0.1,7.8,0.5,10.9h-13.4c0.3-3.4,0.5-6.1,0.5-10.9V93c0-1.9,0.2-5.5,0.3-7.3c-2.2,6.1-3.8,9-7.5,13.7
		c-1.6-5.6-2.9-8.5-5.3-12.7c5.3-6,9.2-12.9,11.1-19.6h-3c-3,0-4.3,0.1-6.4,0.4V55.2c2,0.3,3.3,0.4,6.4,0.4h4.5v-5.8
		c-2.6,0.4-3.5,0.6-7.1,1.1c-0.9-4.1-1.9-6.7-4.3-11.2c9.4-1,15.6-2.4,22.8-5.2c1.3-0.4,2.5-1.1,3.6-1.8l7.3,10.4
		c-0.8,0.3-0.8,0.3-2.4,1c-1.8,0.8-4.8,1.8-7.6,2.6v8.8h1.3c2.9,0,4.3-0.1,5.9-0.3v12.2c-1.6-0.3-3.1-0.3-5.9-0.3h-0.9
		c2.7,5.3,4.7,8.1,8.6,11.7c0.1-1.8,0.2-3.3,0.2-5.4V56.3c0-2.1-0.1-4.1-0.3-6.3c2.4,0.3,3.8,0.3,6.8,0.3h0.9
		c-2-5.1-3.8-8.7-6.5-12.8l11.7-4.7c3,5.1,5,8.9,6.7,13.7l-8.4,3.8h11.5c3.1-6.6,4.7-11,6.2-17.4l13.2,3.8c-1,2.2-1,2.2-3.5,7.8
		c-0.8,1.8-1.7,3.5-3,5.8c3.9,0,5-0.1,7.4-0.3c-0.3,2.1-0.3,3.5-0.3,6.2v17.1c0,2.8,0.1,4.2,0.3,6.4c-2.4-0.3-4.1-0.3-7-0.3h-2.4
		v19.3c0,1.1,0.3,1.3,1.8,1.3c2,0,2,0,2-10.5c3.4,2.2,6.1,3.4,9.5,4.3c-0.6,10.1-1.1,12.9-2.6,15c-1.8,2.4-4.5,3-12.2,3
		c-8.5,0-10.8-1.8-10.8-8.2V79.5H584.8z M579.2,67.8h17.7v-5.9h-17.7V67.8z"/>
	<path class="st0" d="M640.5,85.9c6.3-4.6,11.1-9.9,14.6-16.1c2.2-4,4.1-9.1,5.2-14c0.5-2.1,0.7-3.1,1.3-7.9h-7.9
		c-2.9,0-4.9,0.1-7.1,0.3V35.7c1.8,0.3,3.5,0.4,7.1,0.4h15.5c2.8,0,4.4-0.1,6.1-0.3c-0.1,1.6-0.2,3.4-0.2,4.7
		c0,7.5,1.7,15.3,4.8,22.5c2.2,4.9,4.5,8.7,7.7,12.4c3.1,3.6,5.4,5.5,10.3,9c-3.4,4.2-5.2,7.1-7.5,12.9c-5.5-3.9-8.8-7.2-12.6-12.1
		c-3.7-4.9-5.9-9-8.8-16.7c-2.6,7.8-4.6,11.9-8.5,17.1c-3.3,4.2-5.9,6.9-11.3,11.3c-2.8-4.5-4.6-6.7-8.7-10.2v6.1
		c0.7,1.6,1,2,2.5,3.2c3.7,2.9,7.7,3.5,20.7,3.5c14,0,25.7-0.6,35-1.8c-1.8,5.2-2.4,8.1-3.1,13.7c-5.9,0.3-22.8,0.5-30.6,0.5
		c-19.4,0-24.9-1.5-31.3-8.7c-2.4,2.4-4.5,4.3-8.7,7.4c-0.4,0.3-0.5,0.4-1.7,1.3c-0.4,0.3-0.6,0.5-1.1,0.8L616.9,99
		c2.2-0.8,6.2-3.1,11.2-6.4V76.7h-4.1c-1.8,0-3,0.1-5.2,0.4V64.3c2.4,0.3,3.7,0.4,7,0.4h8.7c2.6,0,4.5-0.1,6.5-0.3
		c-0.3,2.6-0.3,4.5-0.3,9.5V85.9z M627.8,34.2c7,5.7,11.4,10.2,15.7,15.5l-9.7,9.8c-5.4-6.9-8.7-10.4-15.5-16.2L627.8,34.2z"/>
	<path class="st0" d="M701.2,113.1c6.9-10.8,9.1-15.4,11-22.7c1.4-5.5,2.2-11.8,2.2-18c0-7.8-1.8-17-4.7-24c-1.8-4.5-3.8-8-8.5-15.1
		h15.5c5.7,9.5,8,14.4,9.9,21.3c1.8,6.3,2.5,12.1,2.5,18.6c0,8.6-1.6,17.5-4.4,24.5c-1.4,3.7-3,6.7-8,15.5H701.2z"/>
</g>
<g>
	<g>
		<path class="st0" d="M531.5,150.2v96.5H30.4v-96.5H531.5 M534.4,147.3H27.5v102.3h506.9V147.3L534.4,147.3z"/>
	</g>
	<rect x="247.7" y="147.3" class="st0" width="488" height="102.3"/>
	<g>
		<path class="st1" d="M320.7,191.3c0,0.4-0.1,1.1-0.2,2.4c3.4-2.5,7.3-3.6,12.2-3.6c6.7,0,12.3,2.1,16.3,6.2
			c3.8,3.9,5.7,8.8,5.7,15.1c0,14.5-9.5,23.1-25.6,23.1c-9.5,0-17-3.3-21.4-9.3c-1.7-2.3-2.6-4.5-3.8-8.5l15.2-2.3
			c1.3,5,4.5,7.3,9.9,7.3c6.4,0,10.6-4,10.6-10.1c0-6-4.1-10-10.4-10c-4.8,0-7.9,1.9-9.5,5.6l-14.1-1.4c0.3-2.3,0.5-4.1,0.8-6.2
			l2-23.6c0.2-1.6,0.2-3.4,0.3-6.3c3.2,0.2,3.9,0.2,7.6,0.2h22.6c6.7,0,9.5-0.2,12.5-0.5v13.2c-4-0.4-7.5-0.5-12.3-0.5h-17.5
			L320.7,191.3z"/>
		<path class="st1" d="M373.1,227.3c-2.5-2.5-4.4-5.4-5.5-8.4c-2-5.4-2.9-11.2-2.9-17.3c0-7.9,1.9-16.2,4.8-20.9
			c4.6-7.7,12.5-11.9,22-11.9c7.3,0,13.8,2.5,18.4,7c2.5,2.5,4.4,5.4,5.5,8.4c2,5.4,2.9,11.2,2.9,17.4c0,7.9-1.9,16.3-4.8,21
			c-4.5,7.6-12.5,11.8-22.1,11.8C384,234.3,377.7,231.9,373.1,227.3z M380.2,200.9c0,13.5,3.9,20.5,11.3,20.5
			c7.4,0,11.2-6.8,11.2-20.3c0-12.9-3.9-19.7-11.3-19.7C384.3,181.4,380.2,188.6,380.2,200.9z"/>
		<path class="st1" d="M431.5,199.8c-2.9-2.9-4.5-7.6-4.5-13.3s1.6-10.4,4.6-13.4c2.9-2.8,7-4.3,11.7-4.3c4.8,0,8.9,1.5,11.7,4.3
			c3,3,4.5,7.6,4.5,13.3c0,5.9-1.6,10.5-4.6,13.5c-2.8,2.8-7,4.3-11.6,4.3C438.5,204.2,434.5,202.7,431.5,199.8z M484.6,168.1l4,3
			l-49.3,64l-3.9-3L484.6,168.1z M437.5,186.4c0,6.4,2,9.7,5.8,9.7c3.8,0,5.7-3.3,5.7-9.7c0-6.3-2-9.5-5.7-9.5
			S437.5,180.2,437.5,186.4z M468.9,229.8c-2.9-2.9-4.5-7.6-4.5-13.4c0-5.7,1.6-10.3,4.6-13.3c2.9-2.8,7-4.3,11.8-4.3
			c10.3,0,16.3,6.5,16.3,17.6c0,5.8-1.6,10.5-4.6,13.5c-2.8,2.8-7,4.3-11.7,4.3C476,234.2,471.9,232.7,468.9,229.8z M474.9,216.3
			c0,6.5,2,9.8,5.8,9.8c3.9,0,5.8-3.3,5.8-9.8c0-6.1-2-9.3-5.7-9.3C477,207,474.9,210.2,474.9,216.3z"/>
		<path class="st1" d="M567.2,201.2c0,20-12.2,33.2-30.6,33.2c-18.5,0-30.5-12.9-30.5-33c0-20,11.9-32.7,30.6-32.7
			S567.2,181.4,567.2,201.2z M551.5,201.3c0-12.3-5.6-19.7-14.7-19.7c-9.2,0-14.9,7.5-14.9,19.7c0,12.3,5.7,20,14.9,20
			C545.9,221.3,551.5,213.7,551.5,201.3z"/>
		<path class="st1" d="M594.2,219.8c0,7.1,0.1,9.8,0.6,13.2h-16.3c0.5-3.3,0.7-6.4,0.7-12.9v-39.2c0-5-0.2-7.5-0.6-11
			c3.1,0.2,5.2,0.2,11,0.2h21.9c6.7,0,9.2-0.1,12.7-0.5v14.4c-3.3-0.4-6.3-0.5-12.6-0.5h-17.4v12.4h14.2c5.9,0,8.8-0.2,12.1-0.5v14
			c-3.3-0.4-6.4-0.5-12.1-0.5h-14.2V219.8z"/>
		<path class="st1" d="M650,219.8c0,7.1,0.1,9.8,0.6,13.2h-16.3c0.5-3.3,0.7-6.4,0.7-12.9v-39.2c0-5-0.2-7.5-0.6-11
			c3.1,0.2,5.2,0.2,11,0.2h21.9c6.7,0,9.2-0.1,12.7-0.5v14.4c-3.3-0.4-6.3-0.5-12.6-0.5H650v12.4h14.2c5.9,0,8.8-0.2,12.1-0.5v14
			c-3.3-0.4-6.4-0.5-12.1-0.5H650V219.8z"/>
	</g>
	<g>
		<path class="st0" d="M84.3,225.8c0,3.9,0.2,7,0.5,9.8h-12c0.3-2.6,0.5-6.2,0.5-9.8v-11.7c0-0.5,0-1.9,0.1-3.3
			c-2.3,2.1-3.8,3.3-6.5,5.3c-1.4-5-2.6-7.6-4.8-10.9c4.2-2.6,7-4.8,9.8-7.7c3.7-3.6,5.7-6.4,8.2-11.3h-8.8c-2.5,0-4.8,0.2-6.7,0.4
			v-11c2,0.3,4,0.4,7,0.4h1.7v-4.5c0-3.1-0.2-4.9-0.4-6.4h11.9c-0.4,1.5-0.5,3.1-0.5,6.4v4.5c3.1,0,4-0.1,5.1-0.3l4.5,6
			c-0.5,0.8-0.8,1.4-1.7,3.5c-2,4.5-4.2,8.2-7.2,12.6c0.8,0.8,1,1.1,1.8,1.8c3-3.6,4.8-6.4,6.6-10.3l7.1,5.4
			c-3.2,4.9-4.8,7.1-7.4,10.1c1.5,1.1,2,1.5,3.8,2.7c-2.4,2.7-3.9,4.9-5.7,8.7c-2.5-2.1-4.7-4.2-6.9-6.6V225.8z M113.5,179.7
			c0,0.8,0,0.8,0,2c-0.2,13.7-2,25.2-5.6,33.6c-3.2,7.7-7.4,13.3-14.8,19.9c-2.3-4.5-4.1-6.8-7.4-10c5.2-4.2,8.8-8.6,11.4-14.4
			c3-6.8,4.6-13.9,5.1-22.9c0-1.4,0.1-4.1,0.1-8.2c-3.7,0-6.5,0.2-9,0.4v-11.2c2.8,0.3,6,0.5,9.5,0.5h22.6c3.1,0,5.7-0.2,7-0.4
			c-0.3,2.8-0.4,3.2-0.5,14.5c-0.2,22.2-1.1,36.9-3,43.2c-1,3.2-2.9,5.4-5.7,6.4c-2,0.7-4.5,1-8.7,1c-2.3,0-3.4,0-6.1-0.1
			c-0.4-5-0.9-7.3-2.5-11.4c3.6,0.5,6.1,0.6,8,0.6c3.3,0,4-0.8,4.8-4.8c1.3-6.6,1.9-18.5,1.9-38.6H113.5z"/>
		<path class="st0" d="M199.7,235.8v-3.8h-43v3.8h-12c0.3-2.4,0.5-5.8,0.5-10.5v-48.9c0-3.5-0.1-5.8-0.4-8.8
			c2.7,0.3,5.1,0.4,8.8,0.4h49.2c3.7,0,6-0.1,8.8-0.4c-0.3,2.8-0.4,5.1-0.4,8.8v48.9c0,4.2,0.2,8.2,0.5,10.5H199.7z M156.7,221.7h43
			v-43.3h-43V221.7z M187.6,184c3,0,4.9-0.1,6.7-0.2c-0.2,1.9-0.2,3.9-0.2,6.2v19.7c0,2.3,0.1,4.2,0.2,6.2c-1.8-0.2-3.9-0.2-6.7-0.2
			h-18.9c-3.1,0-4.8,0.1-6.7,0.2c0.2-2.1,0.2-4.1,0.2-6.2v-19.7c0-2-0.1-3.9-0.2-6.2c1.8,0.2,3.7,0.2,6.7,0.2H187.6z M173,205.8
			h10.1v-12H173V205.8z"/>
	</g>
</g>
<g>
	<g>
		<path class="st2" d="M90.1,308.1v64.8h9.5v16.3h-9.5v31.4H69.7v-31.4H24.4v-13l54.1-68.1H90.1z M69.3,341.8l-24.6,31.1h25v-31.1
			H69.3z"/>
		<path class="st2" d="M127.1,398.8c4.2,0,7.6,1.6,10.2,4.7c2.5,3.1,3.8,7.3,3.8,12.6c0,6.9-2.3,13.1-6.9,18.5
			c-4.6,5.4-10.4,8.7-17.3,9.8v-4.2c5.1-4.3,7.6-9.9,7.6-16.8v-1.2l-0.2-1.3c-6-1.1-9-4.7-9-10.9c0-3.1,1.1-5.8,3.4-7.9
			C120.9,399.9,123.7,398.8,127.1,398.8z"/>
		<path class="st2" d="M200.7,309.5v111.1h-20.4V309.5H200.7z"/>
		<path class="st2" d="M276.7,308.1c9.9,0,18,2.9,24.3,8.7c6.3,5.8,9.4,13.3,9.4,22.4c0,10-4.6,17.9-13.7,23.6
			c5.7,3,9.9,6.8,12.4,11.2c2.5,4.5,3.8,9.7,3.8,15.7c0,6.1-1.6,11.7-4.7,16.7c-3.1,5-7.5,8.8-13,11.6s-11.7,4.1-18.5,4.1
			c-10.6,0-19.3-3-26.2-9.1c-6.9-6-10.3-13.8-10.3-23.3c0-6.3,1.4-11.6,4.1-16s6.8-8,12.2-10.9c-9.1-5.8-13.7-13.7-13.7-23.8
			c0-9.1,3.2-16.5,9.5-22.3C258.7,311,266.8,308.1,276.7,308.1z M260.9,388.7c0,5.5,1.4,9.8,4.3,12.9s6.7,4.7,11.5,4.7
			c4.8,0,8.6-1.6,11.4-4.7c2.8-3.2,4.2-7.3,4.2-12.5c0-5.2-1.4-9.5-4.3-12.8c-2.9-3.3-6.6-5-11.1-5c-4.8,0-8.6,1.6-11.6,4.7
			C262.3,379.1,260.9,383.3,260.9,388.7z M263.2,339.5c0,4.8,1.3,8.7,3.8,11.7c2.5,3,5.8,4.6,9.7,4.6c3.8,0,7-1.6,9.5-4.7
			c2.5-3.2,3.8-7,3.8-11.6c0-4.8-1.2-8.6-3.6-11.4c-2.4-2.8-5.7-4.2-9.7-4.2c-4.1,0-7.4,1.4-9.9,4.1
			C264.4,330.7,263.2,334.6,263.2,339.5z"/>
		<path class="st2" d="M389.8,308.1c-5.9,4.9-12.5,12.2-19.7,21.9c-7.2,9.6-12.3,18.1-15.4,25.4c4.1-1.7,8.4-2.6,12.7-2.6
			c5.7,0,10.9,1.4,15.6,4.3c4.7,2.9,8.3,6.9,10.9,12s3.9,10.8,3.9,17.1c0,6.6-1.5,12.7-4.6,18.2c-3.1,5.5-7.3,9.8-12.7,13
			c-5.4,3.2-11.3,4.7-17.6,4.7c-10.8,0-19.6-3.6-26.3-10.9c-6.7-7.3-10.1-16.8-10.1-28.4c0-11.6,3.5-24,10.5-37.3
			c7-13.2,16.5-25.7,28.5-37.3H389.8z M347.3,386.1c0,5.1,1.4,9.4,4.3,12.7c2.9,3.3,6.6,5,11.2,5c4.5,0,8.1-1.6,10.8-4.7
			c2.8-3.2,4.1-7.3,4.1-12.5c0-4.9-1.4-8.9-4.3-12.1c-2.8-3.2-6.5-4.8-11-4.8c-4.3,0-8,1.6-10.9,4.7
			C348.7,377.5,347.3,381.4,347.3,386.1z"/>
		<path class="st2" d="M424.7,409.6c0,5.5,0.1,8.4,0.4,10.6h-14c0.4-3.3,0.6-6.5,0.6-11v-55.9c0-3.9-0.1-6.1-0.3-8.7
			c3.1,0.3,5.5,0.3,11,0.3h50.9c5.6,0,8.3-0.1,10.6-0.3c-0.3,2.5-0.4,5.1-0.4,10.6v54.3c0,4.9-2,8.1-5.8,9.2c-1.8,0.6-5,0.8-9.4,0.8
			c-2.3,0-5.7-0.1-9.7-0.2c-0.8-4.7-1.7-7.7-3.9-12.4c5.5,0.5,9.3,0.8,11.8,0.8c3.3,0,4-0.3,4-1.8v-15.5h-45.8V409.6z M440.9,357.1
			h-16.1v21.2h16.1V357.1z M470.5,378.3v-21.2h-17v21.2H470.5z"/>
		<path class="st2" d="M514.2,421.2c-5-8.8-6.6-11.8-8-15.5c-2.8-7-4.4-15.9-4.4-24.1c0-7.1,1.1-14.5,3.2-21.1
			c1.9-6.1,4-10.5,9.3-19.2h15.5c-6.5,10-8.8,14.8-10.8,22.3c-1.5,5.8-2.3,11.8-2.3,17.6c0,8.2,1.6,17,4.3,23.9
			c1.8,4.5,3.8,8.1,8.8,16.1H514.2z"/>
		<path class="st2" d="M584.8,387.5c-0.2,7.2-0.8,11.1-2.2,15.5c-2.5,7.8-7.1,13.4-14.9,18.1c-2.4-3.9-4.3-6.2-8.4-10.3
			c9.6-4.9,13.5-11.7,13.6-23.3c-2.3,0-3.6,0.1-5.5,0.3c-2.2,4.6-2.9,6.4-4.5,11.2c-1.9-2.2-3.3-4.2-5-7.5c0.2,1.5,0.2,1.8,0.2,3.6
			l0.1,2.9v12c0,5.3,0.1,7.8,0.5,10.9h-13.4c0.3-3.4,0.5-6.1,0.5-10.9v-8.9c0-1.9,0.2-5.5,0.3-7.3c-2.2,6.1-3.8,9-7.5,13.7
			c-1.6-5.6-2.9-8.5-5.3-12.7c5.3-6,9.2-12.9,11.1-19.6h-3c-3,0-4.3,0.1-6.4,0.4v-12.4c2,0.3,3.3,0.4,6.4,0.4h4.5v-5.8
			c-2.6,0.4-3.5,0.6-7.1,1.1c-0.9-4.1-1.9-6.7-4.3-11.2c9.4-1,15.6-2.4,22.8-5.2c1.3-0.4,2.5-1.1,3.6-1.8l7.3,10.4
			c-0.8,0.3-0.8,0.3-2.4,1c-1.8,0.8-4.8,1.8-7.6,2.6v8.8h1.3c2.9,0,4.3-0.1,5.9-0.3v12.2c-1.6-0.3-3.1-0.3-5.9-0.3h-0.9
			c2.7,5.3,4.7,8.1,8.6,11.7c0.1-1.8,0.2-3.3,0.2-5.4v-17.1c0-2.1-0.1-4.1-0.3-6.3c2.4,0.3,3.8,0.3,6.8,0.3h0.9
			c-2-5.1-3.8-8.7-6.5-12.8l11.7-4.7c3,5.1,5,8.9,6.7,13.7l-8.4,3.8h11.5c3.1-6.6,4.7-11,6.2-17.4l13.2,3.8c-1,2.2-1,2.2-3.5,7.8
			c-0.8,1.8-1.7,3.5-3,5.8c3.9,0,5-0.1,7.4-0.3c-0.3,2.1-0.3,3.5-0.3,6.2v17.1c0,2.8,0.1,4.2,0.3,6.4c-2.4-0.3-4.1-0.3-7-0.3h-2.4
			v19.3c0,1.1,0.3,1.3,1.8,1.3c2,0,2,0,2-10.5c3.4,2.2,6.1,3.4,9.5,4.3c-0.6,10.1-1.1,12.9-2.6,15c-1.8,2.4-4.5,3-12.2,3
			c-8.5,0-10.8-1.8-10.8-8.2v-24.3H584.8z M579.2,375.9h17.7V370h-17.7V375.9z"/>
		<path class="st2" d="M640.5,394c6.3-4.6,11.1-9.9,14.6-16.1c2.2-4,4.1-9.1,5.2-14c0.5-2.1,0.7-3.1,1.3-7.9h-7.9
			c-2.9,0-4.9,0.1-7.1,0.3v-12.6c1.8,0.3,3.5,0.4,7.1,0.4h15.5c2.8,0,4.4-0.1,6.1-0.3c-0.1,1.6-0.2,3.4-0.2,4.7
			c0,7.5,1.7,15.3,4.8,22.5c2.2,4.9,4.5,8.7,7.7,12.4c3.1,3.6,5.4,5.5,10.3,9c-3.4,4.2-5.2,7.1-7.5,12.9c-5.5-3.9-8.8-7.2-12.6-12.1
			c-3.7-4.9-5.9-9-8.8-16.7c-2.6,7.8-4.6,11.9-8.5,17.1c-3.3,4.2-5.9,6.9-11.3,11.3c-2.8-4.5-4.6-6.7-8.7-10.2v6.1
			c0.7,1.6,1,2,2.5,3.2c3.7,2.9,7.7,3.5,20.7,3.5c14,0,25.7-0.6,35-1.8c-1.8,5.2-2.4,8.1-3.1,13.7c-5.9,0.3-22.8,0.5-30.6,0.5
			c-19.4,0-24.9-1.5-31.3-8.7c-2.4,2.4-4.5,4.3-8.7,7.4c-0.4,0.3-0.5,0.4-1.7,1.3c-0.4,0.3-0.6,0.5-1.1,0.8l-5.5-13.5
			c2.2-0.8,6.2-3.1,11.2-6.4v-15.9h-4.1c-1.8,0-3,0.1-5.2,0.4v-12.8c2.4,0.3,3.7,0.4,7,0.4h8.7c2.6,0,4.5-0.1,6.5-0.3
			c-0.3,2.6-0.3,4.5-0.3,9.5V394z M627.8,342.2c7,5.7,11.4,10.2,15.7,15.5l-9.7,9.8c-5.4-6.9-8.7-10.4-15.5-16.2L627.8,342.2z"/>
		<path class="st2" d="M701.2,421.2c6.9-10.8,9.1-15.4,11-22.7c1.4-5.5,2.2-11.8,2.2-18c0-7.8-1.8-17-4.7-24
			c-1.8-4.5-3.8-8-8.5-15.1h15.5c5.7,9.5,8,14.4,9.9,21.3c1.8,6.3,2.5,12.1,2.5,18.6c0,8.6-1.6,17.5-4.4,24.5c-1.4,3.7-3,6.7-8,15.5
			H701.2z"/>
	</g>
</g>
<g>
	<g>
		<path class="st2" d="M531.5,458.3v96.5H30.4v-96.5H531.5 M534.4,455.4H27.5v102.3h506.9V455.4L534.4,455.4z"/>
	</g>
	<rect x="379.9" y="455.4" class="st2" width="355.7" height="102.3"/>
	<g>
		<path class="st1" d="M419.2,518.9c0.4,2.2,0.7,3.1,1.7,4.3c1.7,1.9,4.2,2.9,7.1,2.9c4.8,0,7.9-2.6,7.9-6.7c0-2.7-1.2-4.9-3.3-5.7
			c-1.4-0.5-3.3-0.9-5.8-0.9c-2.4,0-5.2,0.1-7.6,0.4v-11.5c2.1,0.3,4.2,0.4,6.6,0.4c5.9,0,8.8-2.1,8.8-6.4c0-3.6-2.4-5.7-6.4-5.7
			c-4.4,0-6.6,1.9-7.6,6.1l-13.4-2.1c1.2-4.1,2.2-6.1,4.2-8.5c3.8-4.4,9.5-6.7,17-6.7c6.8,0,12.3,2,15.9,5.7
			c2.3,2.5,3.5,5.7,3.5,9.5c0,7.1-3.5,11.5-10.7,13.3c3.8,0.6,5.8,1.5,8,3.5c2.6,2.5,4.1,6,4.1,9.9c0,3.4-0.9,6.5-2.5,8.9
			c-1.4,2-3.5,3.9-5.8,5c-3.2,1.6-8.2,2.6-12.9,2.6c-5.6,0-11.2-1.4-14.4-3.7c-2.9-2-5-4.9-6.4-8.6c-0.4-0.9-0.6-1.8-1.1-3.5
			L419.2,518.9z"/>
		<path class="st1" d="M463.9,530.9c-2-2.2-3.6-4.7-4.5-7.4c-1.6-4.7-2.4-9.9-2.4-15.3c0-7,1.5-14.3,3.9-18.5
			c3.8-6.8,10.2-10.5,18-10.5c6,0,11.3,2.2,15.1,6.2c2,2.2,3.6,4.7,4.5,7.4c1.6,4.7,2.4,9.9,2.4,15.3c0,7-1.5,14.3-3.9,18.5
			c-3.7,6.7-10.2,10.4-18.1,10.4C472.8,537.1,467.6,534.9,463.9,530.9z M469.6,507.7c0,11.9,3.2,18.1,9.3,18.1c6.1,0,9.2-6,9.2-17.9
			c0-11.4-3.2-17.4-9.2-17.4C473,490.5,469.6,496.8,469.6,507.7z"/>
		<path class="st1" d="M511.7,506.7c-2.4-2.5-3.7-6.7-3.7-11.7c0-5.1,1.3-9.1,3.8-11.8c2.4-2.5,5.7-3.8,9.6-3.8c4,0,7.3,1.3,9.6,3.8
			c2.5,2.7,3.7,6.7,3.7,11.7c0,5.2-1.3,9.3-3.8,11.9c-2.3,2.5-5.7,3.8-9.5,3.8C517.4,510.5,514.1,509.2,511.7,506.7z M555.2,478.7
			l3.3,2.7l-40.4,56.4l-3.2-2.7L555.2,478.7z M516.6,494.9c0,5.6,1.6,8.5,4.8,8.5c3.1,0,4.7-2.9,4.7-8.5c0-5.5-1.6-8.3-4.7-8.3
			C518.3,486.5,516.6,489.4,516.6,494.9z M542.4,533.1c-2.4-2.5-3.7-6.7-3.7-11.8c0-5,1.3-9.1,3.8-11.7c2.4-2.5,5.7-3.8,9.7-3.8
			c8.4,0,13.3,5.7,13.3,15.5c0,5.1-1.3,9.3-3.8,11.9c-2.3,2.5-5.7,3.8-9.6,3.8C548.1,537,544.8,535.7,542.4,533.1z M547.3,521.2
			c0,5.7,1.6,8.7,4.8,8.7c3.2,0,4.8-2.9,4.8-8.7c0-5.4-1.6-8.2-4.7-8.2C549,513,547.3,515.8,547.3,521.2z"/>
		<path class="st1" d="M622.9,507.9c0,17.6-10,29.3-25,29.3c-15.2,0-25-11.4-25-29.1c0-17.6,9.8-28.9,25-28.9
			C613.2,479.2,622.9,490.4,622.9,507.9z M610,508c0-10.8-4.6-17.3-12.1-17.3c-7.6,0-12.2,6.6-12.2,17.3c0,10.9,4.6,17.6,12.2,17.6
			C605.4,525.6,610,518.9,610,508z"/>
		<path class="st1" d="M645,524.3c0,6.3,0.1,8.7,0.5,11.6h-13.3c0.4-2.9,0.6-5.6,0.6-11.4v-34.5c0-4.4-0.1-6.6-0.5-9.7
			c2.5,0.1,4.3,0.2,9,0.2h17.9c5.5,0,7.5-0.1,10.4-0.5v12.7c-2.7-0.3-5.1-0.5-10.4-0.5H645v10.9h11.7c4.8,0,7.2-0.1,9.9-0.5v12.3
			c-2.7-0.3-5.2-0.5-9.9-0.5H645V524.3z"/>
		<path class="st1" d="M690.8,524.3c0,6.3,0.1,8.7,0.5,11.6h-13.3c0.4-2.9,0.6-5.6,0.6-11.4v-34.5c0-4.4-0.1-6.6-0.5-9.7
			c2.5,0.1,4.3,0.2,9,0.2h17.9c5.5,0,7.5-0.1,10.4-0.5v12.7c-2.7-0.3-5.1-0.5-10.4-0.5h-14.3v10.9h11.7c4.8,0,7.2-0.1,9.9-0.5v12.3
			c-2.7-0.3-5.2-0.5-9.9-0.5h-11.7V524.3z"/>
	</g>
	<g>
		<g>
			<path class="st2" d="M71.3,535.8c-5.4,0-6.8,0.1-9,0.3c0.2-3.3,0.5-5.3,1.3-7.9c1.6-5.5,4.4-10.6,8.6-14.9
				c2.3-2.3,4.6-4.3,10.7-8.9c5.2-3.9,6.4-5.6,6.4-8.7c0-3.2-2.6-5.3-6.4-5.3c-2.9,0-4.9,1.1-6.2,3.3c-0.8,1.5-1.2,2.8-1.5,5.6
				l-12.6-1.5c0.9-5.8,2-8.7,4.4-11.9c3.4-4.5,8.9-6.9,15.9-6.9c8.1,0,14.3,3,17.3,8.4c1.3,2.3,2,4.9,2,7.8c0,4.9-1.8,9-5.5,12.4
				c-2,1.9-2.6,2.4-8.7,7.1c-5.2,4-7.4,6.3-8.8,9.3h14c4.5,0,7.3-0.1,9.6-0.5v12.6c-3.5-0.3-6-0.5-10.3-0.5H71.3z"/>
			<path class="st2" d="M155.9,539.7v-3.3h-34.1v3.3h-9.5c0.2-2.1,0.4-5.1,0.4-9.3v-43.1c0-3.1-0.1-5.1-0.3-7.8
				c2.2,0.3,4.1,0.3,7,0.3h39c2.9,0,4.8-0.1,7-0.3c-0.2,2.5-0.3,4.5-0.3,7.8v43.1c0,3.7,0.1,7.2,0.4,9.3H155.9z M121.8,527.2h34.1
				v-38.2h-34.1V527.2z M146.3,494c2.4,0,3.9-0.1,5.3-0.2c-0.1,1.7-0.2,3.5-0.2,5.5v17.4c0,2.1,0.1,3.7,0.2,5.5
				c-1.4-0.1-3.1-0.2-5.3-0.2h-15c-2.5,0-3.8,0.1-5.3,0.2c0.1-1.9,0.2-3.6,0.2-5.5v-17.4c0-1.8-0.1-3.5-0.2-5.5
				c1.4,0.1,2.9,0.2,5.3,0.2H146.3z M134.8,513.2h8v-10.6h-8V513.2z"/>
			<path class="st2" d="M216.6,479.3c2.8,0,4.8-0.1,6.7-0.3c-0.2,2.9-0.3,5.3-0.3,7.5v44c0,3.7,0.1,6.3,0.4,9h-9.7v-3h-26v3h-9.6
				c0.2-2.7,0.4-5.2,0.4-8.1v-44.7c0-2.5-0.1-4.9-0.3-7.6c2,0.2,4.1,0.3,6.9,0.3H216.6z M213.6,495.1v-6.3h-26v6.3H213.6z
				 M187.7,510.8h26v-6.6h-26V510.8z M187.7,526.8h26v-6.9h-26V526.8z"/>
			<path class="st2" d="M239.3,487.2c-0.1-4.3-0.2-6.5-0.5-8.9H249c-0.2,1.9-0.3,3.8-0.3,7c0,0.4,0,1.1,0,1.9l0.3,29.7
				c5-2.6,9.1-5.1,14.1-8.5l1.6,9.8c-7.8,5.7-14.3,9.5-26.3,15.4c-0.4,0.2-1.1,0.6-1.8,1l-2.5-11c1.7-0.5,2.7-0.9,5.4-2.1
				L239.3,487.2z M286.1,478.2c-0.1,1.3-0.1,1.7-0.2,4.2c-0.4,15.8-2.3,26.5-6.5,35.2c2.8,4.7,6.6,8.6,11.3,11.7
				c-2.5,3.9-3.8,6.7-5.4,10.7c-4.3-3.5-8-7.9-11.4-13.5c-4.7,6-10.1,10.1-18.3,14c-1.4-3.8-2.7-6.1-5.2-9.3
				c11-4.8,17-10.2,20.8-18.5c3.3-7.1,5-17.3,5-29.6c0-2.3-0.1-3.1-0.4-4.9H286.1z M259.6,481.6c5.3,6.1,7.9,9.6,12.2,16.7l-8.6,6.5
				c-4.1-7.7-6.8-11.9-11.6-17.7L259.6,481.6z"/>
			<path class="st2" d="M351.8,484.5c-0.5,0.8-0.5,0.8-1.2,1.9c-2.3,3.9-4.8,7-7.3,9.5c3.7,1,7.1,1.5,11.3,1.9
				c-1.5,3.3-2.2,5.6-3,9.2c-3.2-0.4-4.6-0.7-7.4-1.4c-0.1,1.2-0.1,2.1-0.1,3.1h2.1c3.4,0,4.1,0,5.8-0.2v9.4
				c-1.6-0.2-2.6-0.3-5.8-0.3H344v4.9h3.8c2.9,0,4.1-0.1,5.8-0.3v9.5c-1.9-0.3-4-0.4-7-0.4H344v2.2c0,2.7,0.1,4.3,0.4,6.1H335
				c0.3-2,0.4-3.5,0.4-6.2v-2.1H323c-3.2,0-5.4,0.1-7.3,0.4V524c-1.6,0.9-3.6,1.3-6.7,1.4c-0.1-4.6-0.5-7.3-1.4-9.2v14.7
				c0,3.9,0.1,6.7,0.3,8.8h-9.3c0.2-2.8,0.4-5.8,0.4-9.1V486c0-2.7-0.1-4.5-0.2-7.4c1,0.2,2.3,0.3,4.6,0.3h9.1
				c2.2,0,3.2-0.1,4.3-0.3l4.1,6.5c3.5-3.1,5.4-5.7,6.7-9.1l9.4,1.1c-0.2,0.5-0.2,0.5-0.6,1.3c-0.3,0.6-0.7,1.3-1,1.8h7.8
				c2.2,0,3.2-0.1,4.4-0.3L351.8,484.5z M307.6,500.9c1.7-4.2,2.9-8,4-12.8h-4V500.9z M307.6,515.9c0.6,0.1,0.9,0.1,1.4,0.1
				c1.3,0,1.6-0.6,1.6-2.3c0-3.9-1-7.4-3.1-11.5V515.9z M319.7,508.5c0.2,0.1,0.7,0.1,1.5,0.1c-1.4-3.8-2.2-5.1-4.6-8.1
				c3.8-1,7.1-2.2,10.1-3.6c-0.9-0.8-1.9-1.7-2.9-2.7c-1.1,0.9-1.9,1.3-3.8,2.5c-0.9-1.7-1.3-2.3-2-3.5c-1.1,3.1-1.6,4.4-3.4,8.4
				c3,5.3,4.3,9.7,4.3,14.2c0,2.8-0.6,4.9-1.7,6.7c0.6,0,0.7,0,1,0h4.1v-4.9c-1,0-1.6,0.1-2.6,0.2V508.5z M341.9,505
				c-1.9-0.6-4.4-1.5-6.6-2.6c-4.5,2.9-8.4,4.7-13.3,6.3c0.5,0,0.8,0,1.7,0h11.6c0-1.3,0-1.3-0.2-3.7H341.9z M329.9,488.5
				c1.9,1.9,2.2,2.2,4.6,3.7c1.7-1.3,2.5-1.9,4.1-3.7H329.9z M335.3,517.6h-4.3v4.9h4.3V517.6z"/>
		</g>
	</g>
</g>
</svg>
