<?xml version="1.0" encoding="utf-8"?>
<!-- Generator: Adobe Illustrator 25.4.1, SVG Export Plug-In . SVG Version: 6.00 Build 0)  -->
<svg version="1.1" id="レイヤー_1" xmlns="http://www.w3.org/2000/svg" xmlns:xlink="http://www.w3.org/1999/xlink" x="0px"
	 y="0px" viewBox="0 0 603 29" style="enable-background:new 0 0 603 29;" xml:space="preserve">
<style type="text/css">
	.st0{fill:#FFFFFF;}
</style>
<g>
	<path class="st0" d="M15.6,19.6c-1.1,1.6-2.6,2.9-4.2,4c-1.4,1-3,1.7-4.6,2.4v1.1c0,1.2-0.9,1.5-2.3,1.5c-0.9,0-1.1-0.1-1.1-1
		L3.6,18v-4.7c-1,1.3-2.1,2.4-3.4,3.5L0,16.7c3-4.8,4.1-8.8,4.9-13.8c0.1-0.3,0.1-0.5,0.1-0.8s0-0.5-0.1-0.8l0.2-0.2
		c4,0.9,4.7,1.2,4.7,1.7c0,0.3-0.2,0.6-1.2,0.8C7.9,5.6,7.1,7.5,6.2,9.3C7.5,9.6,8,9.8,8,10.1c0,0.3-0.2,0.5-1.1,0.8v14.7
		c1.7-1.2,3.1-2.8,4.3-4.5c1.3-1.8,2.3-3.8,3-5.9H13c-2,0-3.6,0.1-5.3,0.2l-0.3-1c1.8,0.2,3.5,0.2,5.6,0.2h2.5v-4.5h-1.9v0.5
		c0,0.9-0.7,1.3-2.4,1.3c-0.9,0-1-0.1-1-1l0.1-5V3.6c0-0.9-0.1-1.3-0.2-1.9l0.2-0.2c2.8,0.7,3.7,1.1,3.9,1.4h6.3
		c1.1-1.3,1.4-1.7,1.8-1.7s0.8,0.2,1.8,1.1c1,0.9,1.3,1.2,1.3,1.5c0,0.3-0.3,0.6-1.1,1v1.7l0.1,3.6c0,1-0.8,1.4-2.2,1.4
		c-1.2,0-1.4-0.1-1.4-0.8v-0.5h-1.4c0,0.4-0.1,0.7-0.7,0.8v3.7h3.8c1.5-2.1,1.8-2.4,2-2.4c0.3,0,0.6,0.1,1.6,1
		c1.2,1,1.4,1.2,1.4,1.5c0,0.3-0.2,0.4-0.7,0.4h-7.5c0.4,1.1,0.8,1.9,1.6,2.8c1,1.1,2.1,2.1,3.4,2.9c1.1,0.7,2.3,1.2,3.6,1.6
		L28,22.8c-0.8,0.3-1.7,1.5-2.3,2.8c-0.1,0.4-0.3,0.5-0.6,0.5s-0.5-0.1-0.8-0.3c-2.6-1.9-4.8-5.7-5.4-10.5h-0.1l0.3,12
		c0,1.1-0.9,1.4-2.4,1.4c-1.2,0-1.3-0.1-1.3-1L15.6,19.6z M20.9,3.3h-6.6c-0.1,0.1-0.2,0.2-0.6,0.4v5.9h7.3V3.3z"/>
	<path class="st0" d="M32.1,8.4c3.9-0.2,5.6,1.2,5.6,3.1c0,1.3-0.9,2-2.1,2c-0.9,0-1.5-0.6-1.7-1.7c-0.2-1.7-0.8-2.6-2-3.1L32.1,8.4
		z M32.5,20c0.4,0.1,0.6,0.1,1.1,0.1c0.4,0,0.7-0.1,1-0.6c2.3-4.2,4.3-8.2,6.4-13.2l0.3,0.1c-1.4,5.6-2.7,9.9-3.9,13.6
		c-0.3,0.9-0.4,1.2-0.4,1.5c0,0.3,0,0.6,0.2,1c0.6,1.4,1,2.7,1,3.7c0,1.3-0.8,2.5-2.5,2.5c-1.2,0-1.7-0.6-1.7-1.6
		c0-0.7,0.1-1.5,0.2-2.3c0.1-0.6,0.1-1.3,0.1-1.7c0-1.4-0.1-1.8-2-2.7L32.5,20z M34.4,1.9c4-0.2,5.7,1.3,5.7,3.2
		c0,1.1-0.8,1.9-1.9,1.9c-1.3,0-1.6-0.6-1.8-1.8c-0.3-1.6-0.8-2.6-2-3.1L34.4,1.9z M45.2,12.5c0,0.5-0.2,0.8-0.6,1.1
		c3.4,0.4,4.2,0.7,4.2,1.1c0,0.4-0.2,0.6-1.1,0.9v11h2V15.9c0-1.1-0.1-1.7-0.3-2.2l0.2-0.2c3.7,0.4,4.5,0.8,4.5,1.2
		c0,0.4-0.2,0.6-1.1,0.9v7.6c0.9-2,1.6-4.2,2.1-6c0.1-0.5,0.2-1,0.2-1.4l0.3-0.2c3.3,1.6,3.9,2,3.9,2.4c0,0.4-0.3,0.6-1.3,0.6
		c-1.4,2.1-3.1,3.9-5.2,5.6v2.3h1.7c1.5-2.2,1.8-2.6,2.1-2.6c0.3,0,0.6,0.2,1.6,1.1c1.2,1.1,1.5,1.3,1.5,1.6c0,0.3-0.2,0.4-0.7,0.4
		H46.1c-3.3,0-5.5,0.1-7.4,0.2l-0.3-1c1.7,0.1,3.5,0.2,6,0.2V16c0-1.1-0.1-1.7-0.3-2.2c-0.3,0.1-0.7,0.2-1.3,0.2c-1,0-1.2-0.1-1.2-1
		l0.2-6.1V4.2c0-1.3-0.1-1.9-0.3-2.3l0.2-0.2c2.5,0.6,3.6,1,3.9,1.4h6.4c1.1-1.4,1.5-1.7,1.7-1.7c0.3,0,0.7,0.2,1.9,1.2
		c1.1,0.9,1.3,1.2,1.3,1.5c0,0.3-0.3,0.6-1.1,1v2.3l0.2,4.5c0,1.1-0.6,1.6-2.7,1.6c-0.8,0-1-0.1-1-0.8v-0.5h-7.4V12.5z M39.9,15.9
		c2.5,1.7,3.9,3.5,3.9,6c0,1.4-0.8,2.4-2.1,2.4c-1.2,0-1.6-1-1.5-1.9c0.1-1,0.2-1.9,0.2-2.6c0-1.5-0.3-2.7-0.8-3.7L39.9,15.9z
		 M45.8,3.6c-0.1,0.2-0.3,0.3-0.7,0.4v3.1h7.4V3.6H45.8z M52.6,11.6v-4h-7.4v4H52.6z"/>
	<path class="st0" d="M73.3,13.2c1.1-0.6,2-0.8,2.9-0.8c1.1,0,1.8,0.4,2.5,1.2c0.4,0.5,0.6,1.2,0.8,2.3c1.2-0.5,2.4-1.1,3.6-1.7
		c0.8-0.5,1.1-0.7,1.1-0.8c0-0.2-0.2-0.5-0.5-0.8c-0.2-0.2-0.6-0.5-1-0.6c-0.1-0.1-0.2-0.1-0.2-0.2c0-0.1,0.1-0.2,0.2-0.2
		c0.3-0.1,0.8-0.2,1.4-0.1c1,0.1,2.1,0.7,2.7,1.2c0.8,0.6,1.6,1.6,1.6,2.5c0,1.1-0.6,1.5-1.7,1.5c-0.4,0-0.8-0.1-1.1-0.2
		c-0.3-0.1-0.7-0.1-0.9-0.1c-0.2,0-0.7,0.1-1.2,0.2c-1.1,0.3-2.6,0.7-3.9,1.1c0.1,0.9,0.1,2,0.1,3c0,1.6-0.3,2.2-1.5,2.2
		c-0.4,0-0.9-0.1-1.2-0.5c-0.3-0.3-0.6-0.9-0.6-1.7c0-0.4,0.1-1.1,0.2-1.9c-0.9,0.4-1.8,0.8-2.4,1.2c-1.1,0.8-1.8,1.6-1.8,2.6
		c0,0.7,0.3,1.2,0.8,1.5c0.6,0.4,1.8,0.7,3.7,0.7c1,0,2.4-0.2,3.6-0.4c0.5-0.1,0.8-0.1,1.3-0.3c0.4-0.2,0.7-0.3,1.1-0.3
		c0.7,0,1.6,0.2,2.1,0.6c0.6,0.4,0.9,0.9,0.9,1.5c0,1-0.6,1.4-1.9,1.6c-1.5,0.3-3.1,0.4-4.5,0.4c-3.7,0-5.4-0.6-6.6-1.2
		c-1.2-0.7-1.9-1.9-1.9-3.3c0-1.9,1-3.3,2.7-4.5c0.9-0.6,1.9-1.2,3-1.6c0-1.4-0.1-2.3-0.4-2.8c-0.3-0.5-0.6-0.7-1.1-0.7
		c-0.5,0-0.8,0.2-1.2,0.4c-0.4,0.3-1,0.6-1.5,1c-1.3,1.2-2.4,2.3-3.4,3.6c-0.3,0.4-0.7,0.9-1,1.3c-0.5,0.6-0.9,0.7-1.4,0.7
		c-0.4,0-0.9-0.1-1.1-0.4c-0.4-0.4-0.6-1.1-0.6-1.6c0-0.7,0.3-1.4,0.8-1.9c0.3-0.4,0.8-0.6,1.1-0.8c0.4-0.3,0.9-0.6,1.4-0.9
		c0.8-0.6,1.3-0.9,2.1-1.7c1.2-1.2,2.2-2.3,3-3.5c-0.6,0-1.1,0.1-1.7,0.1c-1,0-1.8-0.3-2.4-0.9c-0.6-0.6-1.1-1.2-1.5-2.1
		c-0.1-0.2,0-0.3,0.1-0.3c0.1,0,0.1,0,0.2,0.1c0.4,0.3,0.9,0.5,1.3,0.6c0.5,0.2,0.9,0.2,1.3,0.2c0.4,0,1.3-0.1,2.2-0.2
		c0.6-0.1,1.4-0.3,2.1-0.4c0.2-0.5,0.4-1,0.5-1.4c0.1-0.5,0.3-1.1,0.3-1.5c0-0.5-0.1-0.7-0.3-0.8c-0.2-0.1-0.5-0.2-0.9-0.3
		c-0.1,0-0.2-0.1-0.2-0.2s0.1-0.2,0.2-0.3c0.4-0.2,1-0.5,1.5-0.5c0.5,0,1.3,0.4,1.7,0.8c0.5,0.4,0.9,0.9,0.9,1.4
		c0,0.3-0.3,0.8-0.6,1.5c-0.1,0.2-0.2,0.4-0.3,0.6c0.6-0.2,1.1-0.4,1.6-0.6c0.6-0.3,0.6-0.3,1-0.3c0.3,0,1,0.2,1.3,0.4
		c0.6,0.3,0.8,0.8,0.8,1.2c0,0.8-0.8,1.1-1.7,1.5C79.5,8.6,77.8,9,76,9.4C75,11,73.9,12.4,73.3,13.2L73.3,13.2z"/>
	<path class="st0" d="M97.6,14.5h-0.8c-1.2,0-1.8,0.1-3.2,0.2l-0.3-1c1.5,0.2,2.2,0.2,3.4,0.2h0.4c0.9-1.2,1.4-1.7,1.7-1.7
		s0.6,0.1,1.7,1.1c1.2,1,1.4,1.3,1.4,1.6c0,0.4-0.3,0.6-1.1,1v6.7c0,1.7,1.9,2.5,6.6,2.5c4.2,0,8.4-0.2,13.7-0.9v0.3
		c-1.2,0.6-1.9,1.7-2.2,3c-0.1,0.4-0.3,0.6-0.8,0.7c-2.4,0.1-6.1,0.1-10.5,0.1c-4.1,0-6.4-1.2-7.3-4.6c-1.8,1.8-3.1,3-4.5,4.3
		c-0.2,0.2-0.3,0.3-0.6,0.3c-0.2,0-0.3-0.1-0.5-0.4c-0.7-1-1.2-1.9-1.7-3l0.1-0.3c1.6-0.5,3-1,4.4-1.6V14.5z M95.8,2.8
		c4.1,0.6,6,2.3,6,4.1c0,1.4-0.8,2.3-2.2,2.3c-1,0-1.5-0.7-1.6-1.7C97.7,6,97.4,4.2,95.6,3L95.8,2.8z M107.3,22v0.5
		c0,1-0.6,1.8-2.6,1.8c-0.7,0-0.9-0.1-0.9-1l0.3-10.2V7.7c0-1.7-0.1-2.2-0.3-2.7l0.2-0.2c1.9,0.5,3.1,1,3.7,1.4
		c0.2-1.1,0.4-2.1,0.5-3.1c0.1-0.8,0.1-1.2,0.1-1.7l0.3-0.1c3.9,1,4.6,1.4,4.6,1.8c0,0.5-0.3,0.6-1.5,0.6c-0.6,0.8-1.4,1.8-2.3,2.6
		h4.1c0.9-1.3,1.2-1.7,1.6-1.7c0.3,0,0.6,0.1,1.8,1c1.1,0.8,1.5,1.2,1.5,1.5c0,0.3-0.2,0.5-1.1,1v0.8l0.1,3c0,1.3-0.5,1.9-2.5,1.9
		c-1,0-1-0.1-1-0.8v-0.8h-6.6V16h7c0.9-1.3,1.2-1.7,1.6-1.7c0.3,0,0.6,0.1,1.8,1c1.1,0.8,1.5,1.2,1.5,1.5c0,0.3-0.2,0.5-1.1,1v0.8
		l0.1,3.1c0,1.3-0.5,1.9-2.5,1.9c-1,0-1-0.1-1-0.8V22H107.3z M108,6.8c-0.1,0.1-0.3,0.2-0.7,0.4v4.5h6.6V6.8H108z M114.7,16.5h-7.4
		v5h7.4V16.5z"/>
	<path class="st0" d="M140.5,8.3l0.5,17.3c0,2-2.2,3-4.5,3c-0.4,0-0.5-0.1-0.6-0.6c-0.3-1.4-1.1-2.3-3.2-2.8v-0.3c1,0,2.1,0,3-0.1
		c1.1-0.1,1.6-0.3,1.6-1.4v-5.9c-2.5,2.8-5.2,5.2-8.7,7.7c-0.3,0.2-0.5,0.3-0.7,0.3c-0.2,0-0.3-0.1-0.6-0.3c-0.8-1-1.4-1.9-2.1-3.1
		l0.1-0.3c0.9-0.3,1.8-0.5,2.9-1c3.3-1.4,6.2-2.8,9.1-4.6v-8h-3.9c-3.3,0-5.9,0.1-7.4,0.2l-0.3-1c1.7,0.2,4.3,0.2,7.7,0.2h3.9V3.6
		c0-1.1-0.1-1.6-0.3-2.2l0.2-0.2c3.8,0.4,4.7,0.7,4.7,1.2c0,0.3-0.3,0.6-1.1,0.8v4.5h6.2c1.6-2.2,2.1-2.6,2.3-2.6
		c0.3,0,0.6,0.2,1.9,1.2s1.5,1.3,1.5,1.6c0,0.3-0.1,0.3-0.6,0.3h-10.8c0.2,1,0.4,1.9,0.7,2.8c0.5,1.4,1.1,2.8,1.9,4
		c1-1.2,1.9-2.5,2.6-3.8c0.4-0.7,0.6-1.1,0.6-1.6l0.3-0.1c3.4,2.3,3.9,2.7,3.9,3.2c0,0.3-0.3,0.5-0.9,0.5c-0.2,0-0.4,0-0.7-0.1
		c-1.7,1-3.3,1.8-5.3,2.6c2.2,2.9,5.3,4.9,8.5,6.3v0.3c-1.3,0.5-2.3,1.4-3.1,2.6c-0.4,0.6-0.5,0.8-0.8,0.8c-0.2,0-0.5-0.1-1-0.6
		c-4.5-4-6.7-8.3-7.3-17.1H140.5z M128.5,10.6c3.9,0.1,6.2,1.7,6.2,3.9c0,1.5-1,2.2-2.1,2.2c-0.8,0-1.4-0.4-1.6-1.3
		c-0.5-2.4-1.2-3.7-2.7-4.5L128.5,10.6z M142.2,2.1c3.3,0.1,5.2,1.1,5.2,3c0,1.3-0.9,1.9-1.9,1.9c-0.9,0-1.4-0.4-1.5-1.3
		c-0.3-1.4-0.8-2.5-1.9-3.3L142.2,2.1z"/>
	<path class="st0" d="M160.6,3.8c-0.2-0.2-0.6-0.5-1-0.7c-0.1-0.1-0.1-0.1-0.1-0.2c0-0.1,0.1-0.1,0.1-0.2c0.3-0.2,0.8-0.2,1.2-0.2
		c1,0,2,0.6,2.9,1.4c0.9,0.8,1.5,1.7,1.5,2.7c0,0.5-0.2,1-0.5,1.6c-0.3,0.5-0.5,1.1-0.6,1.7c-0.6,2.1-1.3,5.1-1.6,7.6
		c-0.1,1.1-0.2,2.1-0.2,3.2c0,1,0.1,1.7,0.6,2.1c0.5,0.5,1.1,0.8,2.6,0.8c3,0,5.1-0.9,7.3-2.3c2-1.3,3.7-3.6,4.8-6.7
		c0.1-0.1,0.1-0.1,0.2-0.1s0.2,0.1,0.2,0.2c0,0.1,0,0.1,0,0.3c-0.7,4.1-2,7.2-4,9c-2.1,2-4.5,3.1-7.6,3.1c-2.3,0-3.8-0.8-4.8-1.9
		c-1.1-1.2-1.7-2.9-1.7-5.3c0-1.7,0.1-3.2,0.2-4.8c0.2-2.1,0.5-4.5,0.8-7.1c0.1-1.4,0.2-2.1,0.2-2.9C161.1,4.4,161,4.1,160.6,3.8z"
		/>
	<path class="st0" d="M193.8,6.6c0.5-0.3,0.7-0.3,0.9-0.3c0.5,0,1,0.2,1.4,0.4c0.4,0.2,0.8,0.6,0.8,1.1c0,0.7-0.5,0.9-1.2,1.3
		c-0.9,0.5-2.5,1.1-3.8,1.6c-1,3.4-2.4,8.1-3.3,11.7c-0.2,0.9-0.3,1.7-0.5,2.6c-0.1,0.6-0.3,1-0.4,1.3c-0.3,0.4-0.7,0.6-1.1,0.6
		c-0.7,0-1.2-0.3-1.5-0.8c-0.3-0.4-0.6-1.2-0.6-1.9c0-0.6,0.1-1.2,0.4-1.9c0.2-0.4,0.5-0.8,0.7-1.2c0.3-0.5,0.5-1.1,0.7-1.6
		c1-2.3,2.1-5.3,3-8c-0.9,0.2-1.7,0.3-2.2,0.3c-0.8,0-1.4-0.2-1.9-0.6c-0.8-0.5-1.4-1.2-1.9-2.1c0-0.1-0.1-0.1-0.1-0.2
		c0-0.1,0.1-0.2,0.1-0.2c0.1,0,0.1,0,0.2,0.1c0.8,0.4,1.4,0.6,2,0.6c0.6,0,1.3-0.1,2.1-0.3c0.8-0.2,1.9-0.5,2.7-0.8
		c0.3-0.9,0.5-1.7,0.6-2.5c0.1-0.4,0.1-1,0.1-1.3c0-0.5,0-0.6-0.4-0.8c-0.2-0.1-0.5-0.2-0.9-0.2c-0.2,0-0.3-0.1-0.3-0.2
		c0-0.1,0.1-0.2,0.2-0.3c0.4-0.3,1-0.6,1.7-0.6c0.5,0,1.4,0.3,1.9,0.6c0.7,0.4,1,0.8,1,1.3c0,0.3-0.1,0.6-0.4,1
		c-0.3,0.3-0.4,0.8-0.6,1.2c-0.1,0.1-0.1,0.3-0.2,0.6C193.4,6.9,193.6,6.8,193.8,6.6z M203.2,22.6c0.5-0.1,0.8-0.1,1.1-0.2
		c0.3-0.1,0.5-0.1,0.8-0.1c0.6,0,1.5,0.3,1.8,0.6c0.4,0.3,0.9,0.8,0.9,1.5c0,0.8-0.5,1.2-1.6,1.5c-1.1,0.2-2.6,0.3-3.1,0.3
		c-3,0-5.3-0.6-6.6-1.5c-1.2-0.8-1.9-2-1.9-3.5c0-0.6,0.2-1.3,0.5-2.1c0.2-0.5,0.4-0.8,0.8-1.3c0.1-0.1,0.1-0.1,0.2-0.1
		c0.1,0,0.2,0.1,0.1,0.3c-0.3,0.7-0.5,1.4-0.5,2.1c0,0.7,0.2,1.4,1,1.9c1,0.6,2.1,1,4.5,1C201.8,22.8,202.5,22.7,203.2,22.6z
		 M199.2,15.1c0-0.1,0.1-0.1,0.1-0.2c0.7-0.5,1.6-1.3,2.1-1.8c0.4-0.4,0.6-0.6,0.6-0.9c0-0.1-0.1-0.2-0.3-0.3
		c-0.3-0.1-0.7-0.1-1-0.1c-0.3,0-1,0-1.8,0.1c-0.8,0.1-2,0.3-3,0.6c-0.2,0.1-0.3,0-0.3-0.1c0-0.1,0.1-0.2,0.2-0.3
		c0.9-0.7,2-1.2,3-1.6c1.1-0.4,2.4-0.6,3.5-0.6c1.8,0,2.7,0.3,3.5,0.7c0.9,0.4,1.5,1.1,1.5,1.8c0,0.5-0.2,0.9-0.6,1.1
		c-0.2,0.1-0.6,0.2-1,0.2c-0.4,0-0.8,0-1.1,0c-0.4,0-0.9,0.1-1.3,0.2c-0.8,0.2-2.1,0.7-3.7,1.3C199.3,15.3,199.2,15.2,199.2,15.1z"
		/>
	<path class="st0" d="M222.5,21.5c-2.8,2.1-6,3.5-9.9,4c-0.2,0-0.3-0.1-0.3-0.2s0.1-0.2,0.2-0.2c3.3-1.4,6.1-3.4,8.4-5.5
		c2.6-2.5,4.7-5.4,6.1-8.6c0.2-0.5,0.6-1.3,0.6-1.6c0-0.1-0.1-0.2-0.3-0.2c-0.1,0-0.2,0-0.4,0.1c-1,0.2-2.4,0.6-3.3,1
		c-0.4,0.1-1.2,0.5-1.5,0.8c-0.3,0.3-0.8,0.5-1.2,0.5c-0.5,0-1.2-0.5-1.8-1c-0.7-0.7-1.4-1.4-1.4-2.1c0-0.2,0-0.5,0.1-0.8
		c0.1-0.2,0.1-0.3,0.2-0.3c0.1,0,0.2,0.1,0.3,0.2c0.3,0.3,0.7,0.5,0.9,0.6c0.3,0.2,0.8,0.3,1.1,0.3s0.9-0.1,1.6-0.2
		c1.3-0.2,3-0.6,4.1-0.8c0.6-0.1,0.6-0.1,1.2-0.8c0.3-0.3,0.5-0.4,0.9-0.4c0.4,0,1.5,0.5,2.4,1c1.1,0.8,2,1.5,2,2.3
		c0,0.6-0.3,0.7-0.9,0.9c-0.8,0.3-0.7,0.5-1.2,1.4c-0.8,1.5-1.7,2.8-2.6,4.1c1.9,0.2,3.3,0.8,4.5,1.5c1.3,0.8,2.5,2,2.5,3.7
		c0,1.2-0.8,2-2,2c-1.2,0-1.7-0.6-2.4-2.3c-0.8-1.8-1.7-3.3-3.1-4.2C226,18.5,224.4,20.1,222.5,21.5z"/>
	<path class="st0" d="M250.2,11.4c-0.6,0.2-1,0.3-1.5,0.5c-0.3,0.1-1,0.3-1.3,0.6c-0.4,0.3-0.7,0.4-1.1,0.4c-0.5,0-0.9-0.2-1.7-0.7
		c-0.6-0.4-1.3-1.1-1.3-1.7c0-0.1,0-0.2,0-0.3c0-0.1,0.1-0.2,0.2-0.2c0.1,0,0.1,0,0.2,0.1c0.4,0.2,0.7,0.3,0.9,0.3
		c0.4,0.1,0.7,0.1,0.9,0.1c0.5,0,1.4-0.2,1.9-0.4c0.7-0.2,1.4-0.4,2.2-0.6c-0.1-0.7-0.3-1.3-0.4-2c-0.3-1.6-0.5-2-1-2.3
		c-0.2-0.1-0.5-0.2-1-0.2c-0.2,0-0.3-0.1-0.3-0.2c0-0.1,0.1-0.2,0.2-0.3c0.2-0.2,0.5-0.5,0.8-0.6c0.4-0.3,0.8-0.5,1.2-0.5
		c0.4,0,1.3,0.1,2.2,0.5c0.9,0.4,1.3,0.7,1.3,1.1c0,0.2-0.1,0.5-0.2,0.6c-0.1,0.1-0.2,0.3-0.2,0.6c0,0.3,0.1,1,0.2,1.9l0.1,0.6
		c0.5-0.1,0.9-0.3,1.3-0.4c0.6-0.2,0.9-0.3,1.2-0.8c0.3-0.3,0.5-0.4,1-0.4c0.8,0,1.8,0,2.2,0.2c0.8,0.3,1,0.7,1,1.2
		c0,0.5-0.2,0.8-1,1c-1.1,0.3-2.1,0.4-3.2,0.7c-0.6,0.1-1.4,0.3-2.1,0.6l0.3,1.3c0.2,0.9,0.3,1.8,0.6,2.6c1-0.3,1.9-0.5,2.8-0.8
		c0.8-0.3,0.9-0.3,1.3-0.7c0.3-0.3,0.6-0.4,1.3-0.4c0.5,0,1.8,0.1,2.3,0.3c1,0.3,1.5,0.7,1.5,1.4c0,0.8-0.4,1.1-1.5,1.1
		c-0.7,0-1.5,0-2.1,0c-0.3,0-1.4,0.1-2.4,0.3c-0.9,0.1-1.9,0.3-2.8,0.6c0.3,1.1,0.5,2.2,0.8,3.3c0.5,1.7,0.7,2.9,1,3.9
		c0.2,0.8,0.3,1.5,0.3,1.9c0,0.9-0.5,1.5-1.4,1.5c-0.7,0-1.1-0.3-1.7-1c-0.7-0.8-1.2-1.6-1.2-2.3c0-0.3,0-0.6,0.1-1
		c0-0.5-0.1-1.2-0.2-1.9c-0.2-1.2-0.4-2.3-0.6-3.4c-1.2,0.4-2.5,0.9-3.5,1.3c-0.3,0.1-1,0.5-1.4,0.9c-0.4,0.4-0.6,0.5-1.2,0.5
		c-0.7,0-1.3-0.3-2-0.8c-0.7-0.5-1.5-1.2-1.5-1.9v-0.4c0-0.2,0.1-0.3,0.2-0.3c0.1,0,0.1,0,0.2,0.1c0.4,0.2,0.8,0.3,1.1,0.4
		c0.4,0.1,0.8,0.2,1,0.2c0.3,0,0.9-0.1,1.7-0.4c1.8-0.6,3.4-1.1,5-1.6L250.2,11.4z"/>
	<path class="st0" d="M268.6,8.7c0-0.1,0.1-0.2,0.3-0.2c0.4-0.1,0.8-0.1,1.2-0.1c1.4,0,2.9,0.3,3.9,0.9c1.2,0.6,2.1,1.6,2.1,2.8
		c0,1.4-0.8,2.1-2.1,2.1c-0.9,0-1.6-0.6-2.1-1.8c-0.8-1.7-1.7-2.8-3.2-3.6C268.7,8.9,268.6,8.8,268.6,8.7z M275.1,23.7
		c-0.6,0.5-0.8,0.7-1.2,0.7c-0.8,0-1.9-0.8-2.6-1.6c-0.8-0.8-1.4-1.7-1.4-2.3c0-0.3,0.1-0.9,0.3-1.3c0.1-0.2,0.1-0.3,0.2-0.3
		c0.1,0,0.2,0.1,0.3,0.2c0.3,0.4,0.5,0.6,0.7,0.8c0.3,0.2,0.6,0.5,1,0.5c0.5,0,2-0.8,2.9-1.3c2.9-1.7,5.7-3.8,8.3-6.3
		c2.3-2.2,4.5-4.7,6.7-7.6c0.1-0.1,0.1-0.1,0.2-0.1c0.1,0,0.1,0.1,0.1,0.2c0,0.1,0,0.2-0.1,0.3c-1.1,3.5-2.9,6.6-5.2,9.4
		c-2.7,3.2-5.6,5.7-8.4,7.5C276.1,23,275.6,23.3,275.1,23.7z"/>
	<path class="st0" d="M302.2,10.4c0.4,0,1.2-0.2,1.7-0.2c1.7-0.2,3.9-0.7,5.2-1c1-0.3,1.1-0.4,1.6-0.8c0.3-0.3,0.6-0.3,1-0.3
		c0.6,0,1.9,0.2,2.7,0.5c1,0.3,1.4,0.8,1.4,1.5c0,0.6-0.5,1.2-1.4,1.2c-0.4,0-0.9,0-1.5-0.1c-0.6,0-1.4,0-2,0.1
		c-0.9,0.1-1.9,0.2-3,0.3c0.3,0.2,0.5,0.4,0.8,0.6c0.6,0.6,1.1,0.9,1.1,1.5c0,0.3-0.1,0.6-0.4,1c-0.2,0.5-0.4,1-0.6,1.4
		c-1.2,3.1-3,5.6-5.4,7.8c-1.9,1.6-3.9,2.9-6.6,3.8c-0.2,0.1-0.3,0.1-0.4,0.1c-0.1,0-0.2-0.1-0.2-0.2c0-0.1,0-0.2,0.1-0.3
		c2-1.5,3.8-3.1,5.2-5.1c1.6-2.1,2.9-4.5,3.7-7c0.2-0.6,0.3-1.3,0.3-1.9c0-0.5-0.1-0.7-0.2-1c-0.1-0.1-0.1-0.2-0.1-0.3
		c-0.3,0.1-0.5,0.1-0.8,0.1c-0.4,0.1-0.8,0.1-1.1,0.2c-0.5,0.1-0.8,0.2-1.1,0.2c-0.4,0-0.7-0.2-1.1-0.5c-0.1-0.1-0.1-0.1-0.2-0.1
		c-0.4,0.5-0.8,1-1.2,1.5c-1.4,1.6-3,2.8-4.7,3.7c-0.1,0-0.1,0.1-0.2,0.1c-0.1,0-0.2-0.1-0.2-0.2c0-0.1,0-0.1,0.1-0.2
		c1.2-1.5,2.3-2.9,3.2-4.6c1.1-1.9,2-3.9,2.7-6.1c0.2-0.6,0.3-1,0.3-1.3c0-0.4,0-0.5-0.4-0.8c-0.2-0.1-0.3-0.2-0.6-0.4
		c-0.1-0.1-0.2-0.2-0.2-0.3s0.1-0.2,0.2-0.3c0.4-0.3,1-0.4,1.3-0.4c0.5,0,1.5,0.4,2.3,1c0.9,0.6,1.5,1.1,1.5,1.8
		c0,0.3-0.2,0.6-0.6,0.9c-0.3,0.2-0.5,0.6-0.7,1c-0.6,1-1.3,2-2,3H302.2z"/>
	<path class="st0" d="M332.7,14.7c-0.6,2.6-1.5,5.1-3.2,7.4c-1.7,2.1-3.8,3.9-6.6,4.7c-0.1,0-0.3,0.1-0.4,0.1
		c-0.1,0-0.2-0.1-0.2-0.1s0-0.1,0.1-0.2c1.8-1.5,3.6-3.4,4.7-5.6c1.2-2.1,1.8-4.3,2.2-6.6c0.1-0.4,0.2-1.2,0.2-1.7
		c0-0.6,0-0.8-0.5-1c-0.1-0.1-0.3-0.2-0.6-0.3c-0.2-0.1-0.3-0.1-0.3-0.2c0-0.1,0.1-0.2,0.2-0.3c0.4-0.3,1-0.5,1.5-0.5
		c0.6,0,1.3,0.3,2.1,0.8c0.8,0.5,1.3,0.8,1.4,1.3c1.2-1.1,2-2.4,2.6-3.7c0.2-0.3,0.5-0.9,0.5-1.1c0-0.2-0.1-0.3-0.6-0.2
		c-2.2,0.2-4.9,0.8-7.3,1.3c-0.6,0.1-1.7,0.3-2.4,0.7c-0.6,0.3-0.9,0.6-1.5,0.6c-0.7,0-1.2-0.4-1.9-0.9c-0.6-0.6-1.4-1.4-1.4-2.1
		c0-0.3,0-0.6,0.1-0.8c0.1-0.2,0.1-0.3,0.3-0.3c0.1,0,0.2,0,0.3,0.1c0.4,0.3,0.9,0.6,1.2,0.8c0.4,0.2,0.8,0.3,1.2,0.3
		c0.6,0,1.7-0.1,2.6-0.3c2.7-0.4,5.5-0.8,8.2-1.1c0.8-0.1,0.7,0,1.2-0.5c0.5-0.3,0.8-0.4,1-0.4c0.5,0,1.8,0.8,2.8,1.5
		c1.2,0.9,2.1,1.9,2.1,2.7c0,0.5-0.5,0.8-1,0.8c-0.9,0-1,0.2-1.8,0.6c-2.2,1.4-4,2.4-6.2,3.2C332.9,13.9,332.8,14.2,332.7,14.7z"/>
	<path class="st0" d="M360.8,9.3c0-0.2,0-0.2-0.2-0.2c-0.2,0-1,0.2-1.4,0.3c-1.3,0.3-2.8,0.6-4.1,1c-0.5,0.1-1.2,0.4-1.8,0.8
		c-0.5,0.3-0.8,0.5-1.3,0.5c-0.7,0-1.5-0.5-2.1-1.1c-0.7-0.7-1.2-1.5-1.2-2.1c0-0.2,0-0.4,0.1-0.7c0.1-0.2,0.1-0.3,0.3-0.3
		c0.1,0,0.2,0.1,0.3,0.1c0.4,0.3,0.8,0.5,1.1,0.6c0.4,0.2,0.8,0.3,1.2,0.3c0.3,0,1.1-0.1,1.8-0.2c1.8-0.3,3.9-0.7,5.5-1
		c1.2-0.2,1.4-0.3,1.8-0.8c0.3-0.3,0.5-0.4,0.8-0.4c0.5,0,1.5,0.4,2.4,1.1c0.9,0.6,1.8,1.4,1.8,2.1c0,0.3-0.1,0.5-0.5,0.9
		c-0.7,0.5-0.7,0.6-1,1.5c-1.7,4.8-3.9,8.1-7,10.7c-2.5,2.1-5.8,3.5-9.3,4.1c-0.2,0-0.3,0.1-0.4,0.1c-0.1,0-0.2-0.1-0.2-0.2
		c0-0.1,0.1-0.1,0.2-0.2c2.9-1.4,5.5-3.3,7.7-5.8c2.3-2.6,4.1-6,5.2-9.4C360.6,10.4,360.8,9.7,360.8,9.3z M367.2,4.4
		c0.7,0.4,1.1,1,1.1,1.6c0,0.7-0.5,1.3-1.1,1.3c-0.4,0-0.8-0.2-1.1-0.8c-0.7-1.2-1.4-1.9-2.3-2.5c-0.1-0.1-0.2-0.1-0.2-0.2
		c0-0.1,0.1-0.2,0.3-0.2C365.3,3.6,366.4,3.9,367.2,4.4z M367.2,1.6c1.1,0,1.9,0.2,2.5,0.5c0.8,0.4,1.2,1,1.2,1.7
		c0,0.7-0.4,1.2-1,1.2c-0.4,0-0.7-0.1-1.1-0.8c-0.8-1.1-1.5-1.7-2.4-2.1c-0.1-0.1-0.2-0.1-0.2-0.2s0.1-0.1,0.3-0.2
		C366.7,1.6,366.9,1.6,367.2,1.6z"/>
	<path class="st0" d="M386.3,12.6c0-0.2,0-0.2-0.3-0.2c-0.2,0-0.8,0.1-1.2,0.2c-1.1,0.3-2.6,0.6-3.8,1c-0.4,0.1-1.6,0.5-2.1,0.9
		c-0.4,0.3-0.7,0.5-1.2,0.5c-0.7,0-1.3-0.4-1.9-1c-0.6-0.5-1.2-1.2-1.2-1.7c0-0.2,0-0.5,0-0.7c0-0.2,0.1-0.3,0.2-0.3
		c0.1,0,0.2,0,0.3,0.1c0.3,0.2,0.6,0.4,0.8,0.5c0.4,0.2,0.7,0.3,1.1,0.3c0.6,0,1.5-0.2,2.3-0.3c1.8-0.4,3.5-0.8,5.2-1.1
		c0.9-0.2,1-0.2,1.4-0.6c0.3-0.4,0.6-0.5,1-0.5c0.5,0,1.4,0.5,2.2,1c1,0.6,1.9,1.4,1.9,2.1c0,0.2-0.1,0.6-0.6,0.8
		c-0.7,0.3-0.7,0.5-1,1.4c-1.4,3.7-3.6,6.7-6.1,8.7c-2.3,1.8-5,2.9-7.9,3.6c-0.1,0-0.4,0.1-0.6,0.1c-0.2,0-0.3-0.1-0.3-0.2
		c0-0.1,0.1-0.2,0.2-0.3c2.6-1.2,4.8-2.9,6.6-4.9c2-2.2,3.5-5,4.4-7.7C386.1,13.6,386.3,12.9,386.3,12.6z M376.1,5.7
		c0-0.2,0.1-0.3,0.2-0.3c0.1,0,0.1,0,0.2,0.1c0.3,0.2,0.6,0.3,0.8,0.5c0.4,0.2,0.7,0.2,1.1,0.2c0.4,0,1.2-0.1,1.8-0.3
		c0.8-0.2,2.1-0.5,3-0.8c0.6-0.2,0.8-0.4,1.1-0.6c0.3-0.3,0.6-0.3,1.1-0.3c0.7,0,1.4,0.1,1.9,0.3c0.7,0.3,1.1,0.7,1.1,1.2
		c0,0.8-0.6,1.1-1.6,1.3c-1.5,0.3-3.9,0.8-5.5,1.2c-0.8,0.2-1.7,0.3-2.1,0.3c-0.8,0-1.6-0.5-2.2-1.1c-0.6-0.6-1-1.2-1-1.5V5.7z"/>
	<path class="st0" d="M397.8,8.7c0-0.1,0.1-0.2,0.3-0.2c0.4-0.1,0.8-0.1,1.2-0.1c1.4,0,2.9,0.3,3.9,0.9c1.2,0.6,2.1,1.6,2.1,2.8
		c0,1.4-0.8,2.1-2.1,2.1c-0.9,0-1.6-0.6-2.1-1.8c-0.8-1.7-1.7-2.8-3.2-3.6C397.9,8.9,397.8,8.8,397.8,8.7z M404.4,23.7
		c-0.6,0.5-0.8,0.7-1.2,0.7c-0.8,0-1.9-0.8-2.6-1.6c-0.8-0.8-1.4-1.7-1.4-2.3c0-0.3,0.1-0.9,0.3-1.3c0.1-0.2,0.1-0.3,0.2-0.3
		s0.2,0.1,0.3,0.2c0.3,0.4,0.5,0.6,0.7,0.8c0.3,0.2,0.6,0.5,1,0.5c0.5,0,2-0.8,2.9-1.3c2.9-1.7,5.7-3.8,8.3-6.3
		c2.3-2.2,4.5-4.7,6.7-7.6c0.1-0.1,0.1-0.1,0.2-0.1c0.1,0,0.1,0.1,0.1,0.2c0,0.1,0,0.2-0.1,0.3c-1.1,3.5-2.9,6.6-5.2,9.4
		c-2.7,3.2-5.6,5.7-8.4,7.5C405.4,23,404.8,23.3,404.4,23.7z"/>
	<path class="st0" d="M430.9,19.7c0,1.3,0.1,3.2,0.1,4.7c0,1.5-0.7,2.1-1.7,2.1c-0.7,0-1.2-0.5-1.6-1.3c-0.4-0.7-0.8-1.5-0.8-2.3
		c0-0.6,0.1-0.8,0.3-1.2c0.2-0.4,0.2-0.9,0.2-1.5c0.1-2.3,0.1-4.8,0.2-7.3c0-1.7,0-3.4,0-5.2c0-1.7-0.1-2.1-0.6-2.5
		c-0.2-0.2-0.6-0.4-1-0.6C426,4.6,426,4.5,426,4.4s0.1-0.2,0.2-0.3c0.5-0.3,1.2-0.6,1.7-0.6c0.6,0,1.6,0.4,2.4,1
		c0.9,0.6,1.5,1.1,1.5,1.8c0,0.3,0,0.4-0.4,0.7c-0.4,0.3-0.4,0.5-0.5,1.5c-0.1,1.2-0.1,2.4,0,3.5c2.1,0,4.2,0.5,5.6,1.4
		c1.2,0.8,2.2,1.8,2.2,3.3c0,1.2-0.7,2.1-1.9,2.1c-1,0-1.7-0.6-2.2-1.8c-0.8-2-2-3.4-3.7-4.2C430.8,15.2,430.9,17.4,430.9,19.7z
		 M438.7,6.7c0.7,0.4,1.1,1,1.1,1.6c0,0.7-0.5,1.3-1.1,1.3c-0.4,0-0.8-0.2-1.1-0.8c-0.7-1.2-1.4-1.9-2.3-2.5
		c-0.1-0.1-0.2-0.1-0.2-0.2s0.1-0.2,0.3-0.2C436.8,5.9,437.9,6.2,438.7,6.7z M438.7,3.9c1.1,0,1.9,0.2,2.5,0.5
		c0.8,0.4,1.2,1,1.2,1.7c0,0.7-0.4,1.2-1,1.2c-0.4,0-0.7-0.1-1.1-0.8c-0.8-1.1-1.5-1.7-2.4-2.1c-0.1-0.1-0.2-0.1-0.2-0.2
		c0-0.1,0.1-0.1,0.3-0.2C438.2,3.9,438.5,3.9,438.7,3.9z"/>
	<path class="st0" d="M459.1,1.3v1.1h-8.6v20.9h-1.2v-22H459.1z"/>
	<path class="st0" d="M469.7,21.9c0,2.4,0.7,3.1,2.1,3.1c1.1,0,2-0.8,2.5-2.7c0-0.1,0.1-0.2,0.3-0.2c0.1,0,0.3,0.1,0.3,0.3
		c0,0.3-0.8,3.9-4.2,3.9c-2.4,0-4.5-1.2-4.5-4.4v-8.3c0-1.6-0.3-2-1.3-2h-1.1c-0.2,0-0.3-0.1-0.3-0.3s0.1-0.3,0.3-0.3h0.5
		c2,0,4.2-1.3,5-4.8c0-0.2,0.2-0.3,0.3-0.3c0.1,0,0.3,0.1,0.3,0.3V11h4.1c0.2,0,0.3,0.1,0.3,0.3c0,0.2-0.1,0.3-0.3,0.3h-4.1V21.9z"
		/>
	<path class="st0" d="M495,22c0,2.7,0.3,3.4,2.4,3.4c0.2,0,0.3,0.1,0.3,0.3s-0.1,0.3-0.3,0.3h-4.8c-0.9,0-1-0.3-1-1.2
		c0-0.5,0.2-2,0.3-2.5h-0.1c-0.6,2.5-2.5,4-5.6,4c-3.2,0-5.1-1.7-5.1-5v-8.2c0-0.8-0.1-1.5-1.1-1.5h-1c-0.2,0-0.3-0.1-0.3-0.3
		s0.1-0.3,0.3-0.3c1.9,0,3.7-0.1,4.9-0.4c0.4-0.1,0.9-0.2,1-0.2c0.2,0,0.3,0.1,0.3,0.3c0,0.1,0,0.2-0.1,0.6
		c-0.2,0.8-0.3,2.9-0.3,4.1V21c0,2.9,0.9,4.2,3,4.2c2.3,0,3.7-2.1,3.7-4.6v-7.3c0-1-0.1-1.7-1.1-1.7h-1.6c-0.2,0-0.3-0.1-0.3-0.3
		s0.1-0.3,0.3-0.3c2.2,0,4.6,0,5.8-0.5c0.1-0.1,0.3-0.1,0.4-0.1c0.2,0,0.3,0.1,0.3,0.3c0,0.2,0,0.4-0.1,0.7
		c-0.1,0.6-0.2,1.7-0.2,4.5V22z"/>
	<path class="st0" d="M502.6,11.6c-0.2,0-0.3-0.1-0.3-0.3s0.1-0.3,0.3-0.3c2.3,0,3.8-0.1,4.9-0.3c0.1,0,0.2-0.1,0.3-0.1
		c0.2,0,0.3,0.1,0.3,0.3c0,0.1,0,0.1-0.1,0.6c-0.1,0.4-0.2,1.6-0.2,3.1v8.5c0,2,0.1,2.1,2.1,2.2c0.2,0,0.3,0.1,0.3,0.3
		S510.2,26,510,26c-0.3,0-1,0-1.9-0.1c-0.8,0-1.6-0.1-2.1-0.1c-0.5,0-1.2,0-1.9,0.1c-0.8,0.1-1.6,0.1-2,0.1c-0.2,0-0.3-0.1-0.3-0.3
		s0.1-0.3,0.3-0.3c2-0.1,2.1-0.2,2.1-2.2v-9.1c0-2.1-0.1-2.4-1.1-2.4H502.6z M508.3,5c0,1.2-1,2.1-2.1,2.1c-1.2,0-2.2-1-2.2-2.1
		s1-2.1,2.2-2.1C507.4,2.8,508.3,3.8,508.3,5z"/>
	<path class="st0" d="M523.9,1.7c-5,3.5-7.2,8-7.2,13.3c0,5.2,2.1,9.7,7.2,13.3l-0.7,0.9c-5.2-3.7-7.7-8.2-7.7-14.1
		c0-5.9,2.4-10.4,7.7-14.1L523.9,1.7z"/>
	<path class="st0" d="M529.5,7.8c0-0.1,0.1-0.1,0.2-0.1c2.3,0.2,3.6,0.9,4.6,1.8c0.8,0.7,1.3,1.6,1.3,2.7c0,1.2-0.7,1.9-1.9,1.9
		c-0.9,0-1.5-0.5-1.9-2.1c-0.4-1.7-1.1-3-2.2-3.9C529.5,7.9,529.5,7.8,529.5,7.8z M540.7,21.2c-2.6,2.3-5.8,4.3-9.9,5.1
		c-0.1,0-0.4,0.1-0.5,0.1c-0.2,0-0.3-0.1-0.3-0.2c0-0.1,0.1-0.2,0.2-0.2c3.4-1.6,6.1-3.9,8.4-6.5c2.3-2.8,4.1-6.2,5.1-10.1
		c0.2-0.8,0.3-1.5,0.3-1.9c0-0.4-0.1-0.6-0.4-0.9c-0.2-0.1-0.5-0.4-0.8-0.6c-0.1-0.1-0.2-0.2-0.2-0.3c0-0.1,0.1-0.2,0.2-0.3
		c0.5-0.2,1.1-0.3,1.4-0.3c0.6,0,1.6,0.5,2.6,1.2c0.8,0.6,1.7,1.6,1.7,2.2c0,0.4-0.2,0.6-0.5,0.9c-0.4,0.4-0.5,0.7-0.6,1.2
		C545.8,14.5,543.9,18.3,540.7,21.2z M535.1,6.2c0-0.1,0.1-0.2,0.2-0.2c1.9,0.1,3.2,0.7,4.2,1.4C540.3,8,541,9,541,10.1
		c0,1.2-0.6,2.1-1.8,2.1c-0.9,0-1.4-0.3-1.8-2.1c-0.3-1.5-1.1-2.9-2.1-3.6C535.1,6.4,535.1,6.3,535.1,6.2z"/>
	<path class="st0" d="M565,13.6c-0.5,0.5-0.9,0.9-1.4,1.3c-2.8,2.4-6,4.3-9.6,5.3c-0.2,0.1-0.3,0-0.3-0.2c0-0.1,0-0.1,0.1-0.2
		c2.8-1.9,5.5-4.2,7.9-6.8c2-2.1,3.8-4.4,5-6.8c0.3-0.5,0.5-0.9,0.5-1.1c0-0.3-0.1-0.4-0.4-0.7c-0.1-0.1-0.3-0.3-0.6-0.5
		c-0.1-0.1-0.2-0.2-0.2-0.3c0-0.1,0.1-0.2,0.2-0.2c0.5-0.2,1.1-0.3,1.5-0.3c0.5,0,1.3,0.3,2.2,1c1,0.7,1.8,1.3,1.8,2.1
		c0,0.3-0.2,0.6-0.6,0.8c-0.5,0.2-0.6,0.4-1.3,1.2c-0.9,1.2-1.8,2.3-2.8,3.4c0.2,0.1,0.4,0.3,0.6,0.5c0.7,0.6,1,0.9,1,1.2
		c0,0.3-0.1,0.4-0.2,0.6c-0.2,0.3-0.1,0.3-0.1,1.3c0,4.3,0.2,7.5,0.2,9.7c0,1.5-0.6,2.1-1.7,2.1c-0.8,0-1.2-0.3-1.7-1.4
		c-0.3-0.7-0.7-1.7-0.7-2.3c0-0.5,0.1-0.9,0.3-1.1c0.2-0.3,0.2-0.7,0.3-1.2c0.1-1.7,0.1-4.2,0.1-7V13.6z"/>
	<path class="st0" d="M579.6,0.8c5.2,3.7,7.7,8.2,7.7,14.1c0,5.9-2.4,10.4-7.7,14.1l-0.7-0.9c5-3.5,7.2-8,7.2-13.3
		c0-5.3-2.1-9.7-7.2-13.3L579.6,0.8z"/>
	<path class="st0" d="M592.7,28.6v-1.1h8.6V6.6h1.2v22H592.7z"/>
</g>
</svg>
