<?xml version="1.0" encoding="utf-8"?>
<!-- Generator: Adobe Illustrator 25.4.1, SVG Export Plug-In . SVG Version: 6.00 Build 0)  -->
<svg version="1.1" id="レイヤー_1" xmlns="http://www.w3.org/2000/svg" xmlns:xlink="http://www.w3.org/1999/xlink" x="0px"
	 y="0px" viewBox="0 0 410 52" style="enable-background:new 0 0 410 52;" xml:space="preserve">
<style type="text/css">
	.st0{fill:#BB6F64;}
	.st1{fill:none;stroke:#FFFFFF;stroke-width:2.2439;stroke-miterlimit:10;}
	.st2{fill:#FFFFFF;}
</style>
<g>
	<g>
		<path class="st0" d="M6,13h12v2c0,2.1-1.4,3.6-4.6,3.6H6.1v17.2c0,4.9,1.9,7,5.7,7c2.1,0,4.2-0.2,5.5-1h0.3v2.1
			c0,2.9-2.3,4.5-6.3,4.5c-7.7,0-11.1-4-11.1-12V13.7c0-2,0.5-4,1.5-5.4c0.8-1.2,2.8-2.5,3.6-2.5H6V13z M44.5,48.4
			c-8.5,0-14.2-5.9-14.2-16.1V12.9h1.8c2.7,0,4.1,1.6,4.1,4.6v14.4c0,7.1,3.6,10.9,8.6,10.9c5.5,0,8.3-3.1,8.3-10.6V12.9h1.6
			c2.9,0,4.3,1.5,4.3,4.6v15.2C59.1,43,53.8,48.4,44.5,48.4 M77.8,12.9h-1.8v11.5v13.3v6.1c0,3.1,2.1,4.6,4.1,4.6h1.8V36.9V23.6
			v-6.1C81.9,14.5,79.8,12.9,77.8,12.9 M79.1,0c-2.2,0-4,1.9-4,4.1c0,2.2,1.8,4,4,4c2.2,0,4-1.8,4-4C83,1.9,81.3,0,79.1,0"/>
	</g>
	<g>
		<line class="st1" x1="112.3" y1="20.9" x2="129.7" y2="38.4"/>
		<line class="st1" x1="129.7" y1="20.9" x2="112.3" y2="38.4"/>
	</g>
	<g>
		<path class="st2" d="M198,12.4l-13.5,35h6.9l2.9-7.2h14.3l2.7,7.2h6.9l-13.5-35H198z M196.7,33.7l4.7-12l4.7,12H196.7z"/>
		<path class="st2" d="M267.5,12.4l-13.5,35h6.9l2.9-7.2h14.3l2.7,7.2h6.9l-13.5-35H267.5z M266.3,33.7l4.7-12l4.7,12H266.3z"/>
		<rect x="328.6" y="12.4" class="st2" width="6.6" height="35"/>
		<polygon class="st2" points="409.3,18.9 409.3,12.4 390.2,12.4 390.2,47.4 409.3,47.4 409.3,40.9 396.8,40.9 396.8,33.1 
			408.9,33.1 408.9,26.7 396.8,26.7 396.8,18.9 		"/>
		<path class="st2" d="M302.6,12.4h-0.9H295v6.7v21.6v6.7h6.6h0.9c9.7,0,17.5-7.8,17.5-17.5C320.1,20.2,312.2,12.4,302.6,12.4z
			 M302.6,40.7h-0.9V19.1h0.9c6,0,10.8,4.8,10.8,10.8C313.4,35.8,308.5,40.7,302.6,40.7z"/>
		<path class="st2" d="M172.1,11.6c-6.3,0-11.4,5.1-11.4,11.4v24.4h6.7v-14c1.5,0.7,3.1,1.1,4.8,1.1c6.3,0,11.4-5.1,11.4-11.4
			S178.4,11.6,172.1,11.6z M172.1,27.5c-2.5,0-4.5-2-4.5-4.5c0-2.5,2-4.5,4.5-4.5c2.5,0,4.5,2,4.5,4.5
			C176.5,25.5,174.5,27.5,172.1,27.5z"/>
		<path class="st2" d="M247.9,23c0-6.3-5.1-11.4-11.4-11.4c-6.3,0-11.4,5.1-11.4,11.4v24.4h6.7v-14c1.4,0.7,3,1,4.7,1.1l5.5,12.9
			h6.9l-6.4-14.6C245.7,30.8,247.9,27.2,247.9,23z M232,23c0-2.5,2-4.5,4.5-4.5c2.5,0,4.5,2,4.5,4.5c0,2.5-2,4.5-4.5,4.5
			C234,27.5,232,25.5,232,23z"/>
		<path class="st2" d="M367.6,35.3c-0.1-1.3-0.4-2.5-0.7-3.6c-0.2-0.6-0.4-1.1-0.6-1.6l-0.6-1.5c-0.8-1.9-1.5-3.5-1.8-5.1
			c-0.3-1.6-0.2-3.2,0.2-5c0.5-1.8,1.1-3.4,2.3-4.9c1.1-1.5,2.8-2.8,4.4-4.2c-2.1,0.3-4.2,0.9-6.2,2.2c-2,1.3-3.5,3.3-4.6,5.4
			c-1,2.1-1.6,4.7-1.4,7.2c0.1,1.3,0.4,2.5,0.7,3.6c0.2,0.6,0.4,1.1,0.6,1.6l0.6,1.5c0.8,1.9,1.5,3.5,1.8,5.1c0.3,1.6,0.2,3.2-0.2,5
			c-0.5,1.8-1.1,3.4-2.3,4.9c-1.1,1.5-2.8,2.8-4.4,4.2c2.1-0.3,4.2-0.9,6.2-2.2c2-1.3,3.5-3.3,4.6-5.4
			C367.3,40.3,367.9,37.8,367.6,35.3z"/>
		<path class="st2" d="M377.8,12.1c1.1-1.5,2.8-2.8,4.4-4.2c-2.1,0.3-4.2,0.9-6.2,2.2c-2,1.3-3.5,3.3-4.6,5.4
			c-1,2.1-1.6,4.7-1.4,7.2c0.1,1.3,0.4,2.5,0.7,3.6c0.2,0.6,0.4,1.1,0.6,1.6l0.6,1.5c0.8,1.9,1.5,3.5,1.8,5.1c0.3,1.6,0.2,3.2-0.2,5
			c-0.5,1.8-1.1,3.4-2.3,4.9c-1.1,1.5-2.8,2.8-4.4,4.2c2.1-0.3,4.2-0.9,6.2-2.2c2-1.3,3.5-3.3,4.6-5.4c1-2.1,1.6-4.7,1.4-7.2
			c-0.1-1.3-0.4-2.5-0.7-3.6c-0.2-0.6-0.4-1.1-0.6-1.6l-0.6-1.5c-0.8-1.9-1.5-3.5-1.8-5.1c-0.3-1.6-0.2-3.2,0.2-5
			C376,15.2,376.6,13.6,377.8,12.1z"/>
		<path class="st2" d="M356.3,36.7c-0.1-1.3-0.4-2.5-0.7-3.6c-0.2-0.6-0.4-1.1-0.6-1.6l-0.6-1.5c-0.8-1.9-1.5-3.5-1.8-5.1
			c-0.3-1.6-0.2-3.2,0.2-5c0.5-1.8,1.1-3.4,2.3-4.9c1.1-1.5,2.8-2.8,4.4-4.2c-2.1,0.3-4.2,0.9-6.2,2.2c-2,1.3-3.5,3.3-4.6,5.4
			c-1,2.1-1.6,4.7-1.4,7.2c0.1,1.3,0.4,2.5,0.7,3.6c0.2,0.6,0.4,1.1,0.6,1.6l0.6,1.5c0.8,1.9,1.5,3.5,1.8,5.1c0.3,1.6,0.2,3.2-0.2,5
			c-0.5,1.8-1.1,3.4-2.3,4.9c-1.1,1.5-2.8,2.8-4.4,4.2c2.1-0.3,4.2-0.9,6.2-2.2c2-1.3,3.5-3.3,4.6-5.4
			C355.9,41.8,356.5,39.2,356.3,36.7z"/>
	</g>
</g>
</svg>
